<svg xmlns="http://www.w3.org/2000/svg" xmlns:xlink="http://www.w3.org/1999/xlink" version="1.1" class="marks" width="1099" height="420" viewBox="0 0 1099 420"><rect width="1099" height="420" fill="white"/><g fill="none" stroke-miterlimit="10" transform="translate(62,62)"><g class="mark-group role-frame root" role="graphics-object" aria-roledescription="group mark container"><g transform="translate(0,0)"><path class="background" aria-hidden="true" d="M0,0h0v300h0Z"/><g><g class="mark-group role-scope concat_0_group" role="graphics-object" aria-roledescription="group mark container"><g transform="translate(0,0)"><path class="background" aria-hidden="true" d="M0.5,0.5h500v300h-500Z" stroke="#ddd"/><g><g class="mark-group role-axis" aria-hidden="true"><g transform="translate(0.5,300.5)"><path class="background" aria-hidden="true" d="M0,0h0v0h0Z" pointer-events="none"/><g><g class="mark-rule role-axis-grid" pointer-events="none"><line transform="translate(0,-300)" x2="0" y2="300" stroke="#ddd" stroke-width="1" opacity="1"/><line transform="translate(28,-300)" x2="0" y2="300" stroke="#ddd" stroke-width="1" opacity="1"/><line transform="translate(56,-300)" x2="0" y2="300" stroke="#ddd" stroke-width="1" opacity="1"/><line transform="translate(83,-300)" x2="0" y2="300" stroke="#ddd" stroke-width="1" opacity="1"/><line transform="translate(111,-300)" x2="0" y2="300" stroke="#ddd" stroke-width="1" opacity="1"/><line transform="translate(139,-300)" x2="0" y2="300" stroke="#ddd" stroke-width="1" opacity="1"/><line transform="translate(167,-300)" x2="0" y2="300" stroke="#ddd" stroke-width="1" opacity="1"/><line transform="translate(194,-300)" x2="0" y2="300" stroke="#ddd" stroke-width="1" opacity="1"/><line transform="translate(222,-300)" x2="0" y2="300" stroke="#ddd" stroke-width="1" opacity="1"/><line transform="translate(250,-300)" x2="0" y2="300" stroke="#ddd" stroke-width="1" opacity="1"/><line transform="translate(278,-300)" x2="0" y2="300" stroke="#ddd" stroke-width="1" opacity="1"/><line transform="translate(306,-300)" x2="0" y2="300" stroke="#ddd" stroke-width="1" opacity="1"/><line transform="translate(333,-300)" x2="0" y2="300" stroke="#ddd" stroke-width="1" opacity="1"/><line transform="translate(361,-300)" x2="0" y2="300" stroke="#ddd" stroke-width="1" opacity="1"/><line transform="translate(389,-300)" x2="0" y2="300" stroke="#ddd" stroke-width="1" opacity="1"/><line transform="translate(417,-300)" x2="0" y2="300" stroke="#ddd" stroke-width="1" opacity="1"/><line transform="translate(444,-300)" x2="0" y2="300" stroke="#ddd" stroke-width="1" opacity="1"/><line transform="translate(472,-300)" x2="0" y2="300" stroke="#ddd" stroke-width="1" opacity="1"/><line transform="translate(500,-300)" x2="0" y2="300" stroke="#ddd" stroke-width="1" opacity="1"/></g></g><path class="foreground" aria-hidden="true" d="" pointer-events="none" display="none"/></g></g><g class="mark-group role-axis" aria-hidden="true"><g transform="translate(0.5,0.5)"><path class="background" aria-hidden="true" d="M0,0h0v0h0Z" pointer-events="none"/><g><g class="mark-rule role-axis-grid" pointer-events="none"><line transform="translate(0,300)" x2="500" y2="0" stroke="#ddd" stroke-width="1" opacity="1"/><line transform="translate(0,250)" x2="500" y2="0" stroke="#ddd" stroke-width="1" opacity="1"/><line transform="translate(0,200)" x2="500" y2="0" stroke="#ddd" stroke-width="1" opacity="1"/><line transform="translate(0,150)" x2="500" y2="0" stroke="#ddd" stroke-width="1" opacity="1"/><line transform="translate(0,100)" x2="500" y2="0" stroke="#ddd" stroke-width="1" opacity="1"/><line transform="translate(0,50)" x2="500" y2="0" stroke="#ddd" stroke-width="1" opacity="1"/><line transform="translate(0,0)" x2="500" y2="0" stroke="#ddd" stroke-width="1" opacity="1"/></g></g><path class="foreground" aria-hidden="true" d="" pointer-events="none" display="none"/></g></g><g class="mark-group role-axis" role="graphics-symbol" aria-roledescription="axis" aria-label="X-axis titled 'Fator de Aleatoriedade' for a linear scale with values from 0.00 to 0.18"><g transform="translate(0.5,300.5)"><path class="background" aria-hidden="true" d="M0,0h0v0h0Z" pointer-events="none"/><g><g class="mark-rule role-axis-tick" pointer-events="none"><line transform="translate(0,0)" x2="0" y2="5" stroke="#888" stroke-width="1" opacity="1"/><line transform="translate(28,0)" x2="0" y2="5" stroke="#888" stroke-width="1" opacity="1"/><line transform="translate(56,0)" x2="0" y2="5" stroke="#888" stroke-width="1" opacity="1"/><line transform="translate(83,0)" x2="0" y2="5" stroke="#888" stroke-width="1" opacity="1"/><line transform="translate(111,0)" x2="0" y2="5" stroke="#888" stroke-width="1" opacity="1"/><line transform="translate(139,0)" x2="0" y2="5" stroke="#888" stroke-width="1" opacity="1"/><line transform="translate(167,0)" x2="0" y2="5" stroke="#888" stroke-width="1" opacity="1"/><line transform="translate(194,0)" x2="0" y2="5" stroke="#888" stroke-width="1" opacity="1"/><line transform="translate(222,0)" x2="0" y2="5" stroke="#888" stroke-width="1" opacity="1"/><line transform="translate(250,0)" x2="0" y2="5" stroke="#888" stroke-width="1" opacity="1"/><line transform="translate(278,0)" x2="0" y2="5" stroke="#888" stroke-width="1" opacity="1"/><line transform="translate(306,0)" x2="0" y2="5" stroke="#888" stroke-width="1" opacity="1"/><line transform="translate(333,0)" x2="0" y2="5" stroke="#888" stroke-width="1" opacity="1"/><line transform="translate(361,0)" x2="0" y2="5" stroke="#888" stroke-width="1" opacity="1"/><line transform="translate(389,0)" x2="0" y2="5" stroke="#888" stroke-width="1" opacity="1"/><line transform="translate(417,0)" x2="0" y2="5" stroke="#888" stroke-width="1" opacity="1"/><line transform="translate(444,0)" x2="0" y2="5" stroke="#888" stroke-width="1" opacity="1"/><line transform="translate(472,0)" x2="0" y2="5" stroke="#888" stroke-width="1" opacity="1"/><line transform="translate(500,0)" x2="0" y2="5" stroke="#888" stroke-width="1" opacity="1"/></g><g class="mark-text role-axis-label" pointer-events="none"><text text-anchor="start" transform="translate(0,15)" font-family="sans-serif" font-size="10px" fill="#000" opacity="1">0.00</text><text text-anchor="middle" transform="translate(27.77777777777778,15)" font-family="sans-serif" font-size="10px" fill="#000" opacity="0">0.01</text><text text-anchor="middle" transform="translate(55.55555555555556,15)" font-family="sans-serif" font-size="10px" fill="#000" opacity="1">0.02</text><text text-anchor="middle" transform="translate(83.33333333333333,15)" font-family="sans-serif" font-size="10px" fill="#000" opacity="0">0.03</text><text text-anchor="middle" transform="translate(111.11111111111111,15)" font-family="sans-serif" font-size="10px" fill="#000" opacity="1">0.04</text><text text-anchor="middle" transform="translate(138.88888888888889,15)" font-family="sans-serif" font-size="10px" fill="#000" opacity="0">0.05</text><text text-anchor="middle" transform="translate(166.66666666666666,15)" font-family="sans-serif" font-size="10px" fill="#000" opacity="1">0.06</text><text text-anchor="middle" transform="translate(194.44444444444449,15)" font-family="sans-serif" font-size="10px" fill="#000" opacity="0">0.07</text><text text-anchor="middle" transform="translate(222.22222222222223,15)" font-family="sans-serif" font-size="10px" fill="#000" opacity="1">0.08</text><text text-anchor="middle" transform="translate(250,15)" font-family="sans-serif" font-size="10px" fill="#000" opacity="0">0.09</text><text text-anchor="middle" transform="translate(277.77777777777777,15)" font-family="sans-serif" font-size="10px" fill="#000" opacity="1">0.10</text><text text-anchor="middle" transform="translate(305.5555555555556,15)" font-family="sans-serif" font-size="10px" fill="#000" opacity="0">0.11</text><text text-anchor="middle" transform="translate(333.3333333333333,15)" font-family="sans-serif" font-size="10px" fill="#000" opacity="1">0.12</text><text text-anchor="middle" transform="translate(361.11111111111114,15)" font-family="sans-serif" font-size="10px" fill="#000" opacity="0">0.13</text><text text-anchor="middle" transform="translate(388.88888888888897,15)" font-family="sans-serif" font-size="10px" fill="#000" opacity="1">0.14</text><text text-anchor="middle" transform="translate(416.6666666666667,15)" font-family="sans-serif" font-size="10px" fill="#000" opacity="0">0.15</text><text text-anchor="middle" transform="translate(444.44444444444446,15)" font-family="sans-serif" font-size="10px" fill="#000" opacity="1">0.16</text><text text-anchor="middle" transform="translate(472.2222222222223,15)" font-family="sans-serif" font-size="10px" fill="#000" opacity="0">0.17</text><text text-anchor="end" transform="translate(500,15)" font-family="sans-serif" font-size="10px" fill="#000" opacity="1">0.18</text></g><g class="mark-rule role-axis-domain" pointer-events="none"><line transform="translate(0,0)" x2="500" y2="0" stroke="#888" stroke-width="1" opacity="1"/></g><g class="mark-text role-axis-title" pointer-events="none"><text text-anchor="middle" transform="translate(250,30)" font-family="sans-serif" font-size="11px" font-weight="bold" fill="#000" opacity="1">Fator de Aleatoriedade</text></g></g><path class="foreground" aria-hidden="true" d="" pointer-events="none" display="none"/></g></g><g class="mark-group role-axis" role="graphics-symbol" aria-roledescription="axis" aria-label="Y-axis titled 'Entropia de Shannon' for a linear scale with values from 0.0 to 3.0"><g transform="translate(0.5,0.5)"><path class="background" aria-hidden="true" d="M0,0h0v0h0Z" pointer-events="none"/><g><g class="mark-rule role-axis-tick" pointer-events="none"><line transform="translate(0,300)" x2="-5" y2="0" stroke="#888" stroke-width="1" opacity="1"/><line transform="translate(0,250)" x2="-5" y2="0" stroke="#888" stroke-width="1" opacity="1"/><line transform="translate(0,200)" x2="-5" y2="0" stroke="#888" stroke-width="1" opacity="1"/><line transform="translate(0,150)" x2="-5" y2="0" stroke="#888" stroke-width="1" opacity="1"/><line transform="translate(0,100)" x2="-5" y2="0" stroke="#888" stroke-width="1" opacity="1"/><line transform="translate(0,50)" x2="-5" y2="0" stroke="#888" stroke-width="1" opacity="1"/><line transform="translate(0,0)" x2="-5" y2="0" stroke="#888" stroke-width="1" opacity="1"/></g><g class="mark-text role-axis-label" pointer-events="none"><text text-anchor="end" transform="translate(-7,303)" font-family="sans-serif" font-size="10px" fill="#000" opacity="1">0.0</text><text text-anchor="end" transform="translate(-7,253)" font-family="sans-serif" font-size="10px" fill="#000" opacity="1">0.5</text><text text-anchor="end" transform="translate(-7,203.00000000000003)" font-family="sans-serif" font-size="10px" fill="#000" opacity="1">1.0</text><text text-anchor="end" transform="translate(-7,153)" font-family="sans-serif" font-size="10px" fill="#000" opacity="1">1.5</text><text text-anchor="end" transform="translate(-7,103.00000000000001)" font-family="sans-serif" font-size="10px" fill="#000" opacity="1">2.0</text><text text-anchor="end" transform="translate(-7,52.999999999999986)" font-family="sans-serif" font-size="10px" fill="#000" opacity="1">2.5</text><text text-anchor="end" transform="translate(-7,3)" font-family="sans-serif" font-size="10px" fill="#000" opacity="1">3.0</text></g><g class="mark-rule role-axis-domain" pointer-events="none"><line transform="translate(0,300)" x2="0" y2="-300" stroke="#888" stroke-width="1" opacity="1"/></g><g class="mark-text role-axis-title" pointer-events="none"><text text-anchor="middle" transform="translate(-24.9013671875,150) rotate(-90) translate(0,-2)" font-family="sans-serif" font-size="11px" font-weight="bold" fill="#000" opacity="1">Entropia de Shannon</text></g></g><path class="foreground" aria-hidden="true" d="" pointer-events="none" display="none"/></g></g><g class="mark-rect role-mark view_7_marks" clip-path="url(#clip1)" role="graphics-object" aria-roledescription="rect mark container"><path aria-label="x: 0.18; y: 3; x2: 0; y2: 0" role="graphics-symbol" aria-roledescription="rect mark" d="M0,0h500v300h-500Z" fill="grey" opacity="0.3"/></g><g class="mark-symbol role-mark concat_0_layer_1_marks" clip-path="url(#clip2)" role="graphics-object" aria-roledescription="symbol mark container"><path aria-label="Fator de Aleatoriedade: 0.0804893932267; Entropia de Shannon: 2.67197429991; Comportamento: Bem Comportado; Coluna: (0) Serviços Públicos On-line; Score de Aleatoriedade: 1.376" role="graphics-symbol" aria-roledescription="point" transform="translate(223.58164785182888,32.80257000893738)" d="M2.739,0A2.739,2.739,0,1,1,-2.739,0A2.739,2.739,0,1,1,2.739,0" stroke="blue" stroke-width="2" opacity="0.7"/><path aria-label="Fator de Aleatoriedade: 0.0480713815111; Entropia de Shannon: 1.90370585333; Comportamento: Bem Comportado; Coluna: (1) Solicitação de Serviços Públicos; Score de Aleatoriedade: 0.976" role="graphics-symbol" aria-roledescription="point" transform="translate(133.53161530874124,109.62941466713008)" d="M2.739,0A2.739,2.739,0,1,1,-2.739,0A2.739,2.739,0,1,1,2.739,0" stroke="blue" stroke-width="2" opacity="0.7"/><path aria-label="Fator de Aleatoriedade: 0; Entropia de Shannon: 0.698844199311; Comportamento: Bem Comportado; Coluna: (2) Transparência - Execução Orçamentária e Financeira; Score de Aleatoriedade: 0.349" role="graphics-symbol" aria-roledescription="point" transform="translate(0,230.11558006886798)" d="M2.739,0A2.739,2.739,0,1,1,-2.739,0A2.739,2.739,0,1,1,2.739,0" stroke="blue" stroke-width="2" opacity="0.7"/><path aria-label="Fator de Aleatoriedade: 0.0273128536835; Entropia de Shannon: 1.27813473013; Comportamento: Bem Comportado; Coluna: (3) Transparência dos Dados - Disponibilização; Score de Aleatoriedade: 0.653" role="graphics-symbol" aria-roledescription="point" transform="translate(75.86903800971878,172.18652698681638)" d="M2.739,0A2.739,2.739,0,1,1,-2.739,0A2.739,2.739,0,1,1,2.739,0" stroke="blue" stroke-width="2" opacity="0.7"/><path aria-label="Fator de Aleatoriedade: 0; Entropia de Shannon: 0.0409935301176; Comportamento: Bem Comportado; Coluna: (4) Governança Colaborativa - Responsáveis; Score de Aleatoriedade: 0.020" role="graphics-symbol" aria-roledescription="point" transform="translate(0,295.9006469882402)" d="M2.739,0A2.739,2.739,0,1,1,-2.739,0A2.739,2.739,0,1,1,2.739,0" stroke="blue" stroke-width="2" opacity="0.7"/><path aria-label="Fator de Aleatoriedade: 0; Entropia de Shannon: 0.0305391197691; Comportamento: Bem Comportado; Coluna: (5) Incorporação de TICs - Planejamento; Score de Aleatoriedade: 0.015" role="graphics-symbol" aria-roledescription="point" transform="translate(0,296.9460880230871)" d="M2.739,0A2.739,2.739,0,1,1,-2.739,0A2.739,2.739,0,1,1,2.739,0" stroke="blue" stroke-width="2" opacity="0.7"/><path aria-label="Fator de Aleatoriedade: 0; Entropia de Shannon: 0.0299149438646; Comportamento: Bem Comportado; Coluna: (6) Planejamento Estratégico para Transformação Digital; Score de Aleatoriedade: 0.015" role="graphics-symbol" aria-roledescription="point" transform="translate(0,297.0085056135428)" d="M2.739,0A2.739,2.739,0,1,1,-2.739,0A2.739,2.739,0,1,1,2.739,0" stroke="blue" stroke-width="2" opacity="0.7"/><path aria-label="Fator de Aleatoriedade: 0; Entropia de Shannon: 0.0358063543335; Comportamento: Bem Comportado; Coluna: (7) Governança de TI - Práticas; Score de Aleatoriedade: 0.018" role="graphics-symbol" aria-roledescription="point" transform="translate(0,296.4193645666493)" d="M2.739,0A2.739,2.739,0,1,1,-2.739,0A2.739,2.739,0,1,1,2.739,0" stroke="blue" stroke-width="2" opacity="0.7"/><path aria-label="Fator de Aleatoriedade: 0; Entropia de Shannon: 0.0429893130722; Comportamento: Bem Comportado; Coluna: (8) Infraestrutura de Hw e Sw - Armazenamento; Score de Aleatoriedade: 0.021" role="graphics-symbol" aria-roledescription="point" transform="translate(0,295.7010686927813)" d="M2.739,0A2.739,2.739,0,1,1,-2.739,0A2.739,2.739,0,1,1,2.739,0" stroke="blue" stroke-width="2" opacity="0.7"/><path aria-label="Fator de Aleatoriedade: 0; Entropia de Shannon: 0.0341841706078; Comportamento: Bem Comportado; Coluna: (9) Gestão Integrada de Dados; Score de Aleatoriedade: 0.017" role="graphics-symbol" aria-roledescription="point" transform="translate(0,296.5815829392177)" d="M2.739,0A2.739,2.739,0,1,1,-2.739,0A2.739,2.739,0,1,1,2.739,0" stroke="blue" stroke-width="2" opacity="0.7"/><path aria-label="Fator de Aleatoriedade: 0; Entropia de Shannon: 0.021526012016; Comportamento: Bem Comportado; Coluna: (10) Segurança de Políticas Públicas - Monitoramento; Score de Aleatoriedade: 0.011" role="graphics-symbol" aria-roledescription="point" transform="translate(0,297.84739879840066)" d="M2.739,0A2.739,2.739,0,1,1,-2.739,0A2.739,2.739,0,1,1,2.739,0" stroke="blue" stroke-width="2" opacity="0.7"/><path aria-label="Fator de Aleatoriedade: 0; Entropia de Shannon: 0.408596895379; Comportamento: Bem Comportado; Coluna: (11) Percepção dos Serviços Públicos; Score de Aleatoriedade: 0.204" role="graphics-symbol" aria-roledescription="point" transform="translate(0,259.1403104620723)" d="M2.739,0A2.739,2.739,0,1,1,-2.739,0A2.739,2.739,0,1,1,2.739,0" stroke="blue" stroke-width="2" opacity="0.7"/><path aria-label="Fator de Aleatoriedade: 0; Entropia de Shannon: 0.0231778412303; Comportamento: Bem Comportado; Coluna: (12) Transparência - Monitoramento; Score de Aleatoriedade: 0.012" role="graphics-symbol" aria-roledescription="point" transform="translate(0,297.6822158769734)" d="M2.739,0A2.739,2.739,0,1,1,-2.739,0A2.739,2.739,0,1,1,2.739,0" stroke="blue" stroke-width="2" opacity="0.7"/><path aria-label="Fator de Aleatoriedade: 0; Entropia de Shannon: 0.0432736486981; Comportamento: Bem Comportado; Coluna: (13) Segurança dos Dados - Práticas; Score de Aleatoriedade: 0.022" role="graphics-symbol" aria-roledescription="point" transform="translate(0,295.6726351301915)" d="M2.739,0A2.739,2.739,0,1,1,-2.739,0A2.739,2.739,0,1,1,2.739,0" stroke="blue" stroke-width="2" opacity="0.7"/></g><g class="mark-group role-title"><g transform="translate(-35.9013671875,-36)"><path class="background" aria-hidden="true" d="M0,0h0v0h0Z" pointer-events="none"/><g><g class="mark-text role-title-text" role="graphics-symbol" aria-roledescription="title" aria-label="Title text 'Relação entre Entropia de Shannon e Fator de Aleatoriedade'" pointer-events="none"><text text-anchor="start" transform="translate(0,10)" font-family="sans-serif" font-size="13px" font-weight="bold" fill="#000" opacity="1">Relação entre Entropia de Shannon e Fator de Aleatoriedade</text></g><g class="mark-text role-title-subtitle" role="graphics-symbol" aria-roledescription="subtitle" aria-label="Subtitle text 'A Correlação de Spearman entre o Fator de Aleatoriedade e a Entropia de Shannon é de 0.7187'" pointer-events="none"><text text-anchor="start" transform="translate(0,25)" font-family="sans-serif" font-size="12px" fill="#000" opacity="1">A Correlação de Spearman entre o Fator de Aleatoriedade e a Entropia de Shannon é de 0.7187</text></g></g><path class="foreground" aria-hidden="true" d="" pointer-events="none" display="none"/></g></g></g><path class="foreground" aria-hidden="true" d="" display="none"/></g></g><g class="mark-group role-scope view_8_group" role="graphics-object" aria-roledescription="group mark container"><g transform="translate(544,0)"><path class="background" aria-hidden="true" d="M0.5,0.5h300v300h-300Z" stroke="#ddd"/><g><g class="mark-group role-axis" aria-hidden="true"><g transform="translate(0.5,300.5)"><path class="background" aria-hidden="true" d="M0,0h0v0h0Z" pointer-events="none"/><g><g class="mark-rule role-axis-grid" pointer-events="none"><line transform="translate(0,-300)" x2="0" y2="300" stroke="#ddd" stroke-width="1" opacity="1"/><line transform="translate(33,-300)" x2="0" y2="300" stroke="#ddd" stroke-width="1" opacity="1"/><line transform="translate(67,-300)" x2="0" y2="300" stroke="#ddd" stroke-width="1" opacity="1"/><line transform="translate(100,-300)" x2="0" y2="300" stroke="#ddd" stroke-width="1" opacity="1"/><line transform="translate(133,-300)" x2="0" y2="300" stroke="#ddd" stroke-width="1" opacity="1"/><line transform="translate(167,-300)" x2="0" y2="300" stroke="#ddd" stroke-width="1" opacity="1"/><line transform="translate(200,-300)" x2="0" y2="300" stroke="#ddd" stroke-width="1" opacity="1"/><line transform="translate(233,-300)" x2="0" y2="300" stroke="#ddd" stroke-width="1" opacity="1"/><line transform="translate(267,-300)" x2="0" y2="300" stroke="#ddd" stroke-width="1" opacity="1"/><line transform="translate(300,-300)" x2="0" y2="300" stroke="#ddd" stroke-width="1" opacity="1"/></g></g><path class="foreground" aria-hidden="true" d="" pointer-events="none" display="none"/></g></g><g class="mark-group role-axis" aria-hidden="true"><g transform="translate(0.5,0.5)"><path class="background" aria-hidden="true" d="M0,0h0v0h0Z" pointer-events="none"/><g><g class="mark-rule role-axis-grid" pointer-events="none"><line transform="translate(0,300)" x2="300" y2="0" stroke="#ddd" stroke-width="1" opacity="1"/><line transform="translate(0,246)" x2="300" y2="0" stroke="#ddd" stroke-width="1" opacity="1"/><line transform="translate(0,193)" x2="300" y2="0" stroke="#ddd" stroke-width="1" opacity="1"/><line transform="translate(0,139)" x2="300" y2="0" stroke="#ddd" stroke-width="1" opacity="1"/><line transform="translate(0,86)" x2="300" y2="0" stroke="#ddd" stroke-width="1" opacity="1"/><line transform="translate(0,32)" x2="300" y2="0" stroke="#ddd" stroke-width="1" opacity="1"/></g></g><path class="foreground" aria-hidden="true" d="" pointer-events="none" display="none"/></g></g><g class="mark-group role-axis" role="graphics-symbol" aria-roledescription="axis" aria-label="X-axis titled 'Fator de Aleatoriedade' for a linear scale with values from 0.00 to 0.09"><g transform="translate(0.5,300.5)"><path class="background" aria-hidden="true" d="M0,0h0v0h0Z" pointer-events="none"/><g><g class="mark-rule role-axis-tick" pointer-events="none"><line transform="translate(0,0)" x2="0" y2="5" stroke="#888" stroke-width="1" opacity="1"/><line transform="translate(33,0)" x2="0" y2="5" stroke="#888" stroke-width="1" opacity="1"/><line transform="translate(67,0)" x2="0" y2="5" stroke="#888" stroke-width="1" opacity="1"/><line transform="translate(100,0)" x2="0" y2="5" stroke="#888" stroke-width="1" opacity="1"/><line transform="translate(133,0)" x2="0" y2="5" stroke="#888" stroke-width="1" opacity="1"/><line transform="translate(167,0)" x2="0" y2="5" stroke="#888" stroke-width="1" opacity="1"/><line transform="translate(200,0)" x2="0" y2="5" stroke="#888" stroke-width="1" opacity="1"/><line transform="translate(233,0)" x2="0" y2="5" stroke="#888" stroke-width="1" opacity="1"/><line transform="translate(267,0)" x2="0" y2="5" stroke="#888" stroke-width="1" opacity="1"/><line transform="translate(300,0)" x2="0" y2="5" stroke="#888" stroke-width="1" opacity="1"/></g><g class="mark-text role-axis-label" pointer-events="none"><text text-anchor="start" transform="translate(0,15)" font-family="sans-serif" font-size="10px" fill="#000" opacity="1">0.00</text><text text-anchor="middle" transform="translate(33.333333333333336,15)" font-family="sans-serif" font-size="10px" fill="#000" opacity="1">0.01</text><text text-anchor="middle" transform="translate(66.66666666666667,15)" font-family="sans-serif" font-size="10px" fill="#000" opacity="1">0.02</text><text text-anchor="middle" transform="translate(100,15)" font-family="sans-serif" font-size="10px" fill="#000" opacity="1">0.03</text><text text-anchor="middle" transform="translate(133.33333333333334,15)" font-family="sans-serif" font-size="10px" fill="#000" opacity="1">0.04</text><text text-anchor="middle" transform="translate(166.66666666666669,15)" font-family="sans-serif" font-size="10px" fill="#000" opacity="1">0.05</text><text text-anchor="middle" transform="translate(200,15)" font-family="sans-serif" font-size="10px" fill="#000" opacity="1">0.06</text><text text-anchor="middle" transform="translate(233.33333333333337,15)" font-family="sans-serif" font-size="10px" fill="#000" opacity="1">0.07</text><text text-anchor="middle" transform="translate(266.6666666666667,15)" font-family="sans-serif" font-size="10px" fill="#000" opacity="1">0.08</text><text text-anchor="end" transform="translate(300,15)" font-family="sans-serif" font-size="10px" fill="#000" opacity="1">0.09</text></g><g class="mark-rule role-axis-domain" pointer-events="none"><line transform="translate(0,0)" x2="300" y2="0" stroke="#888" stroke-width="1" opacity="1"/></g><g class="mark-text role-axis-title" pointer-events="none"><text text-anchor="middle" transform="translate(150,30)" font-family="sans-serif" font-size="11px" font-weight="bold" fill="#000" opacity="1">Fator de Aleatoriedade</text></g></g><path class="foreground" aria-hidden="true" d="" pointer-events="none" display="none"/></g></g><g class="mark-group role-axis" role="graphics-symbol" aria-roledescription="axis" aria-label="Y-axis for a linear scale with values from 0.0 to 2.8"><g transform="translate(0.5,0.5)"><path class="background" aria-hidden="true" d="M0,0h0v0h0Z" pointer-events="none"/><g><g class="mark-rule role-axis-tick" pointer-events="none"><line transform="translate(0,300)" x2="-5" y2="0" stroke="#888" stroke-width="1" opacity="1"/><line transform="translate(0,246)" x2="-5" y2="0" stroke="#888" stroke-width="1" opacity="1"/><line transform="translate(0,193)" x2="-5" y2="0" stroke="#888" stroke-width="1" opacity="1"/><line transform="translate(0,139)" x2="-5" y2="0" stroke="#888" stroke-width="1" opacity="1"/><line transform="translate(0,86)" x2="-5" y2="0" stroke="#888" stroke-width="1" opacity="1"/><line transform="translate(0,32)" x2="-5" y2="0" stroke="#888" stroke-width="1" opacity="1"/></g><g class="mark-text role-axis-label" pointer-events="none"><text text-anchor="end" transform="translate(-7,303)" font-family="sans-serif" font-size="10px" fill="#000" opacity="1">0.0</text><text text-anchor="end" transform="translate(-7,249.42857142857142)" font-family="sans-serif" font-size="10px" fill="#000" opacity="1">0.5</text><text text-anchor="end" transform="translate(-7,195.85714285714283)" font-family="sans-serif" font-size="10px" fill="#000" opacity="1">1.0</text><text text-anchor="end" transform="translate(-7,142.28571428571428)" font-family="sans-serif" font-size="10px" fill="#000" opacity="1">1.5</text><text text-anchor="end" transform="translate(-7,88.71428571428571)" font-family="sans-serif" font-size="10px" fill="#000" opacity="1">2.0</text><text text-anchor="end" transform="translate(-7,35.14285714285713)" font-family="sans-serif" font-size="10px" fill="#000" opacity="1">2.5</text></g><g class="mark-rule role-axis-domain" pointer-events="none"><line transform="translate(0,300)" x2="0" y2="-300" stroke="#888" stroke-width="1" opacity="1"/></g></g><path class="foreground" aria-hidden="true" d="" pointer-events="none" display="none"/></g></g><g class="mark-symbol role-mark view_8_marks" clip-path="url(#clip3)" role="graphics-object" aria-roledescription="symbol mark container"><path aria-label="Fator de Aleatoriedade: 0.0804893932267; Entropia: 2.67197429991; Comportamento: Bem Comportado; Coluna: (0) Serviços Públicos On-line; Entropia de Shannon: 2.672; Score de Aleatoriedade: 1.376" role="graphics-symbol" aria-roledescription="point" transform="translate(268.29797742219466,13.717039295290023)" d="M2.739,0A2.739,2.739,0,1,1,-2.739,0A2.739,2.739,0,1,1,2.739,0" stroke="blue" stroke-width="2" opacity="0.7"/><path aria-label="Fator de Aleatoriedade: 0.0480713815111; Entropia: 1.90370585333; Comportamento: Bem Comportado; Coluna: (1) Solicitação de Serviços Públicos; Entropia de Shannon: 1.904; Score de Aleatoriedade: 0.976" role="graphics-symbol" aria-roledescription="point" transform="translate(160.2379383704895,96.0315157147822)" d="M2.739,0A2.739,2.739,0,1,1,-2.739,0A2.739,2.739,0,1,1,2.739,0" stroke="blue" stroke-width="2" opacity="0.7"/><path aria-label="Fator de Aleatoriedade: 0; Entropia: 0.698844199311; Comportamento: Bem Comportado; Coluna: (2) Transparência - Execução Orçamentária e Financeira; Entropia de Shannon: 0.699; Score de Aleatoriedade: 0.349" role="graphics-symbol" aria-roledescription="point" transform="translate(0,225.12383578807282)" d="M2.739,0A2.739,2.739,0,1,1,-2.739,0A2.739,2.739,0,1,1,2.739,0" stroke="blue" stroke-width="2" opacity="0.7"/><path aria-label="Fator de Aleatoriedade: 0.0273128536835; Entropia: 1.27813473013; Comportamento: Bem Comportado; Coluna: (3) Transparência dos Dados - Disponibilização; Entropia de Shannon: 1.278; Score de Aleatoriedade: 0.653" role="graphics-symbol" aria-roledescription="point" transform="translate(91.04284561166254,163.05699320016038)" d="M2.739,0A2.739,2.739,0,1,1,-2.739,0A2.739,2.739,0,1,1,2.739,0" stroke="blue" stroke-width="2" opacity="0.7"/><path aria-label="Fator de Aleatoriedade: 0; Entropia: 0.0409935301176; Comportamento: Bem Comportado; Coluna: (4) Governança Colaborativa - Responsáveis; Entropia de Shannon: 0.041; Score de Aleatoriedade: 0.020" role="graphics-symbol" aria-roledescription="point" transform="translate(0,295.60783605882875)" d="M2.739,0A2.739,2.739,0,1,1,-2.739,0A2.739,2.739,0,1,1,2.739,0" stroke="blue" stroke-width="2" opacity="0.7"/><path aria-label="Fator de Aleatoriedade: 0; Entropia: 0.0305391197691; Comportamento: Bem Comportado; Coluna: (5) Incorporação de TICs - Planejamento; Entropia de Shannon: 0.031; Score de Aleatoriedade: 0.015" role="graphics-symbol" aria-roledescription="point" transform="translate(0,296.7279514533076)" d="M2.739,0A2.739,2.739,0,1,1,-2.739,0A2.739,2.739,0,1,1,2.739,0" stroke="blue" stroke-width="2" opacity="0.7"/><path aria-label="Fator de Aleatoriedade: 0; Entropia: 0.0299149438646; Comportamento: Bem Comportado; Coluna: (6) Planejamento Estratégico para Transformação Digital; Entropia de Shannon: 0.030; Score de Aleatoriedade: 0.015" role="graphics-symbol" aria-roledescription="point" transform="translate(0,296.79482744308154)" d="M2.739,0A2.739,2.739,0,1,1,-2.739,0A2.739,2.739,0,1,1,2.739,0" stroke="blue" stroke-width="2" opacity="0.7"/><path aria-label="Fator de Aleatoriedade: 0; Entropia: 0.0358063543335; Comportamento: Bem Comportado; Coluna: (7) Governança de TI - Práticas; Entropia de Shannon: 0.036; Score de Aleatoriedade: 0.018" role="graphics-symbol" aria-roledescription="point" transform="translate(0,296.1636048928385)" d="M2.739,0A2.739,2.739,0,1,1,-2.739,0A2.739,2.739,0,1,1,2.739,0" stroke="blue" stroke-width="2" opacity="0.7"/><path aria-label="Fator de Aleatoriedade: 0; Entropia: 0.0429893130722; Comportamento: Bem Comportado; Coluna: (8) Infraestrutura de Hw e Sw - Armazenamento; Entropia de Shannon: 0.043; Score de Aleatoriedade: 0.021" role="graphics-symbol" aria-roledescription="point" transform="translate(0,295.3940021708371)" d="M2.739,0A2.739,2.739,0,1,1,-2.739,0A2.739,2.739,0,1,1,2.739,0" stroke="blue" stroke-width="2" opacity="0.7"/><path aria-label="Fator de Aleatoriedade: 0; Entropia: 0.0341841706078; Comportamento: Bem Comportado; Coluna: (9) Gestão Integrada de Dados; Entropia de Shannon: 0.034; Score de Aleatoriedade: 0.017" role="graphics-symbol" aria-roledescription="point" transform="translate(0,296.337410292019)" d="M2.739,0A2.739,2.739,0,1,1,-2.739,0A2.739,2.739,0,1,1,2.739,0" stroke="blue" stroke-width="2" opacity="0.7"/><path aria-label="Fator de Aleatoriedade: 0; Entropia: 0.021526012016; Comportamento: Bem Comportado; Coluna: (10) Segurança de Políticas Públicas - Monitoramento; Entropia de Shannon: 0.022; Score de Aleatoriedade: 0.011" role="graphics-symbol" aria-roledescription="point" transform="translate(0,297.693641569715)" d="M2.739,0A2.739,2.739,0,1,1,-2.739,0A2.739,2.739,0,1,1,2.739,0" stroke="blue" stroke-width="2" opacity="0.7"/><path aria-label="Fator de Aleatoriedade: 0; Entropia: 0.408596895379; Comportamento: Bem Comportado; Coluna: (11) Percepção dos Serviços Públicos; Entropia de Shannon: 0.409; Score de Aleatoriedade: 0.204" role="graphics-symbol" aria-roledescription="point" transform="translate(0,256.22176120936314)" d="M2.739,0A2.739,2.739,0,1,1,-2.739,0A2.739,2.739,0,1,1,2.739,0" stroke="blue" stroke-width="2" opacity="0.7"/><path aria-label="Fator de Aleatoriedade: 0; Entropia: 0.0231778412303; Comportamento: Bem Comportado; Coluna: (12) Transparência - Monitoramento; Entropia de Shannon: 0.023; Score de Aleatoriedade: 0.012" role="graphics-symbol" aria-roledescription="point" transform="translate(0,297.5166598681858)" d="M2.739,0A2.739,2.739,0,1,1,-2.739,0A2.739,2.739,0,1,1,2.739,0" stroke="blue" stroke-width="2" opacity="0.7"/><path aria-label="Fator de Aleatoriedade: 0; Entropia: 0.0432736486981; Comportamento: Bem Comportado; Coluna: (13) Segurança dos Dados - Práticas; Entropia de Shannon: 0.043; Score de Aleatoriedade: 0.022" role="graphics-symbol" aria-roledescription="point" transform="translate(0,295.3635376394909)" d="M2.739,0A2.739,2.739,0,1,1,-2.739,0A2.739,2.739,0,1,1,2.739,0" stroke="blue" stroke-width="2" opacity="0.7"/></g><g class="mark-group role-title"><g transform="translate(-20.9013671875,-31)"><path class="background" aria-hidden="true" d="M0,0h0v0h0Z" pointer-events="none"/><g><g class="mark-text role-title-text" role="graphics-symbol" aria-roledescription="title" aria-label="Title text 'Atributos Dentro da Zona Bem Comportada'" pointer-events="none"><text text-anchor="start" transform="translate(0,10)" font-family="sans-serif" font-size="13px" font-weight="bold" fill="#000" opacity="1">Atributos Dentro da Zona Bem Comportada</text></g><g class="mark-text role-title-subtitle" role="graphics-symbol" aria-roledescription="subtitle" aria-label="Subtitle text 'Existem 14 atributos bem comportados nessa zona'" pointer-events="none"><text text-anchor="start" transform="translate(0,25)" font-family="sans-serif" font-size="12px" fill="#000" opacity="1">Existem 14 atributos bem comportados nessa zona</text></g></g><path class="foreground" aria-hidden="true" d="" pointer-events="none" display="none"/></g></g></g><path class="foreground" aria-hidden="true" d="" display="none"/></g></g><g class="mark-group role-legend" role="graphics-symbol" aria-roledescription="legend" aria-label="Symbol legend titled 'Comportamento do Atributo' for stroke color with 2 values: Bem Comportado, Mal Comportado"><g transform="translate(864,0)"><path class="background" aria-hidden="true" d="M0,0h148v45h-148Z" pointer-events="none"/><g><g class="mark-group role-legend-entry"><g transform="translate(0,16)"><path class="background" aria-hidden="true" d="M0,0h0v0h0Z" pointer-events="none"/><g><g class="mark-group role-scope" role="graphics-object" aria-roledescription="group mark container"><g transform="translate(0,0)"><path class="background" aria-hidden="true" d="M0,0h94.369140625v12.5h-94.369140625Z" pointer-events="none" opacity="1"/><g><g class="mark-symbol role-legend-symbol" pointer-events="none"><path transform="translate(6,6)" d="M5,0A5,5,0,1,1,-5,0A5,5,0,1,1,5,0" stroke="blue" stroke-width="1.5" opacity="0.7"/></g><g class="mark-text role-legend-label" pointer-events="none"><text text-anchor="start" transform="translate(16,9)" font-family="sans-serif" font-size="10px" fill="#000" opacity="1">Bem Comportado</text></g></g><path class="foreground" aria-hidden="true" d="" pointer-events="none" display="none"/></g><g transform="translate(0,16)"><path class="background" aria-hidden="true" d="M0,0h94.369140625v12.5h-94.369140625Z" pointer-events="none" opacity="1"/><g><g class="mark-symbol role-legend-symbol" pointer-events="none"><path transform="translate(6,6)" d="M5,0A5,5,0,1,1,-5,0A5,5,0,1,1,5,0" stroke="red" stroke-width="1.5" opacity="0.7"/></g><g class="mark-text role-legend-label" pointer-events="none"><text text-anchor="start" transform="translate(16,9)" font-family="sans-serif" font-size="10px" fill="#000" opacity="1">Mal Comportado</text></g></g><path class="foreground" aria-hidden="true" d="" pointer-events="none" display="none"/></g></g></g><path class="foreground" aria-hidden="true" d="" pointer-events="none" display="none"/></g></g><g class="mark-text role-legend-title" pointer-events="none"><text text-anchor="start" transform="translate(0,9)" font-family="sans-serif" font-size="11px" font-weight="bold" fill="#000" opacity="1">Comportamento do Atributo</text></g></g><path class="foreground" aria-hidden="true" d="" pointer-events="none" display="none"/></g></g></g><path class="foreground" aria-hidden="true" d="" display="none"/></g></g></g><defs><clipPath id="clip1"><rect x="0" y="0" width="500" height="300"/></clipPath><clipPath id="clip2"><rect x="0" y="0" width="500" height="300"/></clipPath><clipPath id="clip3"><rect x="0" y="0" width="300" height="300"/></clipPath></defs></svg>