<svg xmlns="http://www.w3.org/2000/svg" xmlns:xlink="http://www.w3.org/1999/xlink" version="1.1" class="marks" width="670" height="359" viewBox="0 0 670 359"><rect width="670" height="359" fill="white"/><g fill="none" stroke-miterlimit="10" transform="translate(73,22)"><g class="mark-group role-frame root" role="graphics-object" aria-roledescription="group mark container"><g transform="translate(0,0)"><path class="background" aria-hidden="true" d="M0.5,0.5h500v300h-500Z" stroke="#ddd"/><g><g class="mark-group role-axis" aria-hidden="true"><g transform="translate(0.5,300.5)"><path class="background" aria-hidden="true" d="M0,0h0v0h0Z" pointer-events="none"/><g><g class="mark-rule role-axis-grid" pointer-events="none"><line transform="translate(134,-300)" x2="0" y2="300" stroke="#ddd" stroke-width="1" opacity="1"/><line transform="translate(171,-300)" x2="0" y2="300" stroke="#ddd" stroke-width="1" opacity="1"/><line transform="translate(208,-300)" x2="0" y2="300" stroke="#ddd" stroke-width="1" opacity="1"/><line transform="translate(245,-300)" x2="0" y2="300" stroke="#ddd" stroke-width="1" opacity="1"/><line transform="translate(281,-300)" x2="0" y2="300" stroke="#ddd" stroke-width="1" opacity="1"/><line transform="translate(318,-300)" x2="0" y2="300" stroke="#ddd" stroke-width="1" opacity="1"/><line transform="translate(355,-300)" x2="0" y2="300" stroke="#ddd" stroke-width="1" opacity="1"/><line transform="translate(98,-300)" x2="0" y2="300" stroke="#ddd" stroke-width="1" opacity="1"/><line transform="translate(61,-300)" x2="0" y2="300" stroke="#ddd" stroke-width="1" opacity="1"/><line transform="translate(24,-300)" x2="0" y2="300" stroke="#ddd" stroke-width="1" opacity="1"/><line transform="translate(392,-300)" x2="0" y2="300" stroke="#ddd" stroke-width="1" opacity="1"/><line transform="translate(428,-300)" x2="0" y2="300" stroke="#ddd" stroke-width="1" opacity="1"/><line transform="translate(465,-300)" x2="0" y2="300" stroke="#ddd" stroke-width="1" opacity="1"/></g></g><path class="foreground" aria-hidden="true" d="" pointer-events="none" display="none"/></g></g><g class="mark-group role-axis" aria-hidden="true"><g transform="translate(0.5,0.5)"><path class="background" aria-hidden="true" d="M0,0h0v0h0Z" pointer-events="none"/><g><g class="mark-rule role-axis-grid" pointer-events="none"><line transform="translate(0,243)" x2="500" y2="0" stroke="#ddd" stroke-width="1" opacity="1"/><line transform="translate(0,141)" x2="500" y2="0" stroke="#ddd" stroke-width="1" opacity="1"/><line transform="translate(0,294)" x2="500" y2="0" stroke="#ddd" stroke-width="1" opacity="1"/><line transform="translate(0,192)" x2="500" y2="0" stroke="#ddd" stroke-width="1" opacity="1"/><line transform="translate(0,90)" x2="500" y2="0" stroke="#ddd" stroke-width="1" opacity="1"/><line transform="translate(0,39)" x2="500" y2="0" stroke="#ddd" stroke-width="1" opacity="1"/></g></g><path class="foreground" aria-hidden="true" d="" pointer-events="none" display="none"/></g></g><g class="mark-group role-axis" role="graphics-symbol" aria-roledescription="axis" aria-label="X-axis titled 'Número de Atributos do Modelo' for a linear scale with values from 0 to 14"><g transform="translate(0.5,300.5)"><path class="background" aria-hidden="true" d="M0,0h0v0h0Z" pointer-events="none"/><g><g class="mark-rule role-axis-tick" pointer-events="none"><line transform="translate(134,0)" x2="0" y2="5" stroke="#888" stroke-width="1" opacity="1"/><line transform="translate(171,0)" x2="0" y2="5" stroke="#888" stroke-width="1" opacity="1"/><line transform="translate(208,0)" x2="0" y2="5" stroke="#888" stroke-width="1" opacity="1"/><line transform="translate(245,0)" x2="0" y2="5" stroke="#888" stroke-width="1" opacity="1"/><line transform="translate(281,0)" x2="0" y2="5" stroke="#888" stroke-width="1" opacity="1"/><line transform="translate(318,0)" x2="0" y2="5" stroke="#888" stroke-width="1" opacity="1"/><line transform="translate(355,0)" x2="0" y2="5" stroke="#888" stroke-width="1" opacity="1"/><line transform="translate(98,0)" x2="0" y2="5" stroke="#888" stroke-width="1" opacity="1"/><line transform="translate(61,0)" x2="0" y2="5" stroke="#888" stroke-width="1" opacity="1"/><line transform="translate(24,0)" x2="0" y2="5" stroke="#888" stroke-width="1" opacity="1"/><line transform="translate(392,0)" x2="0" y2="5" stroke="#888" stroke-width="1" opacity="1"/><line transform="translate(428,0)" x2="0" y2="5" stroke="#888" stroke-width="1" opacity="1"/><line transform="translate(465,0)" x2="0" y2="5" stroke="#888" stroke-width="1" opacity="1"/></g><g class="mark-text role-axis-label" pointer-events="none"><text text-anchor="middle" transform="translate(134.31106869779993,15)" font-family="sans-serif" font-size="10px" fill="#000" opacity="1">4</text><text text-anchor="middle" transform="translate(171.0838163185969,15)" font-family="sans-serif" font-size="10px" fill="#000" opacity="1">5</text><text text-anchor="middle" transform="translate(207.85656393939388,15)" font-family="sans-serif" font-size="10px" fill="#000" opacity="1">6</text><text text-anchor="middle" transform="translate(244.62931156019084,15)" font-family="sans-serif" font-size="10px" fill="#000" opacity="1">7</text><text text-anchor="middle" transform="translate(281.4020591809878,15)" font-family="sans-serif" font-size="10px" fill="#000" opacity="1">8</text><text text-anchor="middle" transform="translate(318.17480680178477,15)" font-family="sans-serif" font-size="10px" fill="#000" opacity="1">9</text><text text-anchor="middle" transform="translate(354.94755442258173,15)" font-family="sans-serif" font-size="10px" fill="#000" opacity="1">10</text><text text-anchor="middle" transform="translate(97.53832107700298,15)" font-family="sans-serif" font-size="10px" fill="#000" opacity="1">3</text><text text-anchor="middle" transform="translate(60.76557345620599,15)" font-family="sans-serif" font-size="10px" fill="#000" opacity="1">2</text><text text-anchor="middle" transform="translate(23.992825835409025,15)" font-family="sans-serif" font-size="10px" fill="#000" opacity="1">1</text><text text-anchor="middle" transform="translate(391.72030204337875,15)" font-family="sans-serif" font-size="10px" fill="#000" opacity="1">11</text><text text-anchor="middle" transform="translate(428.4930496641757,15)" font-family="sans-serif" font-size="10px" fill="#000" opacity="1">12</text><text text-anchor="middle" transform="translate(465.2657972849727,15)" font-family="sans-serif" font-size="10px" fill="#000" opacity="1">13</text></g><g class="mark-rule role-axis-domain" pointer-events="none"><line transform="translate(0,0)" x2="500" y2="0" stroke="#888" stroke-width="1" opacity="1"/></g><g class="mark-text role-axis-title" pointer-events="none"><text text-anchor="middle" transform="translate(250,30)" font-family="sans-serif" font-size="11px" font-weight="bold" fill="#000" opacity="1">Número de Atributos do Modelo</text></g></g><path class="foreground" aria-hidden="true" d="" pointer-events="none" display="none"/></g></g><g class="mark-group role-axis" role="graphics-symbol" aria-roledescription="axis" aria-label="Y-axis titled 'Score R2 na Validação Cruzada' for a linear scale with values from −156.33% to 138.27%"><g transform="translate(0.5,0.5)"><path class="background" aria-hidden="true" d="M0,0h0v0h0Z" pointer-events="none"/><g><g class="mark-rule role-axis-tick" pointer-events="none"><line transform="translate(0,243)" x2="-5" y2="0" stroke="#888" stroke-width="1" opacity="1"/><line transform="translate(0,141)" x2="-5" y2="0" stroke="#888" stroke-width="1" opacity="1"/><line transform="translate(0,294)" x2="-5" y2="0" stroke="#888" stroke-width="1" opacity="1"/><line transform="translate(0,192)" x2="-5" y2="0" stroke="#888" stroke-width="1" opacity="1"/><line transform="translate(0,90)" x2="-5" y2="0" stroke="#888" stroke-width="1" opacity="1"/><line transform="translate(0,39)" x2="-5" y2="0" stroke="#888" stroke-width="1" opacity="1"/></g><g class="mark-text role-axis-label" pointer-events="none"><text text-anchor="end" transform="translate(-7,245.6392260692527)" font-family="sans-serif" font-size="10px" fill="#000" opacity="1">−100.00%</text><text text-anchor="end" transform="translate(-7,143.80700188858407)" font-family="sans-serif" font-size="10px" fill="#000" opacity="1">0.00%</text><text text-anchor="end" transform="translate(-7,296.55533815958705)" font-family="sans-serif" font-size="10px" fill="#000" opacity="1">−150.00%</text><text text-anchor="end" transform="translate(-7,194.72311397891838)" font-family="sans-serif" font-size="10px" fill="#000" opacity="1">−50.00%</text><text text-anchor="end" transform="translate(-7,92.89088979824977)" font-family="sans-serif" font-size="10px" fill="#000" opacity="1">50.00%</text><text text-anchor="end" transform="translate(-7,41.974777707915464)" font-family="sans-serif" font-size="10px" fill="#000" opacity="1">100.00%</text></g><g class="mark-rule role-axis-domain" pointer-events="none"><line transform="translate(0,300)" x2="0" y2="-300" stroke="#888" stroke-width="1" opacity="1"/></g><g class="mark-text role-axis-title" pointer-events="none"><text text-anchor="middle" transform="translate(-56.3173828125,150) rotate(-90) translate(0,-2)" font-family="sans-serif" font-size="11px" font-weight="bold" fill="#000" opacity="1">Score R2 na Validação Cruzada</text></g></g><path class="foreground" aria-hidden="true" d="" pointer-events="none" display="none"/></g></g><g class="mark-symbol role-mark marks" clip-path="url(#clip1)" role="graphics-object" aria-roledescription="symbol mark container"><path aria-label="Número de Atributos do Modelo: 12; Score R2 na Validação Cruzada: 36.93%; Método: LR; Dataset: Original; Número de Atributos: 12; R2 Score: 36.93%" role="graphics-symbol" aria-roledescription="point" transform="translate(428.4930496641757,103.20217793376042)" d="M6.124,0A6.124,6.124,0,1,1,-6.124,0A6.124,6.124,0,1,1,6.124,0" fill="#4c78a8" stroke-width="2" opacity="0.7"/><path aria-label="Número de Atributos do Modelo: 9; Score R2 na Validação Cruzada: 26.53%; Método: LR; Dataset: Bem Comportados; Número de Atributos: 9; R2 Score: 26.53%" role="graphics-symbol" aria-roledescription="point" transform="translate(318.17480680178477,113.78706821351464)" d="M6.124,0A6.124,6.124,0,1,1,-6.124,0A6.124,6.124,0,1,1,6.124,0" fill="#4c78a8" stroke-width="2" opacity="0.7"/><path aria-label="Número de Atributos do Modelo: 5; Score R2 na Validação Cruzada: 27.07%; Método: LR; Dataset: Bem Comportados e Pouco Correlacionados; Número de Atributos: 5; R2 Score: 27.07%" role="graphics-symbol" aria-roledescription="point" transform="translate(171.0838163185969,113.24494617350143)" d="M6.124,0A6.124,6.124,0,1,1,-6.124,0A6.124,6.124,0,1,1,6.124,0" fill="#4c78a8" stroke-width="2" opacity="0.7"/><path aria-label="Número de Atributos do Modelo: 3; Score R2 na Validação Cruzada: 27.26%; Método: LR; Dataset: Mal Comportados; Número de Atributos: 3; R2 Score: 27.26%" role="graphics-symbol" aria-roledescription="point" transform="translate(97.53832107700298,113.04412785986119)" d="M6.124,0A6.124,6.124,0,1,1,-6.124,0A6.124,6.124,0,1,1,6.124,0" fill="#4c78a8" stroke-width="2" opacity="0.7"/><path aria-label="Número de Atributos do Modelo: 3; Score R2 na Validação Cruzada: 27.26%; Método: LR; Dataset: Mal Comportados e Pouco Correlacionados; Número de Atributos: 3; R2 Score: 27.26%" role="graphics-symbol" aria-roledescription="point" transform="translate(97.53832107700298,113.04412785986119)" d="M6.124,0A6.124,6.124,0,1,1,-6.124,0A6.124,6.124,0,1,1,6.124,0" fill="#4c78a8" stroke-width="2" opacity="0.7"/><path aria-label="Número de Atributos do Modelo: 8; Score R2 na Validação Cruzada: 37.28%; Método: LR; Dataset: Bem Comportados + Mal Comportados; Número de Atributos: 8; R2 Score: 37.28%" role="graphics-symbol" aria-roledescription="point" transform="translate(281.4020591809878,102.844183171858)" d="M6.124,0A6.124,6.124,0,1,1,-6.124,0A6.124,6.124,0,1,1,6.124,0" fill="#4c78a8" stroke-width="2" opacity="0.7"/><path aria-label="Número de Atributos do Modelo: 12; Score R2 na Validação Cruzada: −208.83%; Método: SVR (Linear); Dataset: Original; Número de Atributos: 12; R2 Score: −208.83%" role="graphics-symbol" aria-roledescription="point" transform="translate(428.4930496641757,353.4658952232887)" d="M6.124,0A6.124,6.124,0,1,1,-6.124,0A6.124,6.124,0,1,1,6.124,0" fill="#f58518" stroke-width="2" opacity="0.7"/><path aria-label="Número de Atributos do Modelo: 9; Score R2 na Validação Cruzada: −23.58%; Método: SVR (Linear); Dataset: Bem Comportados; Número de Atributos: 9; R2 Score: −23.58%" role="graphics-symbol" aria-roledescription="point" transform="translate(318.17480680178477,164.82406203765743)" d="M6.124,0A6.124,6.124,0,1,1,-6.124,0A6.124,6.124,0,1,1,6.124,0" fill="#f58518" stroke-width="2" opacity="0.7"/><path aria-label="Número de Atributos do Modelo: 5; Score R2 na Validação Cruzada: −8.31%; Método: SVR (Linear); Dataset: Bem Comportados e Pouco Correlacionados; Número de Atributos: 5; R2 Score: −8.31%" role="graphics-symbol" aria-roledescription="point" transform="translate(171.0838163185969,149.2742870537855)" d="M6.124,0A6.124,6.124,0,1,1,-6.124,0A6.124,6.124,0,1,1,6.124,0" fill="#f58518" stroke-width="2" opacity="0.7"/><path aria-label="Número de Atributos do Modelo: 3; Score R2 na Validação Cruzada: −1.56%; Método: SVR (Linear); Dataset: Mal Comportados; Número de Atributos: 3; R2 Score: −1.56%" role="graphics-symbol" aria-roledescription="point" transform="translate(97.53832107700298,142.3991319427091)" d="M6.124,0A6.124,6.124,0,1,1,-6.124,0A6.124,6.124,0,1,1,6.124,0" fill="#f58518" stroke-width="2" opacity="0.7"/><path aria-label="Número de Atributos do Modelo: 3; Score R2 na Validação Cruzada: −25.34%; Método: SVR (Linear); Dataset: Mal Comportados e Pouco Correlacionados; Número de Atributos: 3; R2 Score: −25.34%" role="graphics-symbol" aria-roledescription="point" transform="translate(97.53832107700298,166.615306203421)" d="M6.124,0A6.124,6.124,0,1,1,-6.124,0A6.124,6.124,0,1,1,6.124,0" fill="#f58518" stroke-width="2" opacity="0.7"/><path aria-label="Número de Atributos do Modelo: 8; Score R2 na Validação Cruzada: −134.68%; Método: SVR (Linear); Dataset: Bem Comportados + Mal Comportados; Número de Atributos: 8; R2 Score: −134.68%" role="graphics-symbol" aria-roledescription="point" transform="translate(281.4020591809878,277.95912328859697)" d="M6.124,0A6.124,6.124,0,1,1,-6.124,0A6.124,6.124,0,1,1,6.124,0" fill="#f58518" stroke-width="2" opacity="0.7"/><path aria-label="Número de Atributos do Modelo: 12; Score R2 na Validação Cruzada: 34.55%; Método: SVR (RBF); Dataset: Original; Número de Atributos: 12; R2 Score: 34.55%" role="graphics-symbol" aria-roledescription="point" transform="translate(428.4930496641757,105.62168233619428)" d="M6.124,0A6.124,6.124,0,1,1,-6.124,0A6.124,6.124,0,1,1,6.124,0" fill="#e45756" stroke-width="2" opacity="0.7"/><path aria-label="Número de Atributos do Modelo: 9; Score R2 na Validação Cruzada: 23.07%; Método: SVR (RBF); Dataset: Bem Comportados; Número de Atributos: 9; R2 Score: 23.07%" role="graphics-symbol" aria-roledescription="point" transform="translate(318.17480680178477,117.31770400060796)" d="M6.124,0A6.124,6.124,0,1,1,-6.124,0A6.124,6.124,0,1,1,6.124,0" fill="#e45756" stroke-width="2" opacity="0.7"/><path aria-label="Número de Atributos do Modelo: 5; Score R2 na Validação Cruzada: 23.11%; Método: SVR (RBF); Dataset: Bem Comportados e Pouco Correlacionados; Número de Atributos: 5; R2 Score: 23.11%" role="graphics-symbol" aria-roledescription="point" transform="translate(171.0838163185969,117.27298162844971)" d="M6.124,0A6.124,6.124,0,1,1,-6.124,0A6.124,6.124,0,1,1,6.124,0" fill="#e45756" stroke-width="2" opacity="0.7"/><path aria-label="Número de Atributos do Modelo: 3; Score R2 na Validação Cruzada: 29.84%; Método: SVR (RBF); Dataset: Mal Comportados; Número de Atributos: 3; R2 Score: 29.84%" role="graphics-symbol" aria-roledescription="point" transform="translate(97.53832107700298,110.42360404519361)" d="M6.124,0A6.124,6.124,0,1,1,-6.124,0A6.124,6.124,0,1,1,6.124,0" fill="#e45756" stroke-width="2" opacity="0.7"/><path aria-label="Número de Atributos do Modelo: 3; Score R2 na Validação Cruzada: 29.84%; Método: SVR (RBF); Dataset: Mal Comportados e Pouco Correlacionados; Número de Atributos: 3; R2 Score: 29.84%" role="graphics-symbol" aria-roledescription="point" transform="translate(97.53832107700298,110.42360404519361)" d="M6.124,0A6.124,6.124,0,1,1,-6.124,0A6.124,6.124,0,1,1,6.124,0" fill="#e45756" stroke-width="2" opacity="0.7"/><path aria-label="Número de Atributos do Modelo: 8; Score R2 na Validação Cruzada: 34.68%; Método: SVR (RBF); Dataset: Bem Comportados + Mal Comportados; Número de Atributos: 8; R2 Score: 34.68%" role="graphics-symbol" aria-roledescription="point" transform="translate(281.4020591809878,105.49267119122452)" d="M6.124,0A6.124,6.124,0,1,1,-6.124,0A6.124,6.124,0,1,1,6.124,0" fill="#e45756" stroke-width="2" opacity="0.7"/></g><g class="mark-group role-legend" role="graphics-symbol" aria-roledescription="legend" aria-label="Symbol legend titled 'Método' for fill color with 3 values: LR, SVR (Linear), SVR (RBF)"><g transform="translate(518,0)"><path class="background" aria-hidden="true" d="M0,0h74v53h-74Z" pointer-events="none"/><g><g class="mark-group role-legend-entry"><g transform="translate(0,16)"><path class="background" aria-hidden="true" d="M0,0h0v0h0Z" pointer-events="none"/><g><g class="mark-group role-scope" role="graphics-object" aria-roledescription="group mark container"><g transform="translate(0,0)"><path class="background" aria-hidden="true" d="M0,0h73.7978515625v11h-73.7978515625Z" pointer-events="none" opacity="1"/><g><g class="mark-symbol role-legend-symbol" pointer-events="none"><path transform="translate(6,6)" d="M5,0A5,5,0,1,1,-5,0A5,5,0,1,1,5,0" fill="#4c78a8" stroke-width="1.5" opacity="0.7"/></g><g class="mark-text role-legend-label" pointer-events="none"><text text-anchor="start" transform="translate(16,9)" font-family="sans-serif" font-size="10px" fill="#000" opacity="1">LR</text></g></g><path class="foreground" aria-hidden="true" d="" pointer-events="none" display="none"/></g><g transform="translate(0,13)"><path class="background" aria-hidden="true" d="M0,0h73.7978515625v11h-73.7978515625Z" pointer-events="none" opacity="1"/><g><g class="mark-symbol role-legend-symbol" pointer-events="none"><path transform="translate(6,6)" d="M5,0A5,5,0,1,1,-5,0A5,5,0,1,1,5,0" fill="#f58518" stroke-width="1.5" opacity="0.7"/></g><g class="mark-text role-legend-label" pointer-events="none"><text text-anchor="start" transform="translate(16,9)" font-family="sans-serif" font-size="10px" fill="#000" opacity="1">SVR (Linear)</text></g></g><path class="foreground" aria-hidden="true" d="" pointer-events="none" display="none"/></g><g transform="translate(0,26)"><path class="background" aria-hidden="true" d="M0,0h73.7978515625v11h-73.7978515625Z" pointer-events="none" opacity="1"/><g><g class="mark-symbol role-legend-symbol" pointer-events="none"><path transform="translate(6,6)" d="M5,0A5,5,0,1,1,-5,0A5,5,0,1,1,5,0" fill="#e45756" stroke-width="1.5" opacity="0.7"/></g><g class="mark-text role-legend-label" pointer-events="none"><text text-anchor="start" transform="translate(16,9)" font-family="sans-serif" font-size="10px" fill="#000" opacity="1">SVR (RBF)</text></g></g><path class="foreground" aria-hidden="true" d="" pointer-events="none" display="none"/></g></g></g><path class="foreground" aria-hidden="true" d="" pointer-events="none" display="none"/></g></g><g class="mark-text role-legend-title" pointer-events="none"><text text-anchor="start" transform="translate(0,9)" font-family="sans-serif" font-size="11px" font-weight="bold" fill="#000" opacity="1">Método</text></g></g><path class="foreground" aria-hidden="true" d="" pointer-events="none" display="none"/></g></g><g class="mark-group role-title"><g transform="translate(250,-17)"><path class="background" aria-hidden="true" d="M0,0h0v0h0Z" pointer-events="none"/><g><g class="mark-text role-title-text" role="graphics-symbol" aria-roledescription="title" aria-label="Title text 'Performance dos Métodos em Cada Conjunto de Atributos'" pointer-events="none"><text text-anchor="middle" transform="translate(0,10)" font-family="sans-serif" font-size="13px" font-weight="bold" fill="#000" opacity="1">Performance dos Métodos em Cada Conjunto de Atributos</text></g></g><path class="foreground" aria-hidden="true" d="" pointer-events="none" display="none"/></g></g></g><path class="foreground" aria-hidden="true" d="" display="none"/></g></g></g><defs><clipPath id="clip1"><rect x="0" y="0" width="500" height="300"/></clipPath></defs></svg>