<svg xmlns="http://www.w3.org/2000/svg" xmlns:xlink="http://www.w3.org/1999/xlink" version="1.1" class="marks" width="1091" height="420" viewBox="0 0 1091 420"><rect width="1091" height="420" fill="white"/><g fill="none" stroke-miterlimit="10" transform="translate(54,62)"><g class="mark-group role-frame root" role="graphics-object" aria-roledescription="group mark container"><g transform="translate(0,0)"><path class="background" aria-hidden="true" d="M0,0h0v300h0Z"/><g><g class="mark-group role-scope concat_0_group" role="graphics-object" aria-roledescription="group mark container"><g transform="translate(0,0)"><path class="background" aria-hidden="true" d="M0.5,0.5h500v300h-500Z" stroke="#ddd"/><g><g class="mark-group role-axis" aria-hidden="true"><g transform="translate(0.5,300.5)"><path class="background" aria-hidden="true" d="M0,0h0v0h0Z" pointer-events="none"/><g><g class="mark-rule role-axis-grid" pointer-events="none"><line transform="translate(0,-300)" x2="0" y2="300" stroke="#ddd" stroke-width="1" opacity="1"/><line transform="translate(42,-300)" x2="0" y2="300" stroke="#ddd" stroke-width="1" opacity="1"/><line transform="translate(83,-300)" x2="0" y2="300" stroke="#ddd" stroke-width="1" opacity="1"/><line transform="translate(125,-300)" x2="0" y2="300" stroke="#ddd" stroke-width="1" opacity="1"/><line transform="translate(167,-300)" x2="0" y2="300" stroke="#ddd" stroke-width="1" opacity="1"/><line transform="translate(208,-300)" x2="0" y2="300" stroke="#ddd" stroke-width="1" opacity="1"/><line transform="translate(250,-300)" x2="0" y2="300" stroke="#ddd" stroke-width="1" opacity="1"/><line transform="translate(292,-300)" x2="0" y2="300" stroke="#ddd" stroke-width="1" opacity="1"/><line transform="translate(333,-300)" x2="0" y2="300" stroke="#ddd" stroke-width="1" opacity="1"/><line transform="translate(375,-300)" x2="0" y2="300" stroke="#ddd" stroke-width="1" opacity="1"/><line transform="translate(417,-300)" x2="0" y2="300" stroke="#ddd" stroke-width="1" opacity="1"/><line transform="translate(458,-300)" x2="0" y2="300" stroke="#ddd" stroke-width="1" opacity="1"/><line transform="translate(500,-300)" x2="0" y2="300" stroke="#ddd" stroke-width="1" opacity="1"/></g></g><path class="foreground" aria-hidden="true" d="" pointer-events="none" display="none"/></g></g><g class="mark-group role-axis" aria-hidden="true"><g transform="translate(0.5,0.5)"><path class="background" aria-hidden="true" d="M0,0h0v0h0Z" pointer-events="none"/><g><g class="mark-rule role-axis-grid" pointer-events="none"><line transform="translate(0,300)" x2="500" y2="0" stroke="#ddd" stroke-width="1" opacity="1"/><line transform="translate(0,254)" x2="500" y2="0" stroke="#ddd" stroke-width="1" opacity="1"/><line transform="translate(0,208)" x2="500" y2="0" stroke="#ddd" stroke-width="1" opacity="1"/><line transform="translate(0,162)" x2="500" y2="0" stroke="#ddd" stroke-width="1" opacity="1"/><line transform="translate(0,115)" x2="500" y2="0" stroke="#ddd" stroke-width="1" opacity="1"/><line transform="translate(0,69)" x2="500" y2="0" stroke="#ddd" stroke-width="1" opacity="1"/><line transform="translate(0,23)" x2="500" y2="0" stroke="#ddd" stroke-width="1" opacity="1"/></g></g><path class="foreground" aria-hidden="true" d="" pointer-events="none" display="none"/></g></g><g class="mark-group role-axis" role="graphics-symbol" aria-roledescription="axis" aria-label="X-axis titled 'Fator de Aleatoriedade' for a linear scale with values from 0.0 to 0.6"><g transform="translate(0.5,300.5)"><path class="background" aria-hidden="true" d="M0,0h0v0h0Z" pointer-events="none"/><g><g class="mark-rule role-axis-tick" pointer-events="none"><line transform="translate(0,0)" x2="0" y2="5" stroke="#888" stroke-width="1" opacity="1"/><line transform="translate(42,0)" x2="0" y2="5" stroke="#888" stroke-width="1" opacity="1"/><line transform="translate(83,0)" x2="0" y2="5" stroke="#888" stroke-width="1" opacity="1"/><line transform="translate(125,0)" x2="0" y2="5" stroke="#888" stroke-width="1" opacity="1"/><line transform="translate(167,0)" x2="0" y2="5" stroke="#888" stroke-width="1" opacity="1"/><line transform="translate(208,0)" x2="0" y2="5" stroke="#888" stroke-width="1" opacity="1"/><line transform="translate(250,0)" x2="0" y2="5" stroke="#888" stroke-width="1" opacity="1"/><line transform="translate(292,0)" x2="0" y2="5" stroke="#888" stroke-width="1" opacity="1"/><line transform="translate(333,0)" x2="0" y2="5" stroke="#888" stroke-width="1" opacity="1"/><line transform="translate(375,0)" x2="0" y2="5" stroke="#888" stroke-width="1" opacity="1"/><line transform="translate(417,0)" x2="0" y2="5" stroke="#888" stroke-width="1" opacity="1"/><line transform="translate(458,0)" x2="0" y2="5" stroke="#888" stroke-width="1" opacity="1"/><line transform="translate(500,0)" x2="0" y2="5" stroke="#888" stroke-width="1" opacity="1"/></g><g class="mark-text role-axis-label" pointer-events="none"><text text-anchor="start" transform="translate(0,15)" font-family="sans-serif" font-size="10px" fill="#000" opacity="1">0.00</text><text text-anchor="middle" transform="translate(41.66666666666667,15)" font-family="sans-serif" font-size="10px" fill="#000" opacity="1">0.05</text><text text-anchor="middle" transform="translate(83.33333333333334,15)" font-family="sans-serif" font-size="10px" fill="#000" opacity="1">0.10</text><text text-anchor="middle" transform="translate(125,15)" font-family="sans-serif" font-size="10px" fill="#000" opacity="1">0.15</text><text text-anchor="middle" transform="translate(166.66666666666669,15)" font-family="sans-serif" font-size="10px" fill="#000" opacity="1">0.20</text><text text-anchor="middle" transform="translate(208.33333333333334,15)" font-family="sans-serif" font-size="10px" fill="#000" opacity="1">0.25</text><text text-anchor="middle" transform="translate(250,15)" font-family="sans-serif" font-size="10px" fill="#000" opacity="1">0.30</text><text text-anchor="middle" transform="translate(291.6666666666667,15)" font-family="sans-serif" font-size="10px" fill="#000" opacity="1">0.35</text><text text-anchor="middle" transform="translate(333.33333333333337,15)" font-family="sans-serif" font-size="10px" fill="#000" opacity="1">0.40</text><text text-anchor="middle" transform="translate(375,15)" font-family="sans-serif" font-size="10px" fill="#000" opacity="1">0.45</text><text text-anchor="middle" transform="translate(416.6666666666667,15)" font-family="sans-serif" font-size="10px" fill="#000" opacity="1">0.50</text><text text-anchor="middle" transform="translate(458.33333333333337,15)" font-family="sans-serif" font-size="10px" fill="#000" opacity="1">0.55</text><text text-anchor="end" transform="translate(500,15)" font-family="sans-serif" font-size="10px" fill="#000" opacity="1">0.60</text></g><g class="mark-rule role-axis-domain" pointer-events="none"><line transform="translate(0,0)" x2="500" y2="0" stroke="#888" stroke-width="1" opacity="1"/></g><g class="mark-text role-axis-title" pointer-events="none"><text text-anchor="middle" transform="translate(250,30)" font-family="sans-serif" font-size="11px" font-weight="bold" fill="#000" opacity="1">Fator de Aleatoriedade</text></g></g><path class="foreground" aria-hidden="true" d="" pointer-events="none" display="none"/></g></g><g class="mark-group role-axis" role="graphics-symbol" aria-roledescription="axis" aria-label="Y-axis titled 'Entropia de Shannon' for a linear scale with values from 0 to 7"><g transform="translate(0.5,0.5)"><path class="background" aria-hidden="true" d="M0,0h0v0h0Z" pointer-events="none"/><g><g class="mark-rule role-axis-tick" pointer-events="none"><line transform="translate(0,300)" x2="-5" y2="0" stroke="#888" stroke-width="1" opacity="1"/><line transform="translate(0,254)" x2="-5" y2="0" stroke="#888" stroke-width="1" opacity="1"/><line transform="translate(0,208)" x2="-5" y2="0" stroke="#888" stroke-width="1" opacity="1"/><line transform="translate(0,162)" x2="-5" y2="0" stroke="#888" stroke-width="1" opacity="1"/><line transform="translate(0,115)" x2="-5" y2="0" stroke="#888" stroke-width="1" opacity="1"/><line transform="translate(0,69)" x2="-5" y2="0" stroke="#888" stroke-width="1" opacity="1"/><line transform="translate(0,23)" x2="-5" y2="0" stroke="#888" stroke-width="1" opacity="1"/></g><g class="mark-text role-axis-label" pointer-events="none"><text text-anchor="end" transform="translate(-7,303)" font-family="sans-serif" font-size="10px" fill="#000" opacity="1">0</text><text text-anchor="end" transform="translate(-7,256.8461538461538)" font-family="sans-serif" font-size="10px" fill="#000" opacity="1">1</text><text text-anchor="end" transform="translate(-7,210.69230769230768)" font-family="sans-serif" font-size="10px" fill="#000" opacity="1">2</text><text text-anchor="end" transform="translate(-7,164.53846153846152)" font-family="sans-serif" font-size="10px" fill="#000" opacity="1">3</text><text text-anchor="end" transform="translate(-7,118.38461538461537)" font-family="sans-serif" font-size="10px" fill="#000" opacity="1">4</text><text text-anchor="end" transform="translate(-7,72.23076923076921)" font-family="sans-serif" font-size="10px" fill="#000" opacity="1">5</text><text text-anchor="end" transform="translate(-7,26.076923076923062)" font-family="sans-serif" font-size="10px" fill="#000" opacity="1">6</text></g><g class="mark-rule role-axis-domain" pointer-events="none"><line transform="translate(0,300)" x2="0" y2="-300" stroke="#888" stroke-width="1" opacity="1"/></g><g class="mark-text role-axis-title" pointer-events="none"><text text-anchor="middle" transform="translate(-16.5615234375,150) rotate(-90) translate(0,-2)" font-family="sans-serif" font-size="11px" font-weight="bold" fill="#000" opacity="1">Entropia de Shannon</text></g></g><path class="foreground" aria-hidden="true" d="" pointer-events="none" display="none"/></g></g><g class="mark-rect role-mark view_11_marks" clip-path="url(#clip1)" role="graphics-object" aria-roledescription="rect mark container"><path aria-label="x: 0.18; y: 3; x2: 0; y2: 0" role="graphics-symbol" aria-roledescription="rect mark" d="M0,161.53846153846152h150v138.46153846153848h-150Z" fill="grey" opacity="0.3"/></g><g class="mark-symbol role-mark concat_0_layer_1_marks" clip-path="url(#clip2)" role="graphics-object" aria-roledescription="symbol mark container"><path aria-label="Fator de Aleatoriedade: 0.072228079913; Entropia de Shannon: 4.04476426548; Comportamento: Mal Comportado; Coluna: (0) Médicos disponíveis na rede pública municipal; Score de Aleatoriedade: 2.058" role="graphics-symbol" aria-roledescription="point" transform="translate(60.19006659420757,113.31857236227258)" d="M2.739,0A2.739,2.739,0,1,1,-2.739,0A2.739,2.739,0,1,1,2.739,0" stroke="red" stroke-width="2" opacity="0.7"/><path aria-label="Fator de Aleatoriedade: 0.0527334955382; Entropia de Shannon: 1.83599426378; Comportamento: Bem Comportado; Coluna: (1) Inclusão social para grupos específicos; Score de Aleatoriedade: 0.944" role="graphics-symbol" aria-roledescription="point" transform="translate(43.944579615154005,215.26180321001542)" d="M2.739,0A2.739,2.739,0,1,1,-2.739,0A2.739,2.739,0,1,1,2.739,0" stroke="blue" stroke-width="2" opacity="0.7"/><path aria-label="Fator de Aleatoriedade: 0.0107926205138; Entropia de Shannon: 0.900025126203; Comportamento: Bem Comportado; Coluna: (2) Políticas públicas para mulheres; Score de Aleatoriedade: 0.455" role="graphics-symbol" aria-roledescription="point" transform="translate(8.993850428179613,258.4603787906125)" d="M2.739,0A2.739,2.739,0,1,1,-2.739,0A2.739,2.739,0,1,1,2.739,0" stroke="blue" stroke-width="2" opacity="0.7"/><path aria-label="Fator de Aleatoriedade: 0.0866220510667; Entropia de Shannon: 4.20144923076; Comportamento: Mal Comportado; Coluna: (3) Taxa de homicídios; Score de Aleatoriedade: 2.144" role="graphics-symbol" aria-roledescription="point" transform="translate(72.18504255562239,106.08695858008196)" d="M2.739,0A2.739,2.739,0,1,1,-2.739,0A2.739,2.739,0,1,1,2.739,0" stroke="red" stroke-width="2" opacity="0.7"/><path aria-label="Fator de Aleatoriedade: 0; Entropia de Shannon: 0.0298648850302; Comportamento: Bem Comportado; Coluna: (4) Soluções em monitoramento para a segurança pública; Score de Aleatoriedade: 0.015" role="graphics-symbol" aria-roledescription="point" transform="translate(0,298.6216206909127)" d="M2.739,0A2.739,2.739,0,1,1,-2.739,0A2.739,2.739,0,1,1,2.739,0" stroke="blue" stroke-width="2" opacity="0.7"/><path aria-label="Fator de Aleatoriedade: 0; Entropia de Shannon: 1.10405079351; Comportamento: Bem Comportado; Coluna: (5) Mortalidade materna; Score de Aleatoriedade: 0.552" role="graphics-symbol" aria-roledescription="point" transform="translate(0,249.04380953024375)" d="M2.739,0A2.739,2.739,0,1,1,-2.739,0A2.739,2.739,0,1,1,2.739,0" stroke="blue" stroke-width="2" opacity="0.7"/><path aria-label="Fator de Aleatoriedade: 0; Entropia de Shannon: 0.0238171884164; Comportamento: Bem Comportado; Coluna: (6) Serviços on-line de saúde oferecidos aos pacientes; Score de Aleatoriedade: 0.012" role="graphics-symbol" aria-roledescription="point" transform="translate(0,298.90074515001237)" d="M2.739,0A2.739,2.739,0,1,1,-2.739,0A2.739,2.739,0,1,1,2.739,0" stroke="blue" stroke-width="2" opacity="0.7"/><path aria-label="Fator de Aleatoriedade: 0; Entropia de Shannon: 0.0339452864598; Comportamento: Bem Comportado; Coluna: (7) Prontuário eletrônico; Score de Aleatoriedade: 0.017" role="graphics-symbol" aria-roledescription="point" transform="translate(0,298.4332944710851)" d="M2.739,0A2.739,2.739,0,1,1,-2.739,0A2.739,2.739,0,1,1,2.739,0" stroke="blue" stroke-width="2" opacity="0.7"/><path aria-label="Fator de Aleatoriedade: 0.0321329248727; Entropia de Shannon: 4.01054995327; Comportamento: Mal Comportado; Coluna: (8) Leitos hospitalares na rede pública municipal; Score de Aleatoriedade: 2.021" role="graphics-symbol" aria-roledescription="point" transform="translate(26.777437393916646,114.89769446461587)" d="M2.739,0A2.739,2.739,0,1,1,-2.739,0A2.739,2.739,0,1,1,2.739,0" stroke="red" stroke-width="2" opacity="0.7"/><path aria-label="Fator de Aleatoriedade: 0; Entropia de Shannon: 0.0113487915331; Comportamento: Bem Comportado; Coluna: (9) Serviços de telemedicina ou telessaúde; Score de Aleatoriedade: 0.006" role="graphics-symbol" aria-roledescription="point" transform="translate(0,299.4762096215474)" d="M2.739,0A2.739,2.739,0,1,1,-2.739,0A2.739,2.739,0,1,1,2.739,0" stroke="blue" stroke-width="2" opacity="0.7"/><path aria-label="Fator de Aleatoriedade: 0; Entropia de Shannon: 0.0407459129193; Comportamento: Bem Comportado; Coluna: (10) Serviços culturais on-line oferecidos para a população; Score de Aleatoriedade: 0.020" role="graphics-symbol" aria-roledescription="point" transform="translate(0,298.1194194037266)" d="M2.739,0A2.739,2.739,0,1,1,-2.739,0A2.739,2.739,0,1,1,2.739,0" stroke="blue" stroke-width="2" opacity="0.7"/><path aria-label="Fator de Aleatoriedade: 0.00355729313226; Entropia de Shannon: 0.848408060391; Comportamento: Bem Comportado; Coluna: (11) Formas on-line para participação pública; Score de Aleatoriedade: 0.426" role="graphics-symbol" aria-roledescription="point" transform="translate(2.964410943551496,260.84270490502075)" d="M2.739,0A2.739,2.739,0,1,1,-2.739,0A2.739,2.739,0,1,1,2.739,0" stroke="blue" stroke-width="2" opacity="0.7"/><path aria-label="Fator de Aleatoriedade: 0.0350777996292; Entropia de Shannon: 1.41761584985; Comportamento: Bem Comportado; Coluna: (12) Vagas no ensino superior; Score de Aleatoriedade: 0.726" role="graphics-symbol" aria-roledescription="point" transform="translate(29.231499691040746,234.5715761607484)" d="M2.739,0A2.739,2.739,0,1,1,-2.739,0A2.739,2.739,0,1,1,2.739,0" stroke="blue" stroke-width="2" opacity="0.7"/><path aria-label="Fator de Aleatoriedade: 0.569294542568; Entropia de Shannon: 4.46608452129; Comportamento: Mal Comportado; Coluna: (13) Computadores para uso dos alunos; Score de Aleatoriedade: 2.518" role="graphics-symbol" aria-roledescription="point" transform="translate(474.4121188069091,93.87302209452474)" d="M2.739,0A2.739,2.739,0,1,1,-2.739,0A2.739,2.739,0,1,1,2.739,0" stroke="red" stroke-width="2" opacity="0.7"/><path aria-label="Fator de Aleatoriedade: 0; Entropia de Shannon: 0.0321906255875; Comportamento: Bem Comportado; Coluna: (14) Centros de educação tecnológica; Score de Aleatoriedade: 0.016" role="graphics-symbol" aria-roledescription="point" transform="translate(0,298.5142788190379)" d="M2.739,0A2.739,2.739,0,1,1,-2.739,0A2.739,2.739,0,1,1,2.739,0" stroke="blue" stroke-width="2" opacity="0.7"/><path aria-label="Fator de Aleatoriedade: 0; Entropia de Shannon: 0.0339335751724; Comportamento: Bem Comportado; Coluna: (15) Serviços on-line para promoção de cultura; Score de Aleatoriedade: 0.017" role="graphics-symbol" aria-roledescription="point" transform="translate(0,298.43383499204305)" d="M2.739,0A2.739,2.739,0,1,1,-2.739,0A2.739,2.739,0,1,1,2.739,0" stroke="blue" stroke-width="2" opacity="0.7"/><path aria-label="Fator de Aleatoriedade: 0.118706339587; Entropia de Shannon: 5.77483066103; Comportamento: Mal Comportado; Coluna: (16) Taxa de analfabetismo; Score de Aleatoriedade: 2.947" role="graphics-symbol" aria-roledescription="point" transform="translate(98.92194965614345,33.46935410629739)" d="M2.739,0A2.739,2.739,0,1,1,-2.739,0A2.739,2.739,0,1,1,2.739,0" stroke="red" stroke-width="2" opacity="0.7"/><path aria-label="Fator de Aleatoriedade: 0.0910518808631; Entropia de Shannon: 2.28838825125; Comportamento: Bem Comportado; Coluna: (17) Índice de desenvolvimento da educação básica (IDEB) - anos finais; Score de Aleatoriedade: 1.190" role="graphics-symbol" aria-roledescription="point" transform="translate(75.87656738595363,194.38208071135855)" d="M2.739,0A2.739,2.739,0,1,1,-2.739,0A2.739,2.739,0,1,1,2.739,0" stroke="blue" stroke-width="2" opacity="0.7"/><path aria-label="Fator de Aleatoriedade: 0.0187520727642; Entropia de Shannon: 1.25879179767; Comportamento: Bem Comportado; Coluna: (18) Cursos de capacitação tecnológica; Score de Aleatoriedade: 0.639" role="graphics-symbol" aria-roledescription="point" transform="translate(15.626727303484067,241.9019170306696)" d="M2.739,0A2.739,2.739,0,1,1,-2.739,0A2.739,2.739,0,1,1,2.739,0" stroke="blue" stroke-width="2" opacity="0.7"/><path aria-label="Fator de Aleatoriedade: 0.0292816737393; Entropia de Shannon: 1.46204205658; Comportamento: Bem Comportado; Coluna: (19) Promoção de inclusão digital; Score de Aleatoriedade: 0.746" role="graphics-symbol" aria-roledescription="point" transform="translate(24.40139478272249,232.52113584993694)" d="M2.739,0A2.739,2.739,0,1,1,-2.739,0A2.739,2.739,0,1,1,2.739,0" stroke="blue" stroke-width="2" opacity="0.7"/><path aria-label="Fator de Aleatoriedade: 0.0406293122227; Entropia de Shannon: 1.77280389951; Comportamento: Bem Comportado; Coluna: (20) Vulnerabilidade a riscos e desastres naturais; Score de Aleatoriedade: 0.907" role="graphics-symbol" aria-roledescription="point" transform="translate(33.85776018554416,218.17828156124054)" d="M2.739,0A2.739,2.739,0,1,1,-2.739,0A2.739,2.739,0,1,1,2.739,0" stroke="blue" stroke-width="2" opacity="0.7"/><path aria-label="Fator de Aleatoriedade: 0.037398561157; Entropia de Shannon: 1.57615131202; Comportamento: Bem Comportado; Coluna: (21) Soluções de tecnologia para gestão e monitoramento de desastres naturais; Score de Aleatoriedade: 0.807" role="graphics-symbol" aria-roledescription="point" transform="translate(31.16546763086647,227.25455483006522)" d="M2.739,0A2.739,2.739,0,1,1,-2.739,0A2.739,2.739,0,1,1,2.739,0" stroke="blue" stroke-width="2" opacity="0.7"/><path aria-label="Fator de Aleatoriedade: 0.0319443930126; Entropia de Shannon: 1.50204733447; Comportamento: Bem Comportado; Coluna: (22) Proteção do patrimônio cultural material e imaterial; Score de Aleatoriedade: 0.767" role="graphics-symbol" aria-roledescription="point" transform="translate(26.62032751049926,230.67473840894667)" d="M2.739,0A2.739,2.739,0,1,1,-2.739,0A2.739,2.739,0,1,1,2.739,0" stroke="blue" stroke-width="2" opacity="0.7"/><path aria-label="Fator de Aleatoriedade: 0.0173140256278; Entropia de Shannon: 1.13914409669; Comportamento: Bem Comportado; Coluna: (23) Ações de educação para comunidades específicas; Score de Aleatoriedade: 0.578" role="graphics-symbol" aria-roledescription="point" transform="translate(14.42835468981123,247.42411861429275)" d="M2.739,0A2.739,2.739,0,1,1,-2.739,0A2.739,2.739,0,1,1,2.739,0" stroke="blue" stroke-width="2" opacity="0.7"/><path aria-label="Fator de Aleatoriedade: 0.378425658731; Entropia de Shannon: 6.11552979046; Comportamento: Mal Comportado; Coluna: (24) Índice de risco e proteção à saúde dos nascidos vivos; Score de Aleatoriedade: 3.247" role="graphics-symbol" aria-roledescription="point" transform="translate(315.354715609171,17.7447789020457)" d="M2.739,0A2.739,2.739,0,1,1,-2.739,0A2.739,2.739,0,1,1,2.739,0" stroke="red" stroke-width="2" opacity="0.7"/><path aria-label="Fator de Aleatoriedade: 0.119594922612; Entropia de Shannon: 5.57283825574; Comportamento: Mal Comportado; Coluna: (25) Taxas de distorção idade-série; Score de Aleatoriedade: 2.846" role="graphics-symbol" aria-roledescription="point" transform="translate(99.66243550984044,42.79208050433233)" d="M2.739,0A2.739,2.739,0,1,1,-2.739,0A2.739,2.739,0,1,1,2.739,0" stroke="red" stroke-width="2" opacity="0.7"/><path aria-label="Fator de Aleatoriedade: 0.032984169618; Entropia de Shannon: 1.46189045097; Comportamento: Bem Comportado; Coluna: (26) Formas presenciais para participação pública; Score de Aleatoriedade: 0.747" role="graphics-symbol" aria-roledescription="point" transform="translate(27.486808015040936,232.52813303212548)" d="M2.739,0A2.739,2.739,0,1,1,-2.739,0A2.739,2.739,0,1,1,2.739,0" stroke="blue" stroke-width="2" opacity="0.7"/><path aria-label="Fator de Aleatoriedade: 0.0921222219112; Entropia de Shannon: 2.84969123541; Comportamento: Bem Comportado; Coluna: (27) Estrutura de equipamentos culturais e esportivos; Score de Aleatoriedade: 1.471" role="graphics-symbol" aria-roledescription="point" transform="translate(76.76851825936711,168.47578913487644)" d="M2.739,0A2.739,2.739,0,1,1,-2.739,0A2.739,2.739,0,1,1,2.739,0" stroke="blue" stroke-width="2" opacity="0.7"/><path aria-label="Fator de Aleatoriedade: 0.0220807713217; Entropia de Shannon: 1.11632921041; Comportamento: Bem Comportado; Coluna: (28) Políticas públicas e ações para segurança pública; Score de Aleatoriedade: 0.569" role="graphics-symbol" aria-roledescription="point" transform="translate(18.400642768095835,248.4771133655102)" d="M2.739,0A2.739,2.739,0,1,1,-2.739,0A2.739,2.739,0,1,1,2.739,0" stroke="blue" stroke-width="2" opacity="0.7"/><path aria-label="Fator de Aleatoriedade: 0.145852231575; Entropia de Shannon: 5.48762843515; Comportamento: Mal Comportado; Coluna: (29) Indice de equipamentos de tecnologia disponíveis nas escolas públicas municipais; Score de Aleatoriedade: 2.817" role="graphics-symbol" aria-roledescription="point" transform="translate(121.54352631238282,46.724841454485)" d="M2.739,0A2.739,2.739,0,1,1,-2.739,0A2.739,2.739,0,1,1,2.739,0" stroke="red" stroke-width="2" opacity="0.7"/><path aria-label="Fator de Aleatoriedade: 0.00193545850296; Entropia de Shannon: 2.24064090132; Comportamento: Bem Comportado; Coluna: (30) Percentual de escolas municipais com acesso à internet; Score de Aleatoriedade: 1.121" role="graphics-symbol" aria-roledescription="point" transform="translate(1.612882085797555,196.58580455433)" d="M2.739,0A2.739,2.739,0,1,1,-2.739,0A2.739,2.739,0,1,1,2.739,0" stroke="blue" stroke-width="2" opacity="0.7"/></g><g class="mark-group role-title"><g transform="translate(-27.5615234375,-31)"><path class="background" aria-hidden="true" d="M0,0h0v0h0Z" pointer-events="none"/><g><g class="mark-text role-title-text" role="graphics-symbol" aria-roledescription="title" aria-label="Title text 'Relação entre Entropia de Shannon e Fator de Aleatoriedade'" pointer-events="none"><text text-anchor="start" transform="translate(0,10)" font-family="sans-serif" font-size="13px" font-weight="bold" fill="#000" opacity="1">Relação entre Entropia de Shannon e Fator de Aleatoriedade</text></g><g class="mark-text role-title-subtitle" role="graphics-symbol" aria-roledescription="subtitle" aria-label="Subtitle text 'A Correlação de Spearman entre o Fator de Aleatoriedade e a Entropia de Shannon é de 0.9244'" pointer-events="none"><text text-anchor="start" transform="translate(0,25)" font-family="sans-serif" font-size="12px" fill="#000" opacity="1">A Correlação de Spearman entre o Fator de Aleatoriedade e a Entropia de Shannon é de 0.9244</text></g></g><path class="foreground" aria-hidden="true" d="" pointer-events="none" display="none"/></g></g></g><path class="foreground" aria-hidden="true" d="" display="none"/></g></g><g class="mark-group role-scope view_12_group" role="graphics-object" aria-roledescription="group mark container"><g transform="translate(544,0)"><path class="background" aria-hidden="true" d="M0.5,0.5h300v300h-300Z" stroke="#ddd"/><g><g class="mark-group role-axis" aria-hidden="true"><g transform="translate(0.5,300.5)"><path class="background" aria-hidden="true" d="M0,0h0v0h0Z" pointer-events="none"/><g><g class="mark-rule role-axis-grid" pointer-events="none"><line transform="translate(0,-300)" x2="0" y2="300" stroke="#ddd" stroke-width="1" opacity="1"/><line transform="translate(30,-300)" x2="0" y2="300" stroke="#ddd" stroke-width="1" opacity="1"/><line transform="translate(60,-300)" x2="0" y2="300" stroke="#ddd" stroke-width="1" opacity="1"/><line transform="translate(90,-300)" x2="0" y2="300" stroke="#ddd" stroke-width="1" opacity="1"/><line transform="translate(120,-300)" x2="0" y2="300" stroke="#ddd" stroke-width="1" opacity="1"/><line transform="translate(150,-300)" x2="0" y2="300" stroke="#ddd" stroke-width="1" opacity="1"/><line transform="translate(180,-300)" x2="0" y2="300" stroke="#ddd" stroke-width="1" opacity="1"/><line transform="translate(210,-300)" x2="0" y2="300" stroke="#ddd" stroke-width="1" opacity="1"/><line transform="translate(240,-300)" x2="0" y2="300" stroke="#ddd" stroke-width="1" opacity="1"/><line transform="translate(270,-300)" x2="0" y2="300" stroke="#ddd" stroke-width="1" opacity="1"/><line transform="translate(300,-300)" x2="0" y2="300" stroke="#ddd" stroke-width="1" opacity="1"/></g></g><path class="foreground" aria-hidden="true" d="" pointer-events="none" display="none"/></g></g><g class="mark-group role-axis" aria-hidden="true"><g transform="translate(0.5,0.5)"><path class="background" aria-hidden="true" d="M0,0h0v0h0Z" pointer-events="none"/><g><g class="mark-rule role-axis-grid" pointer-events="none"><line transform="translate(0,300)" x2="300" y2="0" stroke="#ddd" stroke-width="1" opacity="1"/><line transform="translate(0,250)" x2="300" y2="0" stroke="#ddd" stroke-width="1" opacity="1"/><line transform="translate(0,200)" x2="300" y2="0" stroke="#ddd" stroke-width="1" opacity="1"/><line transform="translate(0,150)" x2="300" y2="0" stroke="#ddd" stroke-width="1" opacity="1"/><line transform="translate(0,100)" x2="300" y2="0" stroke="#ddd" stroke-width="1" opacity="1"/><line transform="translate(0,50)" x2="300" y2="0" stroke="#ddd" stroke-width="1" opacity="1"/><line transform="translate(0,0)" x2="300" y2="0" stroke="#ddd" stroke-width="1" opacity="1"/></g></g><path class="foreground" aria-hidden="true" d="" pointer-events="none" display="none"/></g></g><g class="mark-group role-axis" role="graphics-symbol" aria-roledescription="axis" aria-label="X-axis titled 'Fator de Aleatoriedade' for a linear scale with values from 0.00 to 0.10"><g transform="translate(0.5,300.5)"><path class="background" aria-hidden="true" d="M0,0h0v0h0Z" pointer-events="none"/><g><g class="mark-rule role-axis-tick" pointer-events="none"><line transform="translate(0,0)" x2="0" y2="5" stroke="#888" stroke-width="1" opacity="1"/><line transform="translate(30,0)" x2="0" y2="5" stroke="#888" stroke-width="1" opacity="1"/><line transform="translate(60,0)" x2="0" y2="5" stroke="#888" stroke-width="1" opacity="1"/><line transform="translate(90,0)" x2="0" y2="5" stroke="#888" stroke-width="1" opacity="1"/><line transform="translate(120,0)" x2="0" y2="5" stroke="#888" stroke-width="1" opacity="1"/><line transform="translate(150,0)" x2="0" y2="5" stroke="#888" stroke-width="1" opacity="1"/><line transform="translate(180,0)" x2="0" y2="5" stroke="#888" stroke-width="1" opacity="1"/><line transform="translate(210,0)" x2="0" y2="5" stroke="#888" stroke-width="1" opacity="1"/><line transform="translate(240,0)" x2="0" y2="5" stroke="#888" stroke-width="1" opacity="1"/><line transform="translate(270,0)" x2="0" y2="5" stroke="#888" stroke-width="1" opacity="1"/><line transform="translate(300,0)" x2="0" y2="5" stroke="#888" stroke-width="1" opacity="1"/></g><g class="mark-text role-axis-label" pointer-events="none"><text text-anchor="start" transform="translate(0,15)" font-family="sans-serif" font-size="10px" fill="#000" opacity="1">0.00</text><text text-anchor="middle" transform="translate(29.999999999999996,15)" font-family="sans-serif" font-size="10px" fill="#000" opacity="1">0.01</text><text text-anchor="middle" transform="translate(59.99999999999999,15)" font-family="sans-serif" font-size="10px" fill="#000" opacity="1">0.02</text><text text-anchor="middle" transform="translate(90,15)" font-family="sans-serif" font-size="10px" fill="#000" opacity="1">0.03</text><text text-anchor="middle" transform="translate(119.99999999999999,15)" font-family="sans-serif" font-size="10px" fill="#000" opacity="1">0.04</text><text text-anchor="middle" transform="translate(150,15)" font-family="sans-serif" font-size="10px" fill="#000" opacity="1">0.05</text><text text-anchor="middle" transform="translate(180,15)" font-family="sans-serif" font-size="10px" fill="#000" opacity="1">0.06</text><text text-anchor="middle" transform="translate(210.00000000000003,15)" font-family="sans-serif" font-size="10px" fill="#000" opacity="1">0.07</text><text text-anchor="middle" transform="translate(239.99999999999997,15)" font-family="sans-serif" font-size="10px" fill="#000" opacity="1">0.08</text><text text-anchor="middle" transform="translate(270,15)" font-family="sans-serif" font-size="10px" fill="#000" opacity="1">0.09</text><text text-anchor="end" transform="translate(300,15)" font-family="sans-serif" font-size="10px" fill="#000" opacity="1">0.10</text></g><g class="mark-rule role-axis-domain" pointer-events="none"><line transform="translate(0,0)" x2="300" y2="0" stroke="#888" stroke-width="1" opacity="1"/></g><g class="mark-text role-axis-title" pointer-events="none"><text text-anchor="middle" transform="translate(150,30)" font-family="sans-serif" font-size="11px" font-weight="bold" fill="#000" opacity="1">Fator de Aleatoriedade</text></g></g><path class="foreground" aria-hidden="true" d="" pointer-events="none" display="none"/></g></g><g class="mark-group role-axis" role="graphics-symbol" aria-roledescription="axis" aria-label="Y-axis for a linear scale with values from 0.0 to 3.0"><g transform="translate(0.5,0.5)"><path class="background" aria-hidden="true" d="M0,0h0v0h0Z" pointer-events="none"/><g><g class="mark-rule role-axis-tick" pointer-events="none"><line transform="translate(0,300)" x2="-5" y2="0" stroke="#888" stroke-width="1" opacity="1"/><line transform="translate(0,250)" x2="-5" y2="0" stroke="#888" stroke-width="1" opacity="1"/><line transform="translate(0,200)" x2="-5" y2="0" stroke="#888" stroke-width="1" opacity="1"/><line transform="translate(0,150)" x2="-5" y2="0" stroke="#888" stroke-width="1" opacity="1"/><line transform="translate(0,100)" x2="-5" y2="0" stroke="#888" stroke-width="1" opacity="1"/><line transform="translate(0,50)" x2="-5" y2="0" stroke="#888" stroke-width="1" opacity="1"/><line transform="translate(0,0)" x2="-5" y2="0" stroke="#888" stroke-width="1" opacity="1"/></g><g class="mark-text role-axis-label" pointer-events="none"><text text-anchor="end" transform="translate(-7,303)" font-family="sans-serif" font-size="10px" fill="#000" opacity="1">0.0</text><text text-anchor="end" transform="translate(-7,253)" font-family="sans-serif" font-size="10px" fill="#000" opacity="1">0.5</text><text text-anchor="end" transform="translate(-7,203.00000000000003)" font-family="sans-serif" font-size="10px" fill="#000" opacity="1">1.0</text><text text-anchor="end" transform="translate(-7,153)" font-family="sans-serif" font-size="10px" fill="#000" opacity="1">1.5</text><text text-anchor="end" transform="translate(-7,103.00000000000001)" font-family="sans-serif" font-size="10px" fill="#000" opacity="1">2.0</text><text text-anchor="end" transform="translate(-7,52.999999999999986)" font-family="sans-serif" font-size="10px" fill="#000" opacity="1">2.5</text><text text-anchor="end" transform="translate(-7,3)" font-family="sans-serif" font-size="10px" fill="#000" opacity="1">3.0</text></g><g class="mark-rule role-axis-domain" pointer-events="none"><line transform="translate(0,300)" x2="0" y2="-300" stroke="#888" stroke-width="1" opacity="1"/></g></g><path class="foreground" aria-hidden="true" d="" pointer-events="none" display="none"/></g></g><g class="mark-symbol role-mark view_12_marks" clip-path="url(#clip3)" role="graphics-object" aria-roledescription="symbol mark container"><path aria-label="Fator de Aleatoriedade: 0.0527334955382; Entropia: 1.83599426378; Comportamento: Bem Comportado; Coluna: (1) Inclusão social para grupos específicos; Entropia de Shannon: 1.836; Score de Aleatoriedade: 0.944" role="graphics-symbol" aria-roledescription="point" transform="translate(158.20048661455442,116.40057362170005)" d="M2.739,0A2.739,2.739,0,1,1,-2.739,0A2.739,2.739,0,1,1,2.739,0" stroke="blue" stroke-width="2" opacity="0.7"/><path aria-label="Fator de Aleatoriedade: 0.0107926205138; Entropia: 0.900025126203; Comportamento: Bem Comportado; Coluna: (2) Políticas públicas para mulheres; Entropia de Shannon: 0.900; Score de Aleatoriedade: 0.455" role="graphics-symbol" aria-roledescription="point" transform="translate(32.377861541446606,209.99748737966027)" d="M2.739,0A2.739,2.739,0,1,1,-2.739,0A2.739,2.739,0,1,1,2.739,0" stroke="blue" stroke-width="2" opacity="0.7"/><path aria-label="Fator de Aleatoriedade: 0; Entropia: 0.0298648850302; Comportamento: Bem Comportado; Coluna: (4) Soluções em monitoramento para a segurança pública; Entropia de Shannon: 0.030; Score de Aleatoriedade: 0.015" role="graphics-symbol" aria-roledescription="point" transform="translate(0,297.01351149697757)" d="M2.739,0A2.739,2.739,0,1,1,-2.739,0A2.739,2.739,0,1,1,2.739,0" stroke="blue" stroke-width="2" opacity="0.7"/><path aria-label="Fator de Aleatoriedade: 0; Entropia: 1.10405079351; Comportamento: Bem Comportado; Coluna: (5) Mortalidade materna; Entropia de Shannon: 1.104; Score de Aleatoriedade: 0.552" role="graphics-symbol" aria-roledescription="point" transform="translate(0,189.5949206488615)" d="M2.739,0A2.739,2.739,0,1,1,-2.739,0A2.739,2.739,0,1,1,2.739,0" stroke="blue" stroke-width="2" opacity="0.7"/><path aria-label="Fator de Aleatoriedade: 0; Entropia: 0.0238171884164; Comportamento: Bem Comportado; Coluna: (6) Serviços on-line de saúde oferecidos aos pacientes; Entropia de Shannon: 0.024; Score de Aleatoriedade: 0.012" role="graphics-symbol" aria-roledescription="point" transform="translate(0,297.6182811583601)" d="M2.739,0A2.739,2.739,0,1,1,-2.739,0A2.739,2.739,0,1,1,2.739,0" stroke="blue" stroke-width="2" opacity="0.7"/><path aria-label="Fator de Aleatoriedade: 0; Entropia: 0.0339452864598; Comportamento: Bem Comportado; Coluna: (7) Prontuário eletrônico; Entropia de Shannon: 0.034; Score de Aleatoriedade: 0.017" role="graphics-symbol" aria-roledescription="point" transform="translate(0,296.60547135401777)" d="M2.739,0A2.739,2.739,0,1,1,-2.739,0A2.739,2.739,0,1,1,2.739,0" stroke="blue" stroke-width="2" opacity="0.7"/><path aria-label="Fator de Aleatoriedade: 0; Entropia: 0.0113487915331; Comportamento: Bem Comportado; Coluna: (9) Serviços de telemedicina ou telessaúde; Entropia de Shannon: 0.011; Score de Aleatoriedade: 0.006" role="graphics-symbol" aria-roledescription="point" transform="translate(0,298.865120846686)" d="M2.739,0A2.739,2.739,0,1,1,-2.739,0A2.739,2.739,0,1,1,2.739,0" stroke="blue" stroke-width="2" opacity="0.7"/><path aria-label="Fator de Aleatoriedade: 0; Entropia: 0.0407459129193; Comportamento: Bem Comportado; Coluna: (10) Serviços culturais on-line oferecidos para a população; Entropia de Shannon: 0.041; Score de Aleatoriedade: 0.020" role="graphics-symbol" aria-roledescription="point" transform="translate(0,295.92540870807443)" d="M2.739,0A2.739,2.739,0,1,1,-2.739,0A2.739,2.739,0,1,1,2.739,0" stroke="blue" stroke-width="2" opacity="0.7"/><path aria-label="Fator de Aleatoriedade: 0.00355729313226; Entropia: 0.848408060391; Comportamento: Bem Comportado; Coluna: (11) Formas on-line para participação pública; Entropia de Shannon: 0.848; Score de Aleatoriedade: 0.426" role="graphics-symbol" aria-roledescription="point" transform="translate(10.671879396785384,215.1591939608783)" d="M2.739,0A2.739,2.739,0,1,1,-2.739,0A2.739,2.739,0,1,1,2.739,0" stroke="blue" stroke-width="2" opacity="0.7"/><path aria-label="Fator de Aleatoriedade: 0.0350777996292; Entropia: 1.41761584985; Comportamento: Bem Comportado; Coluna: (12) Vagas no ensino superior; Entropia de Shannon: 1.418; Score de Aleatoriedade: 0.726" role="graphics-symbol" aria-roledescription="point" transform="translate(105.23339888774669,158.23841501495488)" d="M2.739,0A2.739,2.739,0,1,1,-2.739,0A2.739,2.739,0,1,1,2.739,0" stroke="blue" stroke-width="2" opacity="0.7"/><path aria-label="Fator de Aleatoriedade: 0; Entropia: 0.0321906255875; Comportamento: Bem Comportado; Coluna: (14) Centros de educação tecnológica; Entropia de Shannon: 0.032; Score de Aleatoriedade: 0.016" role="graphics-symbol" aria-roledescription="point" transform="translate(0,296.78093744124874)" d="M2.739,0A2.739,2.739,0,1,1,-2.739,0A2.739,2.739,0,1,1,2.739,0" stroke="blue" stroke-width="2" opacity="0.7"/><path aria-label="Fator de Aleatoriedade: 0; Entropia: 0.0339335751724; Comportamento: Bem Comportado; Coluna: (15) Serviços on-line para promoção de cultura; Entropia de Shannon: 0.034; Score de Aleatoriedade: 0.017" role="graphics-symbol" aria-roledescription="point" transform="translate(0,296.6066424827599)" d="M2.739,0A2.739,2.739,0,1,1,-2.739,0A2.739,2.739,0,1,1,2.739,0" stroke="blue" stroke-width="2" opacity="0.7"/><path aria-label="Fator de Aleatoriedade: 0.0910518808631; Entropia: 2.28838825125; Comportamento: Bem Comportado; Coluna: (17) Índice de desenvolvimento da educação básica (IDEB) - anos finais; Entropia de Shannon: 2.288; Score de Aleatoriedade: 1.190" role="graphics-symbol" aria-roledescription="point" transform="translate(273.1556425894331,71.16117487461018)" d="M2.739,0A2.739,2.739,0,1,1,-2.739,0A2.739,2.739,0,1,1,2.739,0" stroke="blue" stroke-width="2" opacity="0.7"/><path aria-label="Fator de Aleatoriedade: 0.0187520727642; Entropia: 1.25879179767; Comportamento: Bem Comportado; Coluna: (18) Cursos de capacitação tecnológica; Entropia de Shannon: 1.259; Score de Aleatoriedade: 0.639" role="graphics-symbol" aria-roledescription="point" transform="translate(56.25621829254264,174.1208202331175)" d="M2.739,0A2.739,2.739,0,1,1,-2.739,0A2.739,2.739,0,1,1,2.739,0" stroke="blue" stroke-width="2" opacity="0.7"/><path aria-label="Fator de Aleatoriedade: 0.0292816737393; Entropia: 1.46204205658; Comportamento: Bem Comportado; Coluna: (19) Promoção de inclusão digital; Entropia de Shannon: 1.462; Score de Aleatoriedade: 0.746" role="graphics-symbol" aria-roledescription="point" transform="translate(87.84502121780096,153.79579434153004)" d="M2.739,0A2.739,2.739,0,1,1,-2.739,0A2.739,2.739,0,1,1,2.739,0" stroke="blue" stroke-width="2" opacity="0.7"/><path aria-label="Fator de Aleatoriedade: 0.0406293122227; Entropia: 1.77280389951; Comportamento: Bem Comportado; Coluna: (20) Vulnerabilidade a riscos e desastres naturais; Entropia de Shannon: 1.773; Score de Aleatoriedade: 0.907" role="graphics-symbol" aria-roledescription="point" transform="translate(121.88793666795895,122.71961004935447)" d="M2.739,0A2.739,2.739,0,1,1,-2.739,0A2.739,2.739,0,1,1,2.739,0" stroke="blue" stroke-width="2" opacity="0.7"/><path aria-label="Fator de Aleatoriedade: 0.037398561157; Entropia: 1.57615131202; Comportamento: Bem Comportado; Coluna: (21) Soluções de tecnologia para gestão e monitoramento de desastres naturais; Entropia de Shannon: 1.576; Score de Aleatoriedade: 0.807" role="graphics-symbol" aria-roledescription="point" transform="translate(112.19568347111927,142.3848687984746)" d="M2.739,0A2.739,2.739,0,1,1,-2.739,0A2.739,2.739,0,1,1,2.739,0" stroke="blue" stroke-width="2" opacity="0.7"/><path aria-label="Fator de Aleatoriedade: 0.0319443930126; Entropia: 1.50204733447; Comportamento: Bem Comportado; Coluna: (22) Proteção do patrimônio cultural material e imaterial; Entropia de Shannon: 1.502; Score de Aleatoriedade: 0.767" role="graphics-symbol" aria-roledescription="point" transform="translate(95.83317903779732,149.79526655271778)" d="M2.739,0A2.739,2.739,0,1,1,-2.739,0A2.739,2.739,0,1,1,2.739,0" stroke="blue" stroke-width="2" opacity="0.7"/><path aria-label="Fator de Aleatoriedade: 0.0173140256278; Entropia: 1.13914409669; Comportamento: Bem Comportado; Coluna: (23) Ações de educação para comunidades específicas; Entropia de Shannon: 1.139; Score de Aleatoriedade: 0.578" role="graphics-symbol" aria-roledescription="point" transform="translate(51.942076883320425,186.08559033096756)" d="M2.739,0A2.739,2.739,0,1,1,-2.739,0A2.739,2.739,0,1,1,2.739,0" stroke="blue" stroke-width="2" opacity="0.7"/><path aria-label="Fator de Aleatoriedade: 0.032984169618; Entropia: 1.46189045097; Comportamento: Bem Comportado; Coluna: (26) Formas presenciais para participação pública; Entropia de Shannon: 1.462; Score de Aleatoriedade: 0.747" role="graphics-symbol" aria-roledescription="point" transform="translate(98.95250885414735,153.81095490293856)" d="M2.739,0A2.739,2.739,0,1,1,-2.739,0A2.739,2.739,0,1,1,2.739,0" stroke="blue" stroke-width="2" opacity="0.7"/><path aria-label="Fator de Aleatoriedade: 0.0921222219112; Entropia: 2.84969123541; Comportamento: Bem Comportado; Coluna: (27) Estrutura de equipamentos culturais e esportivos; Entropia de Shannon: 2.850; Score de Aleatoriedade: 1.471" role="graphics-symbol" aria-roledescription="point" transform="translate(276.3666657337216,15.030876458898968)" d="M2.739,0A2.739,2.739,0,1,1,-2.739,0A2.739,2.739,0,1,1,2.739,0" stroke="blue" stroke-width="2" opacity="0.7"/><path aria-label="Fator de Aleatoriedade: 0.0220807713217; Entropia: 1.11632921041; Comportamento: Bem Comportado; Coluna: (28) Políticas públicas e ações para segurança pública; Entropia de Shannon: 1.116; Score de Aleatoriedade: 0.569" role="graphics-symbol" aria-roledescription="point" transform="translate(66.242313965145,188.36707895860542)" d="M2.739,0A2.739,2.739,0,1,1,-2.739,0A2.739,2.739,0,1,1,2.739,0" stroke="blue" stroke-width="2" opacity="0.7"/><path aria-label="Fator de Aleatoriedade: 0.00193545850296; Entropia: 2.24064090132; Comportamento: Bem Comportado; Coluna: (30) Percentual de escolas municipais com acesso à internet; Entropia de Shannon: 2.241; Score de Aleatoriedade: 1.121" role="graphics-symbol" aria-roledescription="point" transform="translate(5.806375508871198,75.935909867715)" d="M2.739,0A2.739,2.739,0,1,1,-2.739,0A2.739,2.739,0,1,1,2.739,0" stroke="blue" stroke-width="2" opacity="0.7"/></g><g class="mark-group role-title"><g transform="translate(-20.9013671875,-36)"><path class="background" aria-hidden="true" d="M0,0h0v0h0Z" pointer-events="none"/><g><g class="mark-text role-title-text" role="graphics-symbol" aria-roledescription="title" aria-label="Title text 'Atributos Dentro da Zona Bem Comportada'" pointer-events="none"><text text-anchor="start" transform="translate(0,10)" font-family="sans-serif" font-size="13px" font-weight="bold" fill="#000" opacity="1">Atributos Dentro da Zona Bem Comportada</text></g><g class="mark-text role-title-subtitle" role="graphics-symbol" aria-roledescription="subtitle" aria-label="Subtitle text 'Existem 23 atributos bem comportados nessa zona'" pointer-events="none"><text text-anchor="start" transform="translate(0,25)" font-family="sans-serif" font-size="12px" fill="#000" opacity="1">Existem 23 atributos bem comportados nessa zona</text></g></g><path class="foreground" aria-hidden="true" d="" pointer-events="none" display="none"/></g></g></g><path class="foreground" aria-hidden="true" d="" display="none"/></g></g><g class="mark-group role-legend" role="graphics-symbol" aria-roledescription="legend" aria-label="Symbol legend titled 'Comportamento do Atributo' for stroke color with 2 values: Bem Comportado, Mal Comportado"><g transform="translate(864,0)"><path class="background" aria-hidden="true" d="M0,0h148v45h-148Z" pointer-events="none"/><g><g class="mark-group role-legend-entry"><g transform="translate(0,16)"><path class="background" aria-hidden="true" d="M0,0h0v0h0Z" pointer-events="none"/><g><g class="mark-group role-scope" role="graphics-object" aria-roledescription="group mark container"><g transform="translate(0,0)"><path class="background" aria-hidden="true" d="M0,0h94.369140625v12.5h-94.369140625Z" pointer-events="none" opacity="1"/><g><g class="mark-symbol role-legend-symbol" pointer-events="none"><path transform="translate(6,6)" d="M5,0A5,5,0,1,1,-5,0A5,5,0,1,1,5,0" stroke="blue" stroke-width="1.5" opacity="0.7"/></g><g class="mark-text role-legend-label" pointer-events="none"><text text-anchor="start" transform="translate(16,9)" font-family="sans-serif" font-size="10px" fill="#000" opacity="1">Bem Comportado</text></g></g><path class="foreground" aria-hidden="true" d="" pointer-events="none" display="none"/></g><g transform="translate(0,16)"><path class="background" aria-hidden="true" d="M0,0h94.369140625v12.5h-94.369140625Z" pointer-events="none" opacity="1"/><g><g class="mark-symbol role-legend-symbol" pointer-events="none"><path transform="translate(6,6)" d="M5,0A5,5,0,1,1,-5,0A5,5,0,1,1,5,0" stroke="red" stroke-width="1.5" opacity="0.7"/></g><g class="mark-text role-legend-label" pointer-events="none"><text text-anchor="start" transform="translate(16,9)" font-family="sans-serif" font-size="10px" fill="#000" opacity="1">Mal Comportado</text></g></g><path class="foreground" aria-hidden="true" d="" pointer-events="none" display="none"/></g></g></g><path class="foreground" aria-hidden="true" d="" pointer-events="none" display="none"/></g></g><g class="mark-text role-legend-title" pointer-events="none"><text text-anchor="start" transform="translate(0,9)" font-family="sans-serif" font-size="11px" font-weight="bold" fill="#000" opacity="1">Comportamento do Atributo</text></g></g><path class="foreground" aria-hidden="true" d="" pointer-events="none" display="none"/></g></g></g><path class="foreground" aria-hidden="true" d="" display="none"/></g></g></g><defs><clipPath id="clip1"><rect x="0" y="0" width="500" height="300"/></clipPath><clipPath id="clip2"><rect x="0" y="0" width="500" height="300"/></clipPath><clipPath id="clip3"><rect x="0" y="0" width="300" height="300"/></clipPath></defs></svg>