<svg xmlns="http://www.w3.org/2000/svg" xmlns:xlink="http://www.w3.org/1999/xlink" version="1.1" class="marks" width="675" height="359" viewBox="0 0 675 359"><rect width="675" height="359" fill="white"/><g fill="none" stroke-miterlimit="10" transform="translate(78,22)"><g class="mark-group role-frame root" role="graphics-object" aria-roledescription="group mark container"><g transform="translate(0,0)"><path class="background" aria-hidden="true" d="M0.5,0.5h500v300h-500Z" stroke="#ddd"/><g><g class="mark-group role-axis" aria-hidden="true"><g transform="translate(0.5,300.5)"><path class="background" aria-hidden="true" d="M0,0h0v0h0Z" pointer-events="none"/><g><g class="mark-rule role-axis-grid" pointer-events="none"><line transform="translate(314,-300)" x2="0" y2="300" stroke="#ddd" stroke-width="1" opacity="1"/><line transform="translate(343,-300)" x2="0" y2="300" stroke="#ddd" stroke-width="1" opacity="1"/><line transform="translate(286,-300)" x2="0" y2="300" stroke="#ddd" stroke-width="1" opacity="1"/><line transform="translate(257,-300)" x2="0" y2="300" stroke="#ddd" stroke-width="1" opacity="1"/><line transform="translate(229,-300)" x2="0" y2="300" stroke="#ddd" stroke-width="1" opacity="1"/><line transform="translate(200,-300)" x2="0" y2="300" stroke="#ddd" stroke-width="1" opacity="1"/><line transform="translate(0,-300)" x2="0" y2="300" stroke="#ddd" stroke-width="1" opacity="1"/><line transform="translate(29,-300)" x2="0" y2="300" stroke="#ddd" stroke-width="1" opacity="1"/><line transform="translate(57,-300)" x2="0" y2="300" stroke="#ddd" stroke-width="1" opacity="1"/><line transform="translate(86,-300)" x2="0" y2="300" stroke="#ddd" stroke-width="1" opacity="1"/><line transform="translate(114,-300)" x2="0" y2="300" stroke="#ddd" stroke-width="1" opacity="1"/><line transform="translate(143,-300)" x2="0" y2="300" stroke="#ddd" stroke-width="1" opacity="1"/><line transform="translate(171,-300)" x2="0" y2="300" stroke="#ddd" stroke-width="1" opacity="1"/><line transform="translate(371,-300)" x2="0" y2="300" stroke="#ddd" stroke-width="1" opacity="1"/><line transform="translate(400,-300)" x2="0" y2="300" stroke="#ddd" stroke-width="1" opacity="1"/><line transform="translate(429,-300)" x2="0" y2="300" stroke="#ddd" stroke-width="1" opacity="1"/><line transform="translate(457,-300)" x2="0" y2="300" stroke="#ddd" stroke-width="1" opacity="1"/><line transform="translate(486,-300)" x2="0" y2="300" stroke="#ddd" stroke-width="1" opacity="1"/></g></g><path class="foreground" aria-hidden="true" d="" pointer-events="none" display="none"/></g></g><g class="mark-group role-axis" aria-hidden="true"><g transform="translate(0.5,0.5)"><path class="background" aria-hidden="true" d="M0,0h0v0h0Z" pointer-events="none"/><g><g class="mark-rule role-axis-grid" pointer-events="none"><line transform="translate(0,25)" x2="500" y2="0" stroke="#ddd" stroke-width="1" opacity="1"/><line transform="translate(0,275)" x2="500" y2="0" stroke="#ddd" stroke-width="1" opacity="1"/><line transform="translate(0,225)" x2="500" y2="0" stroke="#ddd" stroke-width="1" opacity="1"/><line transform="translate(0,175)" x2="500" y2="0" stroke="#ddd" stroke-width="1" opacity="1"/><line transform="translate(0,125)" x2="500" y2="0" stroke="#ddd" stroke-width="1" opacity="1"/><line transform="translate(0,75)" x2="500" y2="0" stroke="#ddd" stroke-width="1" opacity="1"/></g></g><path class="foreground" aria-hidden="true" d="" pointer-events="none" display="none"/></g></g><g class="mark-group role-axis" role="graphics-symbol" aria-roledescription="axis" aria-label="X-axis titled 'Número de Atributos do Modelo' for a linear scale with values from 0 to 35"><g transform="translate(0.5,300.5)"><path class="background" aria-hidden="true" d="M0,0h0v0h0Z" pointer-events="none"/><g><g class="mark-rule role-axis-tick" pointer-events="none"><line transform="translate(314,0)" x2="0" y2="5" stroke="#888" stroke-width="1" opacity="1"/><line transform="translate(343,0)" x2="0" y2="5" stroke="#888" stroke-width="1" opacity="1"/><line transform="translate(286,0)" x2="0" y2="5" stroke="#888" stroke-width="1" opacity="1"/><line transform="translate(257,0)" x2="0" y2="5" stroke="#888" stroke-width="1" opacity="1"/><line transform="translate(229,0)" x2="0" y2="5" stroke="#888" stroke-width="1" opacity="1"/><line transform="translate(200,0)" x2="0" y2="5" stroke="#888" stroke-width="1" opacity="1"/><line transform="translate(0,0)" x2="0" y2="5" stroke="#888" stroke-width="1" opacity="1"/><line transform="translate(29,0)" x2="0" y2="5" stroke="#888" stroke-width="1" opacity="1"/><line transform="translate(57,0)" x2="0" y2="5" stroke="#888" stroke-width="1" opacity="1"/><line transform="translate(86,0)" x2="0" y2="5" stroke="#888" stroke-width="1" opacity="1"/><line transform="translate(114,0)" x2="0" y2="5" stroke="#888" stroke-width="1" opacity="1"/><line transform="translate(143,0)" x2="0" y2="5" stroke="#888" stroke-width="1" opacity="1"/><line transform="translate(171,0)" x2="0" y2="5" stroke="#888" stroke-width="1" opacity="1"/><line transform="translate(371,0)" x2="0" y2="5" stroke="#888" stroke-width="1" opacity="1"/><line transform="translate(400,0)" x2="0" y2="5" stroke="#888" stroke-width="1" opacity="1"/><line transform="translate(429,0)" x2="0" y2="5" stroke="#888" stroke-width="1" opacity="1"/><line transform="translate(457,0)" x2="0" y2="5" stroke="#888" stroke-width="1" opacity="1"/><line transform="translate(486,0)" x2="0" y2="5" stroke="#888" stroke-width="1" opacity="1"/></g><g class="mark-text role-axis-label" pointer-events="none"><text text-anchor="middle" transform="translate(314.2857142857143,15)" font-family="sans-serif" font-size="10px" fill="#000" opacity="1">22</text><text text-anchor="middle" transform="translate(342.85714285714283,15)" font-family="sans-serif" font-size="10px" fill="#000" opacity="1">24</text><text text-anchor="middle" transform="translate(285.7142857142857,15)" font-family="sans-serif" font-size="10px" fill="#000" opacity="1">20</text><text text-anchor="middle" transform="translate(257.1428571428571,15)" font-family="sans-serif" font-size="10px" fill="#000" opacity="1">18</text><text text-anchor="middle" transform="translate(228.57142857142856,15)" font-family="sans-serif" font-size="10px" fill="#000" opacity="1">16</text><text text-anchor="middle" transform="translate(200,15)" font-family="sans-serif" font-size="10px" fill="#000" opacity="1">14</text><text text-anchor="start" transform="translate(0,15)" font-family="sans-serif" font-size="10px" fill="#000" opacity="1">0</text><text text-anchor="middle" transform="translate(28.57142857142857,15)" font-family="sans-serif" font-size="10px" fill="#000" opacity="1">2</text><text text-anchor="middle" transform="translate(57.14285714285714,15)" font-family="sans-serif" font-size="10px" fill="#000" opacity="1">4</text><text text-anchor="middle" transform="translate(85.71428571428571,15)" font-family="sans-serif" font-size="10px" fill="#000" opacity="1">6</text><text text-anchor="middle" transform="translate(114.28571428571428,15)" font-family="sans-serif" font-size="10px" fill="#000" opacity="1">8</text><text text-anchor="middle" transform="translate(142.85714285714286,15)" font-family="sans-serif" font-size="10px" fill="#000" opacity="1">10</text><text text-anchor="middle" transform="translate(171.42857142857142,15)" font-family="sans-serif" font-size="10px" fill="#000" opacity="1">12</text><text text-anchor="middle" transform="translate(371.42857142857144,15)" font-family="sans-serif" font-size="10px" fill="#000" opacity="1">26</text><text text-anchor="middle" transform="translate(400,15)" font-family="sans-serif" font-size="10px" fill="#000" opacity="1">28</text><text text-anchor="middle" transform="translate(428.57142857142856,15)" font-family="sans-serif" font-size="10px" fill="#000" opacity="1">30</text><text text-anchor="middle" transform="translate(457.1428571428571,15)" font-family="sans-serif" font-size="10px" fill="#000" opacity="1">32</text><text text-anchor="middle" transform="translate(485.7142857142857,15)" font-family="sans-serif" font-size="10px" fill="#000" opacity="1">34</text></g><g class="mark-rule role-axis-domain" pointer-events="none"><line transform="translate(0,0)" x2="500" y2="0" stroke="#888" stroke-width="1" opacity="1"/></g><g class="mark-text role-axis-title" pointer-events="none"><text text-anchor="middle" transform="translate(250,30)" font-family="sans-serif" font-size="11px" font-weight="bold" fill="#000" opacity="1">Número de Atributos do Modelo</text></g></g><path class="foreground" aria-hidden="true" d="" pointer-events="none" display="none"/></g></g><g class="mark-group role-axis" role="graphics-symbol" aria-roledescription="axis" aria-label="Y-axis titled 'Score R2 na Validação Cruzada' for a linear scale with values from −5500.00% to 500.00%"><g transform="translate(0.5,0.5)"><path class="background" aria-hidden="true" d="M0,0h0v0h0Z" pointer-events="none"/><g><g class="mark-rule role-axis-tick" pointer-events="none"><line transform="translate(0,25)" x2="-5" y2="0" stroke="#888" stroke-width="1" opacity="1"/><line transform="translate(0,275)" x2="-5" y2="0" stroke="#888" stroke-width="1" opacity="1"/><line transform="translate(0,225)" x2="-5" y2="0" stroke="#888" stroke-width="1" opacity="1"/><line transform="translate(0,175)" x2="-5" y2="0" stroke="#888" stroke-width="1" opacity="1"/><line transform="translate(0,125)" x2="-5" y2="0" stroke="#888" stroke-width="1" opacity="1"/><line transform="translate(0,75)" x2="-5" y2="0" stroke="#888" stroke-width="1" opacity="1"/></g><g class="mark-text role-axis-label" pointer-events="none"><text text-anchor="end" transform="translate(-7,28.00000000000001)" font-family="sans-serif" font-size="10px" fill="#000" opacity="1">0.00%</text><text text-anchor="end" transform="translate(-7,278)" font-family="sans-serif" font-size="10px" fill="#000" opacity="1">−5000.00%</text><text text-anchor="end" transform="translate(-7,228)" font-family="sans-serif" font-size="10px" fill="#000" opacity="1">−4000.00%</text><text text-anchor="end" transform="translate(-7,177.99999999999997)" font-family="sans-serif" font-size="10px" fill="#000" opacity="1">−3000.00%</text><text text-anchor="end" transform="translate(-7,127.99999999999999)" font-family="sans-serif" font-size="10px" fill="#000" opacity="1">−2000.00%</text><text text-anchor="end" transform="translate(-7,78)" font-family="sans-serif" font-size="10px" fill="#000" opacity="1">−1000.00%</text></g><g class="mark-rule role-axis-domain" pointer-events="none"><line transform="translate(0,300)" x2="0" y2="-300" stroke="#888" stroke-width="1" opacity="1"/></g><g class="mark-text role-axis-title" pointer-events="none"><text text-anchor="middle" transform="translate(-61.87890625,150) rotate(-90) translate(0,-2)" font-family="sans-serif" font-size="11px" font-weight="bold" fill="#000" opacity="1">Score R2 na Validação Cruzada</text></g></g><path class="foreground" aria-hidden="true" d="" pointer-events="none" display="none"/></g></g><g class="mark-symbol role-mark marks" clip-path="url(#clip1)" role="graphics-object" aria-roledescription="symbol mark container"><path aria-label="Número de Atributos do Modelo: 31; Score R2 na Validação Cruzada: 44.03%; Método: LR; Dataset: Original; Número de Atributos: 31; R2 Score: 44.03%" role="graphics-symbol" aria-roledescription="point" transform="translate(442.85714285714283,22.798351160620957)" d="M6.124,0A6.124,6.124,0,1,1,-6.124,0A6.124,6.124,0,1,1,6.124,0" fill="#4c78a8" stroke-width="2" opacity="0.7"/><path aria-label="Número de Atributos do Modelo: 23; Score R2 na Validação Cruzada: 39.61%; Método: LR; Dataset: Bem Comportados; Número de Atributos: 23; R2 Score: 39.61%" role="graphics-symbol" aria-roledescription="point" transform="translate(328.57142857142856,23.019336811639903)" d="M6.124,0A6.124,6.124,0,1,1,-6.124,0A6.124,6.124,0,1,1,6.124,0" fill="#4c78a8" stroke-width="2" opacity="0.7"/><path aria-label="Número de Atributos do Modelo: 17; Score R2 na Validação Cruzada: 39.87%; Método: LR; Dataset: Bem Comportados e Pouco Correlacionados; Número de Atributos: 17; R2 Score: 39.87%" role="graphics-symbol" aria-roledescription="point" transform="translate(242.85714285714286,23.006692682069176)" d="M6.124,0A6.124,6.124,0,1,1,-6.124,0A6.124,6.124,0,1,1,6.124,0" fill="#4c78a8" stroke-width="2" opacity="0.7"/><path aria-label="Número de Atributos do Modelo: 8; Score R2 na Validação Cruzada: 23.49%; Método: LR; Dataset: Mal Comportados; Número de Atributos: 8; R2 Score: 23.49%" role="graphics-symbol" aria-roledescription="point" transform="translate(114.28571428571428,23.825390592083718)" d="M6.124,0A6.124,6.124,0,1,1,-6.124,0A6.124,6.124,0,1,1,6.124,0" fill="#4c78a8" stroke-width="2" opacity="0.7"/><path aria-label="Número de Atributos do Modelo: 7; Score R2 na Validação Cruzada: 23.43%; Método: LR; Dataset: Mal Comportados e Pouco Correlacionados; Número de Atributos: 7; R2 Score: 23.43%" role="graphics-symbol" aria-roledescription="point" transform="translate(100,23.828568576099563)" d="M6.124,0A6.124,6.124,0,1,1,-6.124,0A6.124,6.124,0,1,1,6.124,0" fill="#4c78a8" stroke-width="2" opacity="0.7"/><path aria-label="Número de Atributos do Modelo: 24; Score R2 na Validação Cruzada: 44.26%; Método: LR; Dataset: Bem Comportados + Mal Comportados; Número de Atributos: 24; R2 Score: 44.26%" role="graphics-symbol" aria-roledescription="point" transform="translate(342.85714285714283,22.78713565977245)" d="M6.124,0A6.124,6.124,0,1,1,-6.124,0A6.124,6.124,0,1,1,6.124,0" fill="#4c78a8" stroke-width="2" opacity="0.7"/><path aria-label="Número de Atributos do Modelo: 31; Score R2 na Validação Cruzada: −1421.40%; Método: SVR (Linear); Dataset: Original; Número de Atributos: 31; R2 Score: −1421.40%" role="graphics-symbol" aria-roledescription="point" transform="translate(442.85714285714283,96.07024296267322)" d="M6.124,0A6.124,6.124,0,1,1,-6.124,0A6.124,6.124,0,1,1,6.124,0" fill="#f58518" stroke-width="2" opacity="0.7"/><path aria-label="Número de Atributos do Modelo: 23; Score R2 na Validação Cruzada: −406.18%; Método: SVR (Linear); Dataset: Bem Comportados; Número de Atributos: 23; R2 Score: −406.18%" role="graphics-symbol" aria-roledescription="point" transform="translate(328.57142857142856,45.30922764549229)" d="M6.124,0A6.124,6.124,0,1,1,-6.124,0A6.124,6.124,0,1,1,6.124,0" fill="#f58518" stroke-width="2" opacity="0.7"/><path aria-label="Número de Atributos do Modelo: 17; Score R2 na Validação Cruzada: −333.36%; Método: SVR (Linear); Dataset: Bem Comportados e Pouco Correlacionados; Número de Atributos: 17; R2 Score: −333.36%" role="graphics-symbol" aria-roledescription="point" transform="translate(242.85714285714286,41.668225912706504)" d="M6.124,0A6.124,6.124,0,1,1,-6.124,0A6.124,6.124,0,1,1,6.124,0" fill="#f58518" stroke-width="2" opacity="0.7"/><path aria-label="Número de Atributos do Modelo: 8; Score R2 na Validação Cruzada: −2769.27%; Método: SVR (Linear); Dataset: Mal Comportados; Número de Atributos: 8; R2 Score: −2769.27%" role="graphics-symbol" aria-roledescription="point" transform="translate(114.28571428571428,163.46357598276566)" d="M6.124,0A6.124,6.124,0,1,1,-6.124,0A6.124,6.124,0,1,1,6.124,0" fill="#f58518" stroke-width="2" opacity="0.7"/><path aria-label="Número de Atributos do Modelo: 7; Score R2 na Validação Cruzada: −1146.85%; Método: SVR (Linear); Dataset: Mal Comportados e Pouco Correlacionados; Número de Atributos: 7; R2 Score: −1146.85%" role="graphics-symbol" aria-roledescription="point" transform="translate(100,82.34262133591899)" d="M6.124,0A6.124,6.124,0,1,1,-6.124,0A6.124,6.124,0,1,1,6.124,0" fill="#f58518" stroke-width="2" opacity="0.7"/><path aria-label="Número de Atributos do Modelo: 24; Score R2 na Validação Cruzada: −5017.87%; Método: SVR (Linear); Dataset: Bem Comportados + Mal Comportados; Número de Atributos: 24; R2 Score: −5017.87%" role="graphics-symbol" aria-roledescription="point" transform="translate(342.85714285714283,275.8932817661747)" d="M6.124,0A6.124,6.124,0,1,1,-6.124,0A6.124,6.124,0,1,1,6.124,0" fill="#f58518" stroke-width="2" opacity="0.7"/><path aria-label="Número de Atributos do Modelo: 31; Score R2 na Validação Cruzada: 24.12%; Método: SVR (RBF); Dataset: Original; Número de Atributos: 31; R2 Score: 24.12%" role="graphics-symbol" aria-roledescription="point" transform="translate(442.85714285714283,23.794060566788755)" d="M6.124,0A6.124,6.124,0,1,1,-6.124,0A6.124,6.124,0,1,1,6.124,0" fill="#e45756" stroke-width="2" opacity="0.7"/><path aria-label="Número de Atributos do Modelo: 23; Score R2 na Validação Cruzada: 4.51%; Método: SVR (RBF); Dataset: Bem Comportados; Número de Atributos: 23; R2 Score: 4.51%" role="graphics-symbol" aria-roledescription="point" transform="translate(328.57142857142856,24.77435832540821)" d="M6.124,0A6.124,6.124,0,1,1,-6.124,0A6.124,6.124,0,1,1,6.124,0" fill="#e45756" stroke-width="2" opacity="0.7"/><path aria-label="Número de Atributos do Modelo: 17; Score R2 na Validação Cruzada: 4.44%; Método: SVR (RBF); Dataset: Bem Comportados e Pouco Correlacionados; Número de Atributos: 17; R2 Score: 4.44%" role="graphics-symbol" aria-roledescription="point" transform="translate(242.85714285714286,24.778043191754527)" d="M6.124,0A6.124,6.124,0,1,1,-6.124,0A6.124,6.124,0,1,1,6.124,0" fill="#e45756" stroke-width="2" opacity="0.7"/><path aria-label="Número de Atributos do Modelo: 8; Score R2 na Validação Cruzada: 12.82%; Método: SVR (RBF); Dataset: Mal Comportados; Número de Atributos: 8; R2 Score: 12.82%" role="graphics-symbol" aria-roledescription="point" transform="translate(114.28571428571428,24.359066461829247)" d="M6.124,0A6.124,6.124,0,1,1,-6.124,0A6.124,6.124,0,1,1,6.124,0" fill="#e45756" stroke-width="2" opacity="0.7"/><path aria-label="Número de Atributos do Modelo: 7; Score R2 na Validação Cruzada: 3.78%; Método: SVR (RBF); Dataset: Mal Comportados e Pouco Correlacionados; Número de Atributos: 7; R2 Score: 3.78%" role="graphics-symbol" aria-roledescription="point" transform="translate(100,24.810858788420877)" d="M6.124,0A6.124,6.124,0,1,1,-6.124,0A6.124,6.124,0,1,1,6.124,0" fill="#e45756" stroke-width="2" opacity="0.7"/><path aria-label="Número de Atributos do Modelo: 24; Score R2 na Validação Cruzada: 17.81%; Método: SVR (RBF); Dataset: Bem Comportados + Mal Comportados; Número de Atributos: 24; R2 Score: 17.81%" role="graphics-symbol" aria-roledescription="point" transform="translate(342.85714285714283,24.109293944814326)" d="M6.124,0A6.124,6.124,0,1,1,-6.124,0A6.124,6.124,0,1,1,6.124,0" fill="#e45756" stroke-width="2" opacity="0.7"/></g><g class="mark-group role-legend" role="graphics-symbol" aria-roledescription="legend" aria-label="Symbol legend titled 'Método' for fill color with 3 values: LR, SVR (Linear), SVR (RBF)"><g transform="translate(518,0)"><path class="background" aria-hidden="true" d="M0,0h74v53h-74Z" pointer-events="none"/><g><g class="mark-group role-legend-entry"><g transform="translate(0,16)"><path class="background" aria-hidden="true" d="M0,0h0v0h0Z" pointer-events="none"/><g><g class="mark-group role-scope" role="graphics-object" aria-roledescription="group mark container"><g transform="translate(0,0)"><path class="background" aria-hidden="true" d="M0,0h73.7978515625v11h-73.7978515625Z" pointer-events="none" opacity="1"/><g><g class="mark-symbol role-legend-symbol" pointer-events="none"><path transform="translate(6,6)" d="M5,0A5,5,0,1,1,-5,0A5,5,0,1,1,5,0" fill="#4c78a8" stroke-width="1.5" opacity="0.7"/></g><g class="mark-text role-legend-label" pointer-events="none"><text text-anchor="start" transform="translate(16,9)" font-family="sans-serif" font-size="10px" fill="#000" opacity="1">LR</text></g></g><path class="foreground" aria-hidden="true" d="" pointer-events="none" display="none"/></g><g transform="translate(0,13)"><path class="background" aria-hidden="true" d="M0,0h73.7978515625v11h-73.7978515625Z" pointer-events="none" opacity="1"/><g><g class="mark-symbol role-legend-symbol" pointer-events="none"><path transform="translate(6,6)" d="M5,0A5,5,0,1,1,-5,0A5,5,0,1,1,5,0" fill="#f58518" stroke-width="1.5" opacity="0.7"/></g><g class="mark-text role-legend-label" pointer-events="none"><text text-anchor="start" transform="translate(16,9)" font-family="sans-serif" font-size="10px" fill="#000" opacity="1">SVR (Linear)</text></g></g><path class="foreground" aria-hidden="true" d="" pointer-events="none" display="none"/></g><g transform="translate(0,26)"><path class="background" aria-hidden="true" d="M0,0h73.7978515625v11h-73.7978515625Z" pointer-events="none" opacity="1"/><g><g class="mark-symbol role-legend-symbol" pointer-events="none"><path transform="translate(6,6)" d="M5,0A5,5,0,1,1,-5,0A5,5,0,1,1,5,0" fill="#e45756" stroke-width="1.5" opacity="0.7"/></g><g class="mark-text role-legend-label" pointer-events="none"><text text-anchor="start" transform="translate(16,9)" font-family="sans-serif" font-size="10px" fill="#000" opacity="1">SVR (RBF)</text></g></g><path class="foreground" aria-hidden="true" d="" pointer-events="none" display="none"/></g></g></g><path class="foreground" aria-hidden="true" d="" pointer-events="none" display="none"/></g></g><g class="mark-text role-legend-title" pointer-events="none"><text text-anchor="start" transform="translate(0,9)" font-family="sans-serif" font-size="11px" font-weight="bold" fill="#000" opacity="1">Método</text></g></g><path class="foreground" aria-hidden="true" d="" pointer-events="none" display="none"/></g></g><g class="mark-group role-title"><g transform="translate(250,-17)"><path class="background" aria-hidden="true" d="M0,0h0v0h0Z" pointer-events="none"/><g><g class="mark-text role-title-text" role="graphics-symbol" aria-roledescription="title" aria-label="Title text 'Performance dos Métodos em Cada Conjunto de Atributos'" pointer-events="none"><text text-anchor="middle" transform="translate(0,10)" font-family="sans-serif" font-size="13px" font-weight="bold" fill="#000" opacity="1">Performance dos Métodos em Cada Conjunto de Atributos</text></g></g><path class="foreground" aria-hidden="true" d="" pointer-events="none" display="none"/></g></g></g><path class="foreground" aria-hidden="true" d="" display="none"/></g></g></g><defs><clipPath id="clip1"><rect x="0" y="0" width="500" height="300"/></clipPath></defs></svg>