<svg xmlns="http://www.w3.org/2000/svg" xmlns:xlink="http://www.w3.org/1999/xlink" version="1.1" class="marks" width="1091" height="415" viewBox="0 0 1091 415"><rect width="1091" height="415" fill="white"/><g fill="none" stroke-miterlimit="10" transform="translate(54,57)"><g class="mark-group role-frame root" role="graphics-object" aria-roledescription="group mark container"><g transform="translate(0,0)"><path class="background" aria-hidden="true" d="M0,0h0v300h0Z"/><g><g class="mark-group role-scope concat_0_group" role="graphics-object" aria-roledescription="group mark container"><g transform="translate(0,0)"><path class="background" aria-hidden="true" d="M0.5,0.5h500v300h-500Z" stroke="#ddd"/><g><g class="mark-group role-axis" aria-hidden="true"><g transform="translate(0.5,300.5)"><path class="background" aria-hidden="true" d="M0,0h0v0h0Z" pointer-events="none"/><g><g class="mark-rule role-axis-grid" pointer-events="none"><line transform="translate(0,-300)" x2="0" y2="300" stroke="#ddd" stroke-width="1" opacity="1"/><line transform="translate(36,-300)" x2="0" y2="300" stroke="#ddd" stroke-width="1" opacity="1"/><line transform="translate(71,-300)" x2="0" y2="300" stroke="#ddd" stroke-width="1" opacity="1"/><line transform="translate(107,-300)" x2="0" y2="300" stroke="#ddd" stroke-width="1" opacity="1"/><line transform="translate(143,-300)" x2="0" y2="300" stroke="#ddd" stroke-width="1" opacity="1"/><line transform="translate(179,-300)" x2="0" y2="300" stroke="#ddd" stroke-width="1" opacity="1"/><line transform="translate(214,-300)" x2="0" y2="300" stroke="#ddd" stroke-width="1" opacity="1"/><line transform="translate(250,-300)" x2="0" y2="300" stroke="#ddd" stroke-width="1" opacity="1"/><line transform="translate(286,-300)" x2="0" y2="300" stroke="#ddd" stroke-width="1" opacity="1"/><line transform="translate(321,-300)" x2="0" y2="300" stroke="#ddd" stroke-width="1" opacity="1"/><line transform="translate(357,-300)" x2="0" y2="300" stroke="#ddd" stroke-width="1" opacity="1"/><line transform="translate(393,-300)" x2="0" y2="300" stroke="#ddd" stroke-width="1" opacity="1"/><line transform="translate(429,-300)" x2="0" y2="300" stroke="#ddd" stroke-width="1" opacity="1"/><line transform="translate(464,-300)" x2="0" y2="300" stroke="#ddd" stroke-width="1" opacity="1"/><line transform="translate(500,-300)" x2="0" y2="300" stroke="#ddd" stroke-width="1" opacity="1"/></g></g><path class="foreground" aria-hidden="true" d="" pointer-events="none" display="none"/></g></g><g class="mark-group role-axis" aria-hidden="true"><g transform="translate(0.5,0.5)"><path class="background" aria-hidden="true" d="M0,0h0v0h0Z" pointer-events="none"/><g><g class="mark-rule role-axis-grid" pointer-events="none"><line transform="translate(0,300)" x2="500" y2="0" stroke="#ddd" stroke-width="1" opacity="1"/><line transform="translate(0,254)" x2="500" y2="0" stroke="#ddd" stroke-width="1" opacity="1"/><line transform="translate(0,208)" x2="500" y2="0" stroke="#ddd" stroke-width="1" opacity="1"/><line transform="translate(0,162)" x2="500" y2="0" stroke="#ddd" stroke-width="1" opacity="1"/><line transform="translate(0,115)" x2="500" y2="0" stroke="#ddd" stroke-width="1" opacity="1"/><line transform="translate(0,69)" x2="500" y2="0" stroke="#ddd" stroke-width="1" opacity="1"/><line transform="translate(0,23)" x2="500" y2="0" stroke="#ddd" stroke-width="1" opacity="1"/></g></g><path class="foreground" aria-hidden="true" d="" pointer-events="none" display="none"/></g></g><g class="mark-group role-axis" role="graphics-symbol" aria-roledescription="axis" aria-label="X-axis titled 'Fator de Aleatoriedade' for a linear scale with values from 0.0 to 0.7"><g transform="translate(0.5,300.5)"><path class="background" aria-hidden="true" d="M0,0h0v0h0Z" pointer-events="none"/><g><g class="mark-rule role-axis-tick" pointer-events="none"><line transform="translate(0,0)" x2="0" y2="5" stroke="#888" stroke-width="1" opacity="1"/><line transform="translate(36,0)" x2="0" y2="5" stroke="#888" stroke-width="1" opacity="1"/><line transform="translate(71,0)" x2="0" y2="5" stroke="#888" stroke-width="1" opacity="1"/><line transform="translate(107,0)" x2="0" y2="5" stroke="#888" stroke-width="1" opacity="1"/><line transform="translate(143,0)" x2="0" y2="5" stroke="#888" stroke-width="1" opacity="1"/><line transform="translate(179,0)" x2="0" y2="5" stroke="#888" stroke-width="1" opacity="1"/><line transform="translate(214,0)" x2="0" y2="5" stroke="#888" stroke-width="1" opacity="1"/><line transform="translate(250,0)" x2="0" y2="5" stroke="#888" stroke-width="1" opacity="1"/><line transform="translate(286,0)" x2="0" y2="5" stroke="#888" stroke-width="1" opacity="1"/><line transform="translate(321,0)" x2="0" y2="5" stroke="#888" stroke-width="1" opacity="1"/><line transform="translate(357,0)" x2="0" y2="5" stroke="#888" stroke-width="1" opacity="1"/><line transform="translate(393,0)" x2="0" y2="5" stroke="#888" stroke-width="1" opacity="1"/><line transform="translate(429,0)" x2="0" y2="5" stroke="#888" stroke-width="1" opacity="1"/><line transform="translate(464,0)" x2="0" y2="5" stroke="#888" stroke-width="1" opacity="1"/><line transform="translate(500,0)" x2="0" y2="5" stroke="#888" stroke-width="1" opacity="1"/></g><g class="mark-text role-axis-label" pointer-events="none"><text text-anchor="start" transform="translate(0,15)" font-family="sans-serif" font-size="10px" fill="#000" opacity="1">0.00</text><text text-anchor="middle" transform="translate(35.71428571428572,15)" font-family="sans-serif" font-size="10px" fill="#000" opacity="1">0.05</text><text text-anchor="middle" transform="translate(71.42857142857144,15)" font-family="sans-serif" font-size="10px" fill="#000" opacity="1">0.10</text><text text-anchor="middle" transform="translate(107.14285714285715,15)" font-family="sans-serif" font-size="10px" fill="#000" opacity="1">0.15</text><text text-anchor="middle" transform="translate(142.8571428571429,15)" font-family="sans-serif" font-size="10px" fill="#000" opacity="1">0.20</text><text text-anchor="middle" transform="translate(178.57142857142858,15)" font-family="sans-serif" font-size="10px" fill="#000" opacity="1">0.25</text><text text-anchor="middle" transform="translate(214.2857142857143,15)" font-family="sans-serif" font-size="10px" fill="#000" opacity="1">0.30</text><text text-anchor="middle" transform="translate(250,15)" font-family="sans-serif" font-size="10px" fill="#000" opacity="1">0.35</text><text text-anchor="middle" transform="translate(285.7142857142858,15)" font-family="sans-serif" font-size="10px" fill="#000" opacity="1">0.40</text><text text-anchor="middle" transform="translate(321.42857142857144,15)" font-family="sans-serif" font-size="10px" fill="#000" opacity="1">0.45</text><text text-anchor="middle" transform="translate(357.14285714285717,15)" font-family="sans-serif" font-size="10px" fill="#000" opacity="1">0.50</text><text text-anchor="middle" transform="translate(392.8571428571429,15)" font-family="sans-serif" font-size="10px" fill="#000" opacity="1">0.55</text><text text-anchor="middle" transform="translate(428.5714285714286,15)" font-family="sans-serif" font-size="10px" fill="#000" opacity="1">0.60</text><text text-anchor="middle" transform="translate(464.28571428571433,15)" font-family="sans-serif" font-size="10px" fill="#000" opacity="1">0.65</text><text text-anchor="end" transform="translate(500,15)" font-family="sans-serif" font-size="10px" fill="#000" opacity="1">0.70</text></g><g class="mark-rule role-axis-domain" pointer-events="none"><line transform="translate(0,0)" x2="500" y2="0" stroke="#888" stroke-width="1" opacity="1"/></g><g class="mark-text role-axis-title" pointer-events="none"><text text-anchor="middle" transform="translate(250,30)" font-family="sans-serif" font-size="11px" font-weight="bold" fill="#000" opacity="1">Fator de Aleatoriedade</text></g></g><path class="foreground" aria-hidden="true" d="" pointer-events="none" display="none"/></g></g><g class="mark-group role-axis" role="graphics-symbol" aria-roledescription="axis" aria-label="Y-axis titled 'Entropia de Shannon' for a linear scale with values from 0 to 7"><g transform="translate(0.5,0.5)"><path class="background" aria-hidden="true" d="M0,0h0v0h0Z" pointer-events="none"/><g><g class="mark-rule role-axis-tick" pointer-events="none"><line transform="translate(0,300)" x2="-5" y2="0" stroke="#888" stroke-width="1" opacity="1"/><line transform="translate(0,254)" x2="-5" y2="0" stroke="#888" stroke-width="1" opacity="1"/><line transform="translate(0,208)" x2="-5" y2="0" stroke="#888" stroke-width="1" opacity="1"/><line transform="translate(0,162)" x2="-5" y2="0" stroke="#888" stroke-width="1" opacity="1"/><line transform="translate(0,115)" x2="-5" y2="0" stroke="#888" stroke-width="1" opacity="1"/><line transform="translate(0,69)" x2="-5" y2="0" stroke="#888" stroke-width="1" opacity="1"/><line transform="translate(0,23)" x2="-5" y2="0" stroke="#888" stroke-width="1" opacity="1"/></g><g class="mark-text role-axis-label" pointer-events="none"><text text-anchor="end" transform="translate(-7,303)" font-family="sans-serif" font-size="10px" fill="#000" opacity="1">0</text><text text-anchor="end" transform="translate(-7,256.8461538461538)" font-family="sans-serif" font-size="10px" fill="#000" opacity="1">1</text><text text-anchor="end" transform="translate(-7,210.69230769230768)" font-family="sans-serif" font-size="10px" fill="#000" opacity="1">2</text><text text-anchor="end" transform="translate(-7,164.53846153846152)" font-family="sans-serif" font-size="10px" fill="#000" opacity="1">3</text><text text-anchor="end" transform="translate(-7,118.38461538461537)" font-family="sans-serif" font-size="10px" fill="#000" opacity="1">4</text><text text-anchor="end" transform="translate(-7,72.23076923076921)" font-family="sans-serif" font-size="10px" fill="#000" opacity="1">5</text><text text-anchor="end" transform="translate(-7,26.076923076923062)" font-family="sans-serif" font-size="10px" fill="#000" opacity="1">6</text></g><g class="mark-rule role-axis-domain" pointer-events="none"><line transform="translate(0,300)" x2="0" y2="-300" stroke="#888" stroke-width="1" opacity="1"/></g><g class="mark-text role-axis-title" pointer-events="none"><text text-anchor="middle" transform="translate(-16.5615234375,150) rotate(-90) translate(0,-2)" font-family="sans-serif" font-size="11px" font-weight="bold" fill="#000" opacity="1">Entropia de Shannon</text></g></g><path class="foreground" aria-hidden="true" d="" pointer-events="none" display="none"/></g></g><g class="mark-rect role-mark view_13_marks" clip-path="url(#clip1)" role="graphics-object" aria-roledescription="rect mark container"><path aria-label="x: 0.18; y: 3; x2: 0; y2: 0" role="graphics-symbol" aria-roledescription="rect mark" d="M0,161.53846153846152h128.57142857142858v138.46153846153848h-128.57142857142858Z" fill="grey" opacity="0.3"/></g><g class="mark-symbol role-mark concat_0_layer_1_marks" clip-path="url(#clip2)" role="graphics-object" aria-roledescription="symbol mark container"><path aria-label="Fator de Aleatoriedade: 0.0749194316333; Entropia de Shannon: 4.85328673255; Comportamento: Mal Comportado; Coluna: (0) Números de estações rádio base; Score de Aleatoriedade: 2.464" role="graphics-symbol" aria-roledescription="point" transform="translate(53.51387973807005,76.00215080527933)" d="M2.739,0A2.739,2.739,0,1,1,-2.739,0A2.739,2.739,0,1,1,2.739,0" stroke="red" stroke-width="2" opacity="0.7"/><path aria-label="Fator de Aleatoriedade: 0.698037173779; Entropia de Shannon: 5.85905798706; Comportamento: Mal Comportado; Coluna: (1) Escala de acesso a banda larga fixa de alta velocidade; Score de Aleatoriedade: 3.279" role="graphics-symbol" aria-roledescription="point" transform="translate(498.5979812707096,29.581939058845062)" d="M2.739,0A2.739,2.739,0,1,1,-2.739,0A2.739,2.739,0,1,1,2.739,0" stroke="red" stroke-width="2" opacity="0.7"/><path aria-label="Fator de Aleatoriedade: 0.125885436033; Entropia de Shannon: 5.64571847807; Comportamento: Mal Comportado; Coluna: (2) Escala de acesso a banda larga móvel; Score de Aleatoriedade: 2.886" role="graphics-symbol" aria-roledescription="point" transform="translate(89.91816859509049,39.42837793523618)" d="M2.739,0A2.739,2.739,0,1,1,-2.739,0A2.739,2.739,0,1,1,2.739,0" stroke="red" stroke-width="2" opacity="0.7"/><path aria-label="Fator de Aleatoriedade: 0; Entropia de Shannon: 1.0741577301; Comportamento: Bem Comportado; Coluna: (3) Percentual de domicílios com população vivendo em aglomerados subnormais; Score de Aleatoriedade: 0.537" role="graphics-symbol" aria-roledescription="point" transform="translate(0,250.42348937990718)" d="M2.739,0A2.739,2.739,0,1,1,-2.739,0A2.739,2.739,0,1,1,2.739,0" stroke="blue" stroke-width="2" opacity="0.7"/><path aria-label="Fator de Aleatoriedade: 0.122781628203; Entropia de Shannon: 5.59058988147; Comportamento: Mal Comportado; Coluna: (4) Escala de acesso a banda larga fixa; Score de Aleatoriedade: 2.857" role="graphics-symbol" aria-roledescription="point" transform="translate(87.70116300195669,41.97277470117946)" d="M2.739,0A2.739,2.739,0,1,1,-2.739,0A2.739,2.739,0,1,1,2.739,0" stroke="red" stroke-width="2" opacity="0.7"/><path aria-label="Fator de Aleatoriedade: 0.0273128536835; Entropia de Shannon: 1.27813473013; Comportamento: Bem Comportado; Coluna: (5) Dados abertos da gestão municipal; Score de Aleatoriedade: 0.653" role="graphics-symbol" aria-roledescription="point" transform="translate(19.509181202499118,241.0091663016076)" d="M2.739,0A2.739,2.739,0,1,1,-2.739,0A2.739,2.739,0,1,1,2.739,0" stroke="blue" stroke-width="2" opacity="0.7"/><path aria-label="Fator de Aleatoriedade: 0; Entropia de Shannon: 0.616062982193; Comportamento: Bem Comportado; Coluna: (6) Rede de tecnologia interligando os equipamentos e edifícios públicos; Score de Aleatoriedade: 0.308" role="graphics-symbol" aria-roledescription="point" transform="translate(0,271.5663238988068)" d="M2.739,0A2.739,2.739,0,1,1,-2.739,0A2.739,2.739,0,1,1,2.739,0" stroke="blue" stroke-width="2" opacity="0.7"/><path aria-label="Fator de Aleatoriedade: 0.0417845415192; Entropia de Shannon: 1.75913607494; Comportamento: Bem Comportado; Coluna: (7) Sistema de informação geográfica da prefeitura; Score de Aleatoriedade: 0.900" role="graphics-symbol" aria-roledescription="point" transform="translate(29.846101085143996,218.80910423369835)" d="M2.739,0A2.739,2.739,0,1,1,-2.739,0A2.739,2.739,0,1,1,2.739,0" stroke="blue" stroke-width="2" opacity="0.7"/><path aria-label="Fator de Aleatoriedade: 0.00153754447876; Entropia de Shannon: 0.79385974226; Comportamento: Bem Comportado; Coluna: (8) Ciclomobilidade na cidade; Score de Aleatoriedade: 0.398" role="graphics-symbol" aria-roledescription="point" transform="translate(1.098246056257816,263.36031958800527)" d="M2.739,0A2.739,2.739,0,1,1,-2.739,0A2.739,2.739,0,1,1,2.739,0" stroke="blue" stroke-width="2" opacity="0.7"/><path aria-label="Fator de Aleatoriedade: 0; Entropia de Shannon: 0.53626876421; Comportamento: Bem Comportado; Coluna: (9) Serviços e soluções inteligentes para mobilidade urbana; Score de Aleatoriedade: 0.268" role="graphics-symbol" aria-roledescription="point" transform="translate(0,275.24913395954354)" d="M2.739,0A2.739,2.739,0,1,1,-2.739,0A2.739,2.739,0,1,1,2.739,0" stroke="blue" stroke-width="2" opacity="0.7"/><path aria-label="Fator de Aleatoriedade: 0.0028005247267; Entropia de Shannon: 0.803233339938; Comportamento: Bem Comportado; Coluna: (10) Acessibilidade no transporte público; Score de Aleatoriedade: 0.403" role="graphics-symbol" aria-roledescription="point" transform="translate(2.0003748047854404,262.92769200286364)" d="M2.739,0A2.739,2.739,0,1,1,-2.739,0A2.739,2.739,0,1,1,2.739,0" stroke="blue" stroke-width="2" opacity="0.7"/><path aria-label="Fator de Aleatoriedade: 0; Entropia de Shannon: 0.0203620883458; Comportamento: Bem Comportado; Coluna: (11) Serviços de compartilhamento de viagens; Score de Aleatoriedade: 0.010" role="graphics-symbol" aria-roledescription="point" transform="translate(0,299.06021130711787)" d="M2.739,0A2.739,2.739,0,1,1,-2.739,0A2.739,2.739,0,1,1,2.739,0" stroke="blue" stroke-width="2" opacity="0.7"/><path aria-label="Fator de Aleatoriedade: 0; Entropia de Shannon: 0.0188328055978; Comportamento: Bem Comportado; Coluna: (12) Plataforma integrada de cidade inteligente; Score de Aleatoriedade: 0.009" role="graphics-symbol" aria-roledescription="point" transform="translate(0,299.13079358779265)" d="M2.739,0A2.739,2.739,0,1,1,-2.739,0A2.739,2.739,0,1,1,2.739,0" stroke="blue" stroke-width="2" opacity="0.7"/><path aria-label="Fator de Aleatoriedade: 0; Entropia de Shannon: 0.0148508753598; Comportamento: Bem Comportado; Coluna: (13) Serviço de informações de transporte público em tempo real; Score de Aleatoriedade: 0.007" role="graphics-symbol" aria-roledescription="point" transform="translate(0,299.314574983394)" d="M2.739,0A2.739,2.739,0,1,1,-2.739,0A2.739,2.739,0,1,1,2.739,0" stroke="blue" stroke-width="2" opacity="0.7"/><path aria-label="Fator de Aleatoriedade: 0.0127134870281; Entropia de Shannon: 1.0412524324; Comportamento: Bem Comportado; Coluna: (14) Centros de comando e controle para gestão da cidade; Score de Aleatoriedade: 0.527" role="graphics-symbol" aria-roledescription="point" transform="translate(9.081062162951815,251.9421954275764)" d="M2.739,0A2.739,2.739,0,1,1,-2.739,0A2.739,2.739,0,1,1,2.739,0" stroke="blue" stroke-width="2" opacity="0.7"/><path aria-label="Fator de Aleatoriedade: 0.0670924646272; Entropia de Shannon: 2.28197353696; Comportamento: Bem Comportado; Coluna: (15) Serviços regulares de transporte de passageiros; Score de Aleatoriedade: 1.175" role="graphics-symbol" aria-roledescription="point" transform="translate(47.92318901940016,194.67814444799183)" d="M2.739,0A2.739,2.739,0,1,1,-2.739,0A2.739,2.739,0,1,1,2.739,0" stroke="blue" stroke-width="2" opacity="0.7"/><path aria-label="Fator de Aleatoriedade: 0.0573337577803; Entropia de Shannon: 2.13435478205; Comportamento: Bem Comportado; Coluna: (16) Programas e ações habitacionais; Score de Aleatoriedade: 1.096" role="graphics-symbol" aria-roledescription="point" transform="translate(40.952684128782685,201.4913177515602)" d="M2.739,0A2.739,2.739,0,1,1,-2.739,0A2.739,2.739,0,1,1,2.739,0" stroke="blue" stroke-width="2" opacity="0.7"/><path aria-label="Fator de Aleatoriedade: 0.0804893932267; Entropia de Shannon: 2.67197429991; Comportamento: Bem Comportado; Coluna: (17) Serviços no website da prefeitura; Score de Aleatoriedade: 1.376" role="graphics-symbol" aria-roledescription="point" transform="translate(57.49242373332743,176.67810923489418)" d="M2.739,0A2.739,2.739,0,1,1,-2.739,0A2.739,2.739,0,1,1,2.739,0" stroke="blue" stroke-width="2" opacity="0.7"/><path aria-label="Fator de Aleatoriedade: 0.0210168981592; Entropia de Shannon: 1.2559480105; Comportamento: Bem Comportado; Coluna: (18) Qualificação profissional e intermediação de mão de obra; Score de Aleatoriedade: 0.638" role="graphics-symbol" aria-roledescription="point" transform="translate(15.012070113708429,242.03316874628803)" d="M2.739,0A2.739,2.739,0,1,1,-2.739,0A2.739,2.739,0,1,1,2.739,0" stroke="blue" stroke-width="2" opacity="0.7"/><path aria-label="Fator de Aleatoriedade: 0.0167323241107; Entropia de Shannon: 1.18222996549; Comportamento: Bem Comportado; Coluna: (19) Geração de trabalho e renda no município; Score de Aleatoriedade: 0.599" role="graphics-symbol" aria-roledescription="point" transform="translate(11.951660079057163,245.43554005416854)" d="M2.739,0A2.739,2.739,0,1,1,-2.739,0A2.739,2.739,0,1,1,2.739,0" stroke="blue" stroke-width="2" opacity="0.7"/><path aria-label="Fator de Aleatoriedade: 0.0248544206008; Entropia de Shannon: 1.35093115689; Comportamento: Bem Comportado; Coluna: (20) Assentamentos urbanos precários ; Score de Aleatoriedade: 0.688" role="graphics-symbol" aria-roledescription="point" transform="translate(17.75315757203107,237.64933122061873)" d="M2.739,0A2.739,2.739,0,1,1,-2.739,0A2.739,2.739,0,1,1,2.739,0" stroke="blue" stroke-width="2" opacity="0.7"/><path aria-label="Fator de Aleatoriedade: 0; Entropia de Shannon: 0.604497841373; Comportamento: Bem Comportado; Coluna: (21) Coleta seletiva de resíduos no município; Score de Aleatoriedade: 0.302" role="graphics-symbol" aria-roledescription="point" transform="translate(0,272.10009962895106)" d="M2.739,0A2.739,2.739,0,1,1,-2.739,0A2.739,2.739,0,1,1,2.739,0" stroke="blue" stroke-width="2" opacity="0.7"/><path aria-label="Fator de Aleatoriedade: 0.00251619908449; Entropia de Shannon: 3.2734413856; Comportamento: Mal Comportado; Coluna: (22) Índice da população urbana com atendimento de esgoto; Score de Aleatoriedade: 1.638" role="graphics-symbol" aria-roledescription="point" transform="translate(1.797285060349937,148.91808989541667)" d="M2.739,0A2.739,2.739,0,1,1,-2.739,0A2.739,2.739,0,1,1,2.739,0" stroke="red" stroke-width="2" opacity="0.7"/><path aria-label="Fator de Aleatoriedade: 0.0341834476371; Entropia de Shannon: 4.05376522813; Comportamento: Mal Comportado; Coluna: (23) Índice da população total com atendimento de esgoto; Score de Aleatoriedade: 2.044" role="graphics-symbol" aria-roledescription="point" transform="translate(24.4167483122003,112.90314331729235)" d="M2.739,0A2.739,2.739,0,1,1,-2.739,0A2.739,2.739,0,1,1,2.739,0" stroke="red" stroke-width="2" opacity="0.7"/><path aria-label="Fator de Aleatoriedade: 0.0299703744425; Entropia de Shannon: 1.42030795127; Comportamento: Bem Comportado; Coluna: (24) Inclusão produtiva urbana; Score de Aleatoriedade: 0.725" role="graphics-symbol" aria-roledescription="point" transform="translate(21.407410316069722,234.44732532586312)" d="M2.739,0A2.739,2.739,0,1,1,-2.739,0A2.739,2.739,0,1,1,2.739,0" stroke="blue" stroke-width="2" opacity="0.7"/><path aria-label="Fator de Aleatoriedade: 0.00952677248594; Entropia de Shannon: 0.983729609614; Comportamento: Bem Comportado; Coluna: (25) Acesso a crédito, microcrédito e seguro; Score de Aleatoriedade: 0.497" role="graphics-symbol" aria-roledescription="point" transform="translate(6.804837489958724,254.59709494090933)" d="M2.739,0A2.739,2.739,0,1,1,-2.739,0A2.739,2.739,0,1,1,2.739,0" stroke="blue" stroke-width="2" opacity="0.7"/><path aria-label="Fator de Aleatoriedade: 0.114595271782; Entropia de Shannon: 6.12388313115; Comportamento: Mal Comportado; Coluna: (26) Índice da população total com atendimento de água; Score de Aleatoriedade: 3.119" role="graphics-symbol" aria-roledescription="point" transform="translate(81.85376555882127,17.359240100790164)" d="M2.739,0A2.739,2.739,0,1,1,-2.739,0A2.739,2.739,0,1,1,2.739,0" stroke="red" stroke-width="2" opacity="0.7"/><path aria-label="Fator de Aleatoriedade: 0.108146037861; Entropia de Shannon: 5.81587934333; Comportamento: Mal Comportado; Coluna: (27) Taxa da população coberta com serviço de coleta de resíduos; Score de Aleatoriedade: 2.962" role="graphics-symbol" aria-roledescription="point" transform="translate(77.24716990039464,31.574799538725507)" d="M2.739,0A2.739,2.739,0,1,1,-2.739,0A2.739,2.739,0,1,1,2.739,0" stroke="red" stroke-width="2" opacity="0.7"/><path aria-label="Fator de Aleatoriedade: 0.65504899487; Entropia de Shannon: 6.46346125862; Comportamento: Mal Comportado; Coluna: (28) Índice de pavimentação das vias públicas; Score de Aleatoriedade: 3.559" role="graphics-symbol" aria-roledescription="point" transform="translate(467.89213919317643,1.686403448236573)" d="M2.739,0A2.739,2.739,0,1,1,-2.739,0A2.739,2.739,0,1,1,2.739,0" stroke="red" stroke-width="2" opacity="0.7"/></g><g class="mark-group role-title"><g transform="translate(-27.5615234375,-31)"><path class="background" aria-hidden="true" d="M0,0h0v0h0Z" pointer-events="none"/><g><g class="mark-text role-title-text" role="graphics-symbol" aria-roledescription="title" aria-label="Title text 'Relação entre Entropia de Shannon e Fator de Aleatoriedade'" pointer-events="none"><text text-anchor="start" transform="translate(0,10)" font-family="sans-serif" font-size="13px" font-weight="bold" fill="#000" opacity="1">Relação entre Entropia de Shannon e Fator de Aleatoriedade</text></g><g class="mark-text role-title-subtitle" role="graphics-symbol" aria-roledescription="subtitle" aria-label="Subtitle text 'A Correlação de Spearman entre o Fator de Aleatoriedade e a Entropia de Shannon é de 0.9266'" pointer-events="none"><text text-anchor="start" transform="translate(0,25)" font-family="sans-serif" font-size="12px" fill="#000" opacity="1">A Correlação de Spearman entre o Fator de Aleatoriedade e a Entropia de Shannon é de 0.9266</text></g></g><path class="foreground" aria-hidden="true" d="" pointer-events="none" display="none"/></g></g></g><path class="foreground" aria-hidden="true" d="" display="none"/></g></g><g class="mark-group role-scope view_14_group" role="graphics-object" aria-roledescription="group mark container"><g transform="translate(544,0)"><path class="background" aria-hidden="true" d="M0.5,0.5h300v300h-300Z" stroke="#ddd"/><g><g class="mark-group role-axis" aria-hidden="true"><g transform="translate(0.5,300.5)"><path class="background" aria-hidden="true" d="M0,0h0v0h0Z" pointer-events="none"/><g><g class="mark-rule role-axis-grid" pointer-events="none"><line transform="translate(0,-300)" x2="0" y2="300" stroke="#ddd" stroke-width="1" opacity="1"/><line transform="translate(33,-300)" x2="0" y2="300" stroke="#ddd" stroke-width="1" opacity="1"/><line transform="translate(67,-300)" x2="0" y2="300" stroke="#ddd" stroke-width="1" opacity="1"/><line transform="translate(100,-300)" x2="0" y2="300" stroke="#ddd" stroke-width="1" opacity="1"/><line transform="translate(133,-300)" x2="0" y2="300" stroke="#ddd" stroke-width="1" opacity="1"/><line transform="translate(167,-300)" x2="0" y2="300" stroke="#ddd" stroke-width="1" opacity="1"/><line transform="translate(200,-300)" x2="0" y2="300" stroke="#ddd" stroke-width="1" opacity="1"/><line transform="translate(233,-300)" x2="0" y2="300" stroke="#ddd" stroke-width="1" opacity="1"/><line transform="translate(267,-300)" x2="0" y2="300" stroke="#ddd" stroke-width="1" opacity="1"/><line transform="translate(300,-300)" x2="0" y2="300" stroke="#ddd" stroke-width="1" opacity="1"/></g></g><path class="foreground" aria-hidden="true" d="" pointer-events="none" display="none"/></g></g><g class="mark-group role-axis" aria-hidden="true"><g transform="translate(0.5,0.5)"><path class="background" aria-hidden="true" d="M0,0h0v0h0Z" pointer-events="none"/><g><g class="mark-rule role-axis-grid" pointer-events="none"><line transform="translate(0,300)" x2="300" y2="0" stroke="#ddd" stroke-width="1" opacity="1"/><line transform="translate(0,246)" x2="300" y2="0" stroke="#ddd" stroke-width="1" opacity="1"/><line transform="translate(0,193)" x2="300" y2="0" stroke="#ddd" stroke-width="1" opacity="1"/><line transform="translate(0,139)" x2="300" y2="0" stroke="#ddd" stroke-width="1" opacity="1"/><line transform="translate(0,86)" x2="300" y2="0" stroke="#ddd" stroke-width="1" opacity="1"/><line transform="translate(0,32)" x2="300" y2="0" stroke="#ddd" stroke-width="1" opacity="1"/></g></g><path class="foreground" aria-hidden="true" d="" pointer-events="none" display="none"/></g></g><g class="mark-group role-axis" role="graphics-symbol" aria-roledescription="axis" aria-label="X-axis titled 'Fator de Aleatoriedade' for a linear scale with values from 0.00 to 0.09"><g transform="translate(0.5,300.5)"><path class="background" aria-hidden="true" d="M0,0h0v0h0Z" pointer-events="none"/><g><g class="mark-rule role-axis-tick" pointer-events="none"><line transform="translate(0,0)" x2="0" y2="5" stroke="#888" stroke-width="1" opacity="1"/><line transform="translate(33,0)" x2="0" y2="5" stroke="#888" stroke-width="1" opacity="1"/><line transform="translate(67,0)" x2="0" y2="5" stroke="#888" stroke-width="1" opacity="1"/><line transform="translate(100,0)" x2="0" y2="5" stroke="#888" stroke-width="1" opacity="1"/><line transform="translate(133,0)" x2="0" y2="5" stroke="#888" stroke-width="1" opacity="1"/><line transform="translate(167,0)" x2="0" y2="5" stroke="#888" stroke-width="1" opacity="1"/><line transform="translate(200,0)" x2="0" y2="5" stroke="#888" stroke-width="1" opacity="1"/><line transform="translate(233,0)" x2="0" y2="5" stroke="#888" stroke-width="1" opacity="1"/><line transform="translate(267,0)" x2="0" y2="5" stroke="#888" stroke-width="1" opacity="1"/><line transform="translate(300,0)" x2="0" y2="5" stroke="#888" stroke-width="1" opacity="1"/></g><g class="mark-text role-axis-label" pointer-events="none"><text text-anchor="start" transform="translate(0,15)" font-family="sans-serif" font-size="10px" fill="#000" opacity="1">0.00</text><text text-anchor="middle" transform="translate(33.333333333333336,15)" font-family="sans-serif" font-size="10px" fill="#000" opacity="1">0.01</text><text text-anchor="middle" transform="translate(66.66666666666667,15)" font-family="sans-serif" font-size="10px" fill="#000" opacity="1">0.02</text><text text-anchor="middle" transform="translate(100,15)" font-family="sans-serif" font-size="10px" fill="#000" opacity="1">0.03</text><text text-anchor="middle" transform="translate(133.33333333333334,15)" font-family="sans-serif" font-size="10px" fill="#000" opacity="1">0.04</text><text text-anchor="middle" transform="translate(166.66666666666669,15)" font-family="sans-serif" font-size="10px" fill="#000" opacity="1">0.05</text><text text-anchor="middle" transform="translate(200,15)" font-family="sans-serif" font-size="10px" fill="#000" opacity="1">0.06</text><text text-anchor="middle" transform="translate(233.33333333333337,15)" font-family="sans-serif" font-size="10px" fill="#000" opacity="1">0.07</text><text text-anchor="middle" transform="translate(266.6666666666667,15)" font-family="sans-serif" font-size="10px" fill="#000" opacity="1">0.08</text><text text-anchor="end" transform="translate(300,15)" font-family="sans-serif" font-size="10px" fill="#000" opacity="1">0.09</text></g><g class="mark-rule role-axis-domain" pointer-events="none"><line transform="translate(0,0)" x2="300" y2="0" stroke="#888" stroke-width="1" opacity="1"/></g><g class="mark-text role-axis-title" pointer-events="none"><text text-anchor="middle" transform="translate(150,30)" font-family="sans-serif" font-size="11px" font-weight="bold" fill="#000" opacity="1">Fator de Aleatoriedade</text></g></g><path class="foreground" aria-hidden="true" d="" pointer-events="none" display="none"/></g></g><g class="mark-group role-axis" role="graphics-symbol" aria-roledescription="axis" aria-label="Y-axis for a linear scale with values from 0.0 to 2.8"><g transform="translate(0.5,0.5)"><path class="background" aria-hidden="true" d="M0,0h0v0h0Z" pointer-events="none"/><g><g class="mark-rule role-axis-tick" pointer-events="none"><line transform="translate(0,300)" x2="-5" y2="0" stroke="#888" stroke-width="1" opacity="1"/><line transform="translate(0,246)" x2="-5" y2="0" stroke="#888" stroke-width="1" opacity="1"/><line transform="translate(0,193)" x2="-5" y2="0" stroke="#888" stroke-width="1" opacity="1"/><line transform="translate(0,139)" x2="-5" y2="0" stroke="#888" stroke-width="1" opacity="1"/><line transform="translate(0,86)" x2="-5" y2="0" stroke="#888" stroke-width="1" opacity="1"/><line transform="translate(0,32)" x2="-5" y2="0" stroke="#888" stroke-width="1" opacity="1"/></g><g class="mark-text role-axis-label" pointer-events="none"><text text-anchor="end" transform="translate(-7,303)" font-family="sans-serif" font-size="10px" fill="#000" opacity="1">0.0</text><text text-anchor="end" transform="translate(-7,249.42857142857142)" font-family="sans-serif" font-size="10px" fill="#000" opacity="1">0.5</text><text text-anchor="end" transform="translate(-7,195.85714285714283)" font-family="sans-serif" font-size="10px" fill="#000" opacity="1">1.0</text><text text-anchor="end" transform="translate(-7,142.28571428571428)" font-family="sans-serif" font-size="10px" fill="#000" opacity="1">1.5</text><text text-anchor="end" transform="translate(-7,88.71428571428571)" font-family="sans-serif" font-size="10px" fill="#000" opacity="1">2.0</text><text text-anchor="end" transform="translate(-7,35.14285714285713)" font-family="sans-serif" font-size="10px" fill="#000" opacity="1">2.5</text></g><g class="mark-rule role-axis-domain" pointer-events="none"><line transform="translate(0,300)" x2="0" y2="-300" stroke="#888" stroke-width="1" opacity="1"/></g></g><path class="foreground" aria-hidden="true" d="" pointer-events="none" display="none"/></g></g><g class="mark-symbol role-mark view_14_marks" clip-path="url(#clip3)" role="graphics-object" aria-roledescription="symbol mark container"><path aria-label="Fator de Aleatoriedade: 0; Entropia: 1.0741577301; Comportamento: Bem Comportado; Coluna: (3) Percentual de domicílios com população vivendo em aglomerados subnormais; Entropia de Shannon: 1.074; Score de Aleatoriedade: 0.537" role="graphics-symbol" aria-roledescription="point" transform="translate(0,184.91167177478457)" d="M2.739,0A2.739,2.739,0,1,1,-2.739,0A2.739,2.739,0,1,1,2.739,0" stroke="blue" stroke-width="2" opacity="0.7"/><path aria-label="Fator de Aleatoriedade: 0.0273128536835; Entropia: 1.27813473013; Comportamento: Bem Comportado; Coluna: (5) Dados abertos da gestão municipal; Entropia de Shannon: 1.278; Score de Aleatoriedade: 0.653" role="graphics-symbol" aria-roledescription="point" transform="translate(91.04284561166254,163.05699320016038)" d="M2.739,0A2.739,2.739,0,1,1,-2.739,0A2.739,2.739,0,1,1,2.739,0" stroke="blue" stroke-width="2" opacity="0.7"/><path aria-label="Fator de Aleatoriedade: 0; Entropia: 0.616062982193; Comportamento: Bem Comportado; Coluna: (6) Rede de tecnologia interligando os equipamentos e edifícios públicos; Entropia de Shannon: 0.616; Score de Aleatoriedade: 0.308" role="graphics-symbol" aria-roledescription="point" transform="translate(0,233.99325190794434)" d="M2.739,0A2.739,2.739,0,1,1,-2.739,0A2.739,2.739,0,1,1,2.739,0" stroke="blue" stroke-width="2" opacity="0.7"/><path aria-label="Fator de Aleatoriedade: 0.0417845415192; Entropia: 1.75913607494; Comportamento: Bem Comportado; Coluna: (7) Sistema de informação geográfica da prefeitura; Entropia de Shannon: 1.759; Score de Aleatoriedade: 0.900" role="graphics-symbol" aria-roledescription="point" transform="translate(139.2818050640053,111.52113482822833)" d="M2.739,0A2.739,2.739,0,1,1,-2.739,0A2.739,2.739,0,1,1,2.739,0" stroke="blue" stroke-width="2" opacity="0.7"/><path aria-label="Fator de Aleatoriedade: 0.00153754447876; Entropia: 0.79385974226; Comportamento: Bem Comportado; Coluna: (8) Ciclomobilidade na cidade; Entropia de Shannon: 0.794; Score de Aleatoriedade: 0.398" role="graphics-symbol" aria-roledescription="point" transform="translate(5.125148262536475,214.94359904358367)" d="M2.739,0A2.739,2.739,0,1,1,-2.739,0A2.739,2.739,0,1,1,2.739,0" stroke="blue" stroke-width="2" opacity="0.7"/><path aria-label="Fator de Aleatoriedade: 0; Entropia: 0.53626876421; Comportamento: Bem Comportado; Coluna: (9) Serviços e soluções inteligentes para mobilidade urbana; Entropia de Shannon: 0.536; Score de Aleatoriedade: 0.268" role="graphics-symbol" aria-roledescription="point" transform="translate(0,242.54263240608324)" d="M2.739,0A2.739,2.739,0,1,1,-2.739,0A2.739,2.739,0,1,1,2.739,0" stroke="blue" stroke-width="2" opacity="0.7"/><path aria-label="Fator de Aleatoriedade: 0.0028005247267; Entropia: 0.803233339938; Comportamento: Bem Comportado; Coluna: (10) Acessibilidade no transporte público; Entropia de Shannon: 0.803; Score de Aleatoriedade: 0.403" role="graphics-symbol" aria-roledescription="point" transform="translate(9.335082422332054,213.93928500664774)" d="M2.739,0A2.739,2.739,0,1,1,-2.739,0A2.739,2.739,0,1,1,2.739,0" stroke="blue" stroke-width="2" opacity="0.7"/><path aria-label="Fator de Aleatoriedade: 0; Entropia: 0.0203620883458; Comportamento: Bem Comportado; Coluna: (11) Serviços de compartilhamento de viagens; Entropia de Shannon: 0.020; Score de Aleatoriedade: 0.010" role="graphics-symbol" aria-roledescription="point" transform="translate(0,297.8183476772378)" d="M2.739,0A2.739,2.739,0,1,1,-2.739,0A2.739,2.739,0,1,1,2.739,0" stroke="blue" stroke-width="2" opacity="0.7"/><path aria-label="Fator de Aleatoriedade: 0; Entropia: 0.0188328055978; Comportamento: Bem Comportado; Coluna: (12) Plataforma integrada de cidade inteligente; Entropia de Shannon: 0.019; Score de Aleatoriedade: 0.009" role="graphics-symbol" aria-roledescription="point" transform="translate(0,297.98219940023296)" d="M2.739,0A2.739,2.739,0,1,1,-2.739,0A2.739,2.739,0,1,1,2.739,0" stroke="blue" stroke-width="2" opacity="0.7"/><path aria-label="Fator de Aleatoriedade: 0; Entropia: 0.0148508753598; Comportamento: Bem Comportado; Coluna: (13) Serviço de informações de transporte público em tempo real; Entropia de Shannon: 0.015; Score de Aleatoriedade: 0.007" role="graphics-symbol" aria-roledescription="point" transform="translate(0,298.40883478287896)" d="M2.739,0A2.739,2.739,0,1,1,-2.739,0A2.739,2.739,0,1,1,2.739,0" stroke="blue" stroke-width="2" opacity="0.7"/><path aria-label="Fator de Aleatoriedade: 0.0127134870281; Entropia: 1.0412524324; Comportamento: Bem Comportado; Coluna: (14) Centros de comando e controle para gestão da cidade; Entropia de Shannon: 1.041; Score de Aleatoriedade: 0.527" role="graphics-symbol" aria-roledescription="point" transform="translate(42.378290093775135,188.4372393854452)" d="M2.739,0A2.739,2.739,0,1,1,-2.739,0A2.739,2.739,0,1,1,2.739,0" stroke="blue" stroke-width="2" opacity="0.7"/><path aria-label="Fator de Aleatoriedade: 0.0670924646272; Entropia: 2.28197353696; Comportamento: Bem Comportado; Coluna: (15) Serviços regulares de transporte de passageiros; Entropia de Shannon: 2.282; Score de Aleatoriedade: 1.175" role="graphics-symbol" aria-roledescription="point" transform="translate(223.64154875720072,55.502835325695344)" d="M2.739,0A2.739,2.739,0,1,1,-2.739,0A2.739,2.739,0,1,1,2.739,0" stroke="blue" stroke-width="2" opacity="0.7"/><path aria-label="Fator de Aleatoriedade: 0.0573337577803; Entropia: 2.13435478205; Comportamento: Bem Comportado; Coluna: (16) Programas e ações habitacionais; Entropia de Shannon: 2.134; Score de Aleatoriedade: 1.096" role="graphics-symbol" aria-roledescription="point" transform="translate(191.11252593431917,71.31913049469328)" d="M2.739,0A2.739,2.739,0,1,1,-2.739,0A2.739,2.739,0,1,1,2.739,0" stroke="blue" stroke-width="2" opacity="0.7"/><path aria-label="Fator de Aleatoriedade: 0.0804893932267; Entropia: 2.67197429991; Comportamento: Bem Comportado; Coluna: (17) Serviços no website da prefeitura; Entropia de Shannon: 2.672; Score de Aleatoriedade: 1.376" role="graphics-symbol" aria-roledescription="point" transform="translate(268.29797742219466,13.717039295290023)" d="M2.739,0A2.739,2.739,0,1,1,-2.739,0A2.739,2.739,0,1,1,2.739,0" stroke="blue" stroke-width="2" opacity="0.7"/><path aria-label="Fator de Aleatoriedade: 0.0210168981592; Entropia: 1.2559480105; Comportamento: Bem Comportado; Coluna: (18) Qualificação profissional e intermediação de mão de obra; Entropia de Shannon: 1.256; Score de Aleatoriedade: 0.638" role="graphics-symbol" aria-roledescription="point" transform="translate(70.05632719730599,165.43414173245438)" d="M2.739,0A2.739,2.739,0,1,1,-2.739,0A2.739,2.739,0,1,1,2.739,0" stroke="blue" stroke-width="2" opacity="0.7"/><path aria-label="Fator de Aleatoriedade: 0.0167323241107; Entropia: 1.18222996549; Comportamento: Bem Comportado; Coluna: (19) Geração de trabalho e renda no município; Entropia de Shannon: 1.182; Score de Aleatoriedade: 0.599" role="graphics-symbol" aria-roledescription="point" transform="translate(55.774413702266756,173.33250369717695)" d="M2.739,0A2.739,2.739,0,1,1,-2.739,0A2.739,2.739,0,1,1,2.739,0" stroke="blue" stroke-width="2" opacity="0.7"/><path aria-label="Fator de Aleatoriedade: 0.0248544206008; Entropia: 1.35093115689; Comportamento: Bem Comportado; Coluna: (20) Assentamentos urbanos precários ; Entropia de Shannon: 1.351; Score de Aleatoriedade: 0.688" role="graphics-symbol" aria-roledescription="point" transform="translate(82.84806866947832,155.2573760478649)" d="M2.739,0A2.739,2.739,0,1,1,-2.739,0A2.739,2.739,0,1,1,2.739,0" stroke="blue" stroke-width="2" opacity="0.7"/><path aria-label="Fator de Aleatoriedade: 0; Entropia: 0.604497841373; Comportamento: Bem Comportado; Coluna: (21) Coleta seletiva de resíduos no município; Entropia de Shannon: 0.604; Score de Aleatoriedade: 0.302" role="graphics-symbol" aria-roledescription="point" transform="translate(0,235.23237413863635)" d="M2.739,0A2.739,2.739,0,1,1,-2.739,0A2.739,2.739,0,1,1,2.739,0" stroke="blue" stroke-width="2" opacity="0.7"/><path aria-label="Fator de Aleatoriedade: 0.0299703744425; Entropia: 1.42030795127; Comportamento: Bem Comportado; Coluna: (24) Inclusão produtiva urbana; Entropia de Shannon: 1.420; Score de Aleatoriedade: 0.725" role="graphics-symbol" aria-roledescription="point" transform="translate(99.9012481416587,147.82414807789652)" d="M2.739,0A2.739,2.739,0,1,1,-2.739,0A2.739,2.739,0,1,1,2.739,0" stroke="blue" stroke-width="2" opacity="0.7"/><path aria-label="Fator de Aleatoriedade: 0.00952677248594; Entropia: 0.983729609614; Comportamento: Bem Comportado; Coluna: (25) Acesso a crédito, microcrédito e seguro; Entropia de Shannon: 0.984; Score de Aleatoriedade: 0.497" role="graphics-symbol" aria-roledescription="point" transform="translate(31.755908286474046,194.600398969968)" d="M2.739,0A2.739,2.739,0,1,1,-2.739,0A2.739,2.739,0,1,1,2.739,0" stroke="blue" stroke-width="2" opacity="0.7"/></g><g class="mark-group role-title"><g transform="translate(-20.9013671875,-31)"><path class="background" aria-hidden="true" d="M0,0h0v0h0Z" pointer-events="none"/><g><g class="mark-text role-title-text" role="graphics-symbol" aria-roledescription="title" aria-label="Title text 'Atributos Dentro da Zona Bem Comportada'" pointer-events="none"><text text-anchor="start" transform="translate(0,10)" font-family="sans-serif" font-size="13px" font-weight="bold" fill="#000" opacity="1">Atributos Dentro da Zona Bem Comportada</text></g><g class="mark-text role-title-subtitle" role="graphics-symbol" aria-roledescription="subtitle" aria-label="Subtitle text 'Existem 20 atributos bem comportados nessa zona'" pointer-events="none"><text text-anchor="start" transform="translate(0,25)" font-family="sans-serif" font-size="12px" fill="#000" opacity="1">Existem 20 atributos bem comportados nessa zona</text></g></g><path class="foreground" aria-hidden="true" d="" pointer-events="none" display="none"/></g></g></g><path class="foreground" aria-hidden="true" d="" display="none"/></g></g><g class="mark-group role-legend" role="graphics-symbol" aria-roledescription="legend" aria-label="Symbol legend titled 'Comportamento do Atributo' for stroke color with 2 values: Bem Comportado, Mal Comportado"><g transform="translate(864,0)"><path class="background" aria-hidden="true" d="M0,0h148v45h-148Z" pointer-events="none"/><g><g class="mark-group role-legend-entry"><g transform="translate(0,16)"><path class="background" aria-hidden="true" d="M0,0h0v0h0Z" pointer-events="none"/><g><g class="mark-group role-scope" role="graphics-object" aria-roledescription="group mark container"><g transform="translate(0,0)"><path class="background" aria-hidden="true" d="M0,0h94.369140625v12.5h-94.369140625Z" pointer-events="none" opacity="1"/><g><g class="mark-symbol role-legend-symbol" pointer-events="none"><path transform="translate(6,6)" d="M5,0A5,5,0,1,1,-5,0A5,5,0,1,1,5,0" stroke="blue" stroke-width="1.5" opacity="0.7"/></g><g class="mark-text role-legend-label" pointer-events="none"><text text-anchor="start" transform="translate(16,9)" font-family="sans-serif" font-size="10px" fill="#000" opacity="1">Bem Comportado</text></g></g><path class="foreground" aria-hidden="true" d="" pointer-events="none" display="none"/></g><g transform="translate(0,16)"><path class="background" aria-hidden="true" d="M0,0h94.369140625v12.5h-94.369140625Z" pointer-events="none" opacity="1"/><g><g class="mark-symbol role-legend-symbol" pointer-events="none"><path transform="translate(6,6)" d="M5,0A5,5,0,1,1,-5,0A5,5,0,1,1,5,0" stroke="red" stroke-width="1.5" opacity="0.7"/></g><g class="mark-text role-legend-label" pointer-events="none"><text text-anchor="start" transform="translate(16,9)" font-family="sans-serif" font-size="10px" fill="#000" opacity="1">Mal Comportado</text></g></g><path class="foreground" aria-hidden="true" d="" pointer-events="none" display="none"/></g></g></g><path class="foreground" aria-hidden="true" d="" pointer-events="none" display="none"/></g></g><g class="mark-text role-legend-title" pointer-events="none"><text text-anchor="start" transform="translate(0,9)" font-family="sans-serif" font-size="11px" font-weight="bold" fill="#000" opacity="1">Comportamento do Atributo</text></g></g><path class="foreground" aria-hidden="true" d="" pointer-events="none" display="none"/></g></g></g><path class="foreground" aria-hidden="true" d="" display="none"/></g></g></g><defs><clipPath id="clip1"><rect x="0" y="0" width="500" height="300"/></clipPath><clipPath id="clip2"><rect x="0" y="0" width="500" height="300"/></clipPath><clipPath id="clip3"><rect x="0" y="0" width="300" height="300"/></clipPath></defs></svg>