<svg xmlns="http://www.w3.org/2000/svg" xmlns:xlink="http://www.w3.org/1999/xlink" version="1.1" class="marks" width="664" height="364" viewBox="0 0 664 364"><rect width="664" height="364" fill="white"/><g fill="none" stroke-miterlimit="10" transform="translate(67,27)"><g class="mark-group role-frame root" role="graphics-object" aria-roledescription="group mark container"><g transform="translate(0,0)"><path class="background" aria-hidden="true" d="M0.5,0.5h500v300h-500Z" stroke="#ddd"/><g><g class="mark-group role-axis" aria-hidden="true"><g transform="translate(0.5,300.5)"><path class="background" aria-hidden="true" d="M0,0h0v0h0Z" pointer-events="none"/><g><g class="mark-rule role-axis-grid" pointer-events="none"><line transform="translate(333,-300)" x2="0" y2="300" stroke="#ddd" stroke-width="1" opacity="1"/><line transform="translate(167,-300)" x2="0" y2="300" stroke="#ddd" stroke-width="1" opacity="1"/><line transform="translate(500,-300)" x2="0" y2="300" stroke="#ddd" stroke-width="1" opacity="1"/><line transform="translate(0,-300)" x2="0" y2="300" stroke="#ddd" stroke-width="1" opacity="1"/><line transform="translate(33,-300)" x2="0" y2="300" stroke="#ddd" stroke-width="1" opacity="1"/><line transform="translate(67,-300)" x2="0" y2="300" stroke="#ddd" stroke-width="1" opacity="1"/><line transform="translate(100,-300)" x2="0" y2="300" stroke="#ddd" stroke-width="1" opacity="1"/><line transform="translate(133,-300)" x2="0" y2="300" stroke="#ddd" stroke-width="1" opacity="1"/><line transform="translate(200,-300)" x2="0" y2="300" stroke="#ddd" stroke-width="1" opacity="1"/><line transform="translate(233,-300)" x2="0" y2="300" stroke="#ddd" stroke-width="1" opacity="1"/><line transform="translate(267,-300)" x2="0" y2="300" stroke="#ddd" stroke-width="1" opacity="1"/><line transform="translate(300,-300)" x2="0" y2="300" stroke="#ddd" stroke-width="1" opacity="1"/><line transform="translate(367,-300)" x2="0" y2="300" stroke="#ddd" stroke-width="1" opacity="1"/><line transform="translate(400,-300)" x2="0" y2="300" stroke="#ddd" stroke-width="1" opacity="1"/><line transform="translate(433,-300)" x2="0" y2="300" stroke="#ddd" stroke-width="1" opacity="1"/><line transform="translate(467,-300)" x2="0" y2="300" stroke="#ddd" stroke-width="1" opacity="1"/></g></g><path class="foreground" aria-hidden="true" d="" pointer-events="none" display="none"/></g></g><g class="mark-group role-axis" aria-hidden="true"><g transform="translate(0.5,0.5)"><path class="background" aria-hidden="true" d="M0,0h0v0h0Z" pointer-events="none"/><g><g class="mark-rule role-axis-grid" pointer-events="none"><line transform="translate(0,82)" x2="500" y2="0" stroke="#ddd" stroke-width="1" opacity="1"/><line transform="translate(0,27)" x2="500" y2="0" stroke="#ddd" stroke-width="1" opacity="1"/><line transform="translate(0,136)" x2="500" y2="0" stroke="#ddd" stroke-width="1" opacity="1"/><line transform="translate(0,191)" x2="500" y2="0" stroke="#ddd" stroke-width="1" opacity="1"/><line transform="translate(0,245)" x2="500" y2="0" stroke="#ddd" stroke-width="1" opacity="1"/><line transform="translate(0,300)" x2="500" y2="0" stroke="#ddd" stroke-width="1" opacity="1"/><line transform="translate(0,273)" x2="500" y2="0" stroke="#ddd" stroke-width="1" opacity="1"/><line transform="translate(0,218)" x2="500" y2="0" stroke="#ddd" stroke-width="1" opacity="1"/><line transform="translate(0,164)" x2="500" y2="0" stroke="#ddd" stroke-width="1" opacity="1"/><line transform="translate(0,109)" x2="500" y2="0" stroke="#ddd" stroke-width="1" opacity="1"/><line transform="translate(0,55)" x2="500" y2="0" stroke="#ddd" stroke-width="1" opacity="1"/><line transform="translate(0,0)" x2="500" y2="0" stroke="#ddd" stroke-width="1" opacity="1"/></g></g><path class="foreground" aria-hidden="true" d="" pointer-events="none" display="none"/></g></g><g class="mark-group role-axis" role="graphics-symbol" aria-roledescription="axis" aria-label="X-axis titled 'Número de Atributos do Modelo' for a linear scale with values from 0 to 30"><g transform="translate(0.5,300.5)"><path class="background" aria-hidden="true" d="M0,0h0v0h0Z" pointer-events="none"/><g><g class="mark-rule role-axis-tick" pointer-events="none"><line transform="translate(333,0)" x2="0" y2="5" stroke="#888" stroke-width="1" opacity="1"/><line transform="translate(167,0)" x2="0" y2="5" stroke="#888" stroke-width="1" opacity="1"/><line transform="translate(500,0)" x2="0" y2="5" stroke="#888" stroke-width="1" opacity="1"/><line transform="translate(0,0)" x2="0" y2="5" stroke="#888" stroke-width="1" opacity="1"/><line transform="translate(33,0)" x2="0" y2="5" stroke="#888" stroke-width="1" opacity="1"/><line transform="translate(67,0)" x2="0" y2="5" stroke="#888" stroke-width="1" opacity="1"/><line transform="translate(100,0)" x2="0" y2="5" stroke="#888" stroke-width="1" opacity="1"/><line transform="translate(133,0)" x2="0" y2="5" stroke="#888" stroke-width="1" opacity="1"/><line transform="translate(200,0)" x2="0" y2="5" stroke="#888" stroke-width="1" opacity="1"/><line transform="translate(233,0)" x2="0" y2="5" stroke="#888" stroke-width="1" opacity="1"/><line transform="translate(267,0)" x2="0" y2="5" stroke="#888" stroke-width="1" opacity="1"/><line transform="translate(300,0)" x2="0" y2="5" stroke="#888" stroke-width="1" opacity="1"/><line transform="translate(367,0)" x2="0" y2="5" stroke="#888" stroke-width="1" opacity="1"/><line transform="translate(400,0)" x2="0" y2="5" stroke="#888" stroke-width="1" opacity="1"/><line transform="translate(433,0)" x2="0" y2="5" stroke="#888" stroke-width="1" opacity="1"/><line transform="translate(467,0)" x2="0" y2="5" stroke="#888" stroke-width="1" opacity="1"/></g><g class="mark-text role-axis-label" pointer-events="none"><text text-anchor="middle" transform="translate(333.3333333333333,15)" font-family="sans-serif" font-size="10px" fill="#000" opacity="1">20</text><text text-anchor="middle" transform="translate(166.66666666666666,15)" font-family="sans-serif" font-size="10px" fill="#000" opacity="1">10</text><text text-anchor="end" transform="translate(500,15)" font-family="sans-serif" font-size="10px" fill="#000" opacity="1">30</text><text text-anchor="start" transform="translate(0,15)" font-family="sans-serif" font-size="10px" fill="#000" opacity="1">0</text><text text-anchor="middle" transform="translate(33.333333333333336,15)" font-family="sans-serif" font-size="10px" fill="#000" opacity="1">2</text><text text-anchor="middle" transform="translate(66.66666666666667,15)" font-family="sans-serif" font-size="10px" fill="#000" opacity="1">4</text><text text-anchor="middle" transform="translate(100,15)" font-family="sans-serif" font-size="10px" fill="#000" opacity="1">6</text><text text-anchor="middle" transform="translate(133.33333333333334,15)" font-family="sans-serif" font-size="10px" fill="#000" opacity="1">8</text><text text-anchor="middle" transform="translate(200,15)" font-family="sans-serif" font-size="10px" fill="#000" opacity="1">12</text><text text-anchor="middle" transform="translate(233.33333333333334,15)" font-family="sans-serif" font-size="10px" fill="#000" opacity="1">14</text><text text-anchor="middle" transform="translate(266.6666666666667,15)" font-family="sans-serif" font-size="10px" fill="#000" opacity="1">16</text><text text-anchor="middle" transform="translate(300,15)" font-family="sans-serif" font-size="10px" fill="#000" opacity="1">18</text><text text-anchor="middle" transform="translate(366.66666666666663,15)" font-family="sans-serif" font-size="10px" fill="#000" opacity="1">22</text><text text-anchor="middle" transform="translate(400,15)" font-family="sans-serif" font-size="10px" fill="#000" opacity="1">24</text><text text-anchor="middle" transform="translate(433.33333333333337,15)" font-family="sans-serif" font-size="10px" fill="#000" opacity="1">26</text><text text-anchor="middle" transform="translate(466.6666666666667,15)" font-family="sans-serif" font-size="10px" fill="#000" opacity="1">28</text></g><g class="mark-rule role-axis-domain" pointer-events="none"><line transform="translate(0,0)" x2="500" y2="0" stroke="#888" stroke-width="1" opacity="1"/></g><g class="mark-text role-axis-title" pointer-events="none"><text text-anchor="middle" transform="translate(250,30)" font-family="sans-serif" font-size="11px" font-weight="bold" fill="#000" opacity="1">Número de Atributos do Modelo</text></g></g><path class="foreground" aria-hidden="true" d="" pointer-events="none" display="none"/></g></g><g class="mark-group role-axis" role="graphics-symbol" aria-roledescription="axis" aria-label="Y-axis titled 'Score R2 na Validação Cruzada' for a linear scale with values from −20.00% to 90.00%"><g transform="translate(0.5,0.5)"><path class="background" aria-hidden="true" d="M0,0h0v0h0Z" pointer-events="none"/><g><g class="mark-rule role-axis-tick" pointer-events="none"><line transform="translate(0,82)" x2="-5" y2="0" stroke="#888" stroke-width="1" opacity="1"/><line transform="translate(0,27)" x2="-5" y2="0" stroke="#888" stroke-width="1" opacity="1"/><line transform="translate(0,136)" x2="-5" y2="0" stroke="#888" stroke-width="1" opacity="1"/><line transform="translate(0,191)" x2="-5" y2="0" stroke="#888" stroke-width="1" opacity="1"/><line transform="translate(0,245)" x2="-5" y2="0" stroke="#888" stroke-width="1" opacity="1"/><line transform="translate(0,300)" x2="-5" y2="0" stroke="#888" stroke-width="1" opacity="1"/><line transform="translate(0,273)" x2="-5" y2="0" stroke="#888" stroke-width="1" opacity="1"/><line transform="translate(0,218)" x2="-5" y2="0" stroke="#888" stroke-width="1" opacity="1"/><line transform="translate(0,164)" x2="-5" y2="0" stroke="#888" stroke-width="1" opacity="1"/><line transform="translate(0,109)" x2="-5" y2="0" stroke="#888" stroke-width="1" opacity="1"/><line transform="translate(0,55)" x2="-5" y2="0" stroke="#888" stroke-width="1" opacity="1"/><line transform="translate(0,0)" x2="-5" y2="0" stroke="#888" stroke-width="1" opacity="1"/></g><g class="mark-text role-axis-label" pointer-events="none"><text text-anchor="end" transform="translate(-7,84.81818181818181)" font-family="sans-serif" font-size="10px" fill="#000" opacity="1">60.00%</text><text text-anchor="end" transform="translate(-7,30.27272727272728)" font-family="sans-serif" font-size="10px" fill="#000" opacity="1">80.00%</text><text text-anchor="end" transform="translate(-7,139.36363636363635)" font-family="sans-serif" font-size="10px" fill="#000" opacity="1">40.00%</text><text text-anchor="end" transform="translate(-7,193.9090909090909)" font-family="sans-serif" font-size="10px" fill="#000" opacity="1">20.00%</text><text text-anchor="end" transform="translate(-7,248.45454545454544)" font-family="sans-serif" font-size="10px" fill="#000" opacity="1">0.00%</text><text text-anchor="end" transform="translate(-7,303)" font-family="sans-serif" font-size="10px" fill="#000" opacity="1">−20.00%</text><text text-anchor="end" transform="translate(-7,275.7272727272727)" font-family="sans-serif" font-size="10px" fill="#000" opacity="1">−10.00%</text><text text-anchor="end" transform="translate(-7,221.1818181818182)" font-family="sans-serif" font-size="10px" fill="#000" opacity="1">10.00%</text><text text-anchor="end" transform="translate(-7,166.63636363636363)" font-family="sans-serif" font-size="10px" fill="#000" opacity="1">30.00%</text><text text-anchor="end" transform="translate(-7,112.09090909090912)" font-family="sans-serif" font-size="10px" fill="#000" opacity="1">50.00%</text><text text-anchor="end" transform="translate(-7,57.5454545454546)" font-family="sans-serif" font-size="10px" fill="#000" opacity="1">70.00%</text><text text-anchor="end" transform="translate(-7,3)" font-family="sans-serif" font-size="10px" fill="#000" opacity="1">90.00%</text></g><g class="mark-rule role-axis-domain" pointer-events="none"><line transform="translate(0,300)" x2="0" y2="-300" stroke="#888" stroke-width="1" opacity="1"/></g><g class="mark-text role-axis-title" pointer-events="none"><text text-anchor="middle" transform="translate(-50.755859375,150) rotate(-90) translate(0,-2)" font-family="sans-serif" font-size="11px" font-weight="bold" fill="#000" opacity="1">Score R2 na Validação Cruzada</text></g></g><path class="foreground" aria-hidden="true" d="" pointer-events="none" display="none"/></g></g><g class="mark-symbol role-mark marks" clip-path="url(#clip1)" role="graphics-object" aria-roledescription="symbol mark container"><path aria-label="Número de Atributos do Modelo: 29; Score R2 na Validação Cruzada: 83.01%; Método: LR; Dataset: Original; Número de Atributos: 29; R2 Score: 83.01%" role="graphics-symbol" aria-roledescription="point" transform="translate(483.3333333333333,19.050460708069426)" d="M6.124,0A6.124,6.124,0,1,1,-6.124,0A6.124,6.124,0,1,1,6.124,0" fill="#4c78a8" stroke-width="2" opacity="0.7"/><path aria-label="Número de Atributos do Modelo: 20; Score R2 na Validação Cruzada: 65.40%; Método: LR; Dataset: Bem Comportados; Número de Atributos: 20; R2 Score: 65.40%" role="graphics-symbol" aria-roledescription="point" transform="translate(333.3333333333333,67.08035327845333)" d="M6.124,0A6.124,6.124,0,1,1,-6.124,0A6.124,6.124,0,1,1,6.124,0" fill="#4c78a8" stroke-width="2" opacity="0.7"/><path aria-label="Número de Atributos do Modelo: 18; Score R2 na Validação Cruzada: 65.32%; Método: LR; Dataset: Bem Comportados e Pouco Correlacionados; Número de Atributos: 18; R2 Score: 65.32%" role="graphics-symbol" aria-roledescription="point" transform="translate(300,67.30420510719777)" d="M6.124,0A6.124,6.124,0,1,1,-6.124,0A6.124,6.124,0,1,1,6.124,0" fill="#4c78a8" stroke-width="2" opacity="0.7"/><path aria-label="Número de Atributos do Modelo: 9; Score R2 na Validação Cruzada: 54.84%; Método: LR; Dataset: Mal Comportados; Número de Atributos: 9; R2 Score: 54.84%" role="graphics-symbol" aria-roledescription="point" transform="translate(150,95.89196056122216)" d="M6.124,0A6.124,6.124,0,1,1,-6.124,0A6.124,6.124,0,1,1,6.124,0" fill="#4c78a8" stroke-width="2" opacity="0.7"/><path aria-label="Número de Atributos do Modelo: 6; Score R2 na Validação Cruzada: 53.10%; Método: LR; Dataset: Mal Comportados e Pouco Correlacionados; Número de Atributos: 6; R2 Score: 53.10%" role="graphics-symbol" aria-roledescription="point" transform="translate(100,100.64020856644966)" d="M6.124,0A6.124,6.124,0,1,1,-6.124,0A6.124,6.124,0,1,1,6.124,0" fill="#4c78a8" stroke-width="2" opacity="0.7"/><path aria-label="Número de Atributos do Modelo: 24; Score R2 na Validação Cruzada: 82.35%; Método: LR; Dataset: Bem Comportados + Mal Comportados; Número de Atributos: 24; R2 Score: 82.35%" role="graphics-symbol" aria-roledescription="point" transform="translate(400,20.851277401073254)" d="M6.124,0A6.124,6.124,0,1,1,-6.124,0A6.124,6.124,0,1,1,6.124,0" fill="#4c78a8" stroke-width="2" opacity="0.7"/><path aria-label="Número de Atributos do Modelo: 29; Score R2 na Validação Cruzada: 54.09%; Método: SVR (Linear); Dataset: Original; Número de Atributos: 29; R2 Score: 54.09%" role="graphics-symbol" aria-roledescription="point" transform="translate(483.3333333333333,97.92498316494492)" d="M6.124,0A6.124,6.124,0,1,1,-6.124,0A6.124,6.124,0,1,1,6.124,0" fill="#f58518" stroke-width="2" opacity="0.7"/><path aria-label="Número de Atributos do Modelo: 20; Score R2 na Validação Cruzada: 55.39%; Método: SVR (Linear); Dataset: Bem Comportados; Número de Atributos: 20; R2 Score: 55.39%" role="graphics-symbol" aria-roledescription="point" transform="translate(333.3333333333333,94.3974478354784)" d="M6.124,0A6.124,6.124,0,1,1,-6.124,0A6.124,6.124,0,1,1,6.124,0" fill="#f58518" stroke-width="2" opacity="0.7"/><path aria-label="Número de Atributos do Modelo: 18; Score R2 na Validação Cruzada: 59.73%; Método: SVR (Linear); Dataset: Bem Comportados e Pouco Correlacionados; Número de Atributos: 18; R2 Score: 59.73%" role="graphics-symbol" aria-roledescription="point" transform="translate(300,82.54976978032724)" d="M6.124,0A6.124,6.124,0,1,1,-6.124,0A6.124,6.124,0,1,1,6.124,0" fill="#f58518" stroke-width="2" opacity="0.7"/><path aria-label="Número de Atributos do Modelo: 9; Score R2 na Validação Cruzada: −2.92%; Método: SVR (Linear); Dataset: Mal Comportados; Número de Atributos: 9; R2 Score: −2.92%" role="graphics-symbol" aria-roledescription="point" transform="translate(150,253.40812553051057)" d="M6.124,0A6.124,6.124,0,1,1,-6.124,0A6.124,6.124,0,1,1,6.124,0" fill="#f58518" stroke-width="2" opacity="0.7"/><path aria-label="Número de Atributos do Modelo: 6; Score R2 na Validação Cruzada: −10.81%; Método: SVR (Linear); Dataset: Mal Comportados e Pouco Correlacionados; Número de Atributos: 6; R2 Score: −10.81%" role="graphics-symbol" aria-roledescription="point" transform="translate(100,274.9241871487881)" d="M6.124,0A6.124,6.124,0,1,1,-6.124,0A6.124,6.124,0,1,1,6.124,0" fill="#f58518" stroke-width="2" opacity="0.7"/><path aria-label="Número de Atributos do Modelo: 24; Score R2 na Validação Cruzada: 67.85%; Método: SVR (Linear); Dataset: Bem Comportados + Mal Comportados; Número de Atributos: 24; R2 Score: 67.85%" role="graphics-symbol" aria-roledescription="point" transform="translate(400,60.413974691951346)" d="M6.124,0A6.124,6.124,0,1,1,-6.124,0A6.124,6.124,0,1,1,6.124,0" fill="#f58518" stroke-width="2" opacity="0.7"/><path aria-label="Número de Atributos do Modelo: 29; Score R2 na Validação Cruzada: 80.47%; Método: SVR (RBF); Dataset: Original; Número de Atributos: 29; R2 Score: 80.47%" role="graphics-symbol" aria-roledescription="point" transform="translate(483.3333333333333,25.977973910329034)" d="M6.124,0A6.124,6.124,0,1,1,-6.124,0A6.124,6.124,0,1,1,6.124,0" fill="#e45756" stroke-width="2" opacity="0.7"/><path aria-label="Número de Atributos do Modelo: 20; Score R2 na Validação Cruzada: 64.37%; Método: SVR (RBF); Dataset: Bem Comportados; Número de Atributos: 20; R2 Score: 64.37%" role="graphics-symbol" aria-roledescription="point" transform="translate(333.3333333333333,69.90052167775758)" d="M6.124,0A6.124,6.124,0,1,1,-6.124,0A6.124,6.124,0,1,1,6.124,0" fill="#e45756" stroke-width="2" opacity="0.7"/><path aria-label="Número de Atributos do Modelo: 18; Score R2 na Validação Cruzada: 63.70%; Método: SVR (RBF); Dataset: Bem Comportados e Pouco Correlacionados; Número de Atributos: 18; R2 Score: 63.70%" role="graphics-symbol" aria-roledescription="point" transform="translate(300,71.73256014087433)" d="M6.124,0A6.124,6.124,0,1,1,-6.124,0A6.124,6.124,0,1,1,6.124,0" fill="#e45756" stroke-width="2" opacity="0.7"/><path aria-label="Número de Atributos do Modelo: 9; Score R2 na Validação Cruzada: 55.53%; Método: SVR (RBF); Dataset: Mal Comportados; Número de Atributos: 9; R2 Score: 55.53%" role="graphics-symbol" aria-roledescription="point" transform="translate(150,93.99800180116505)" d="M6.124,0A6.124,6.124,0,1,1,-6.124,0A6.124,6.124,0,1,1,6.124,0" fill="#e45756" stroke-width="2" opacity="0.7"/><path aria-label="Número de Atributos do Modelo: 6; Score R2 na Validação Cruzada: 53.87%; Método: SVR (RBF); Dataset: Mal Comportados e Pouco Correlacionados; Número de Atributos: 6; R2 Score: 53.87%" role="graphics-symbol" aria-roledescription="point" transform="translate(100,98.54196438385655)" d="M6.124,0A6.124,6.124,0,1,1,-6.124,0A6.124,6.124,0,1,1,6.124,0" fill="#e45756" stroke-width="2" opacity="0.7"/><path aria-label="Número de Atributos do Modelo: 24; Score R2 na Validação Cruzada: 80.44%; Método: SVR (RBF); Dataset: Bem Comportados + Mal Comportados; Número de Atributos: 24; R2 Score: 80.44%" role="graphics-symbol" aria-roledescription="point" transform="translate(400,26.072139880987866)" d="M6.124,0A6.124,6.124,0,1,1,-6.124,0A6.124,6.124,0,1,1,6.124,0" fill="#e45756" stroke-width="2" opacity="0.7"/></g><g class="mark-group role-legend" role="graphics-symbol" aria-roledescription="legend" aria-label="Symbol legend titled 'Método' for fill color with 3 values: LR, SVR (Linear), SVR (RBF)"><g transform="translate(518,0)"><path class="background" aria-hidden="true" d="M0,0h74v53h-74Z" pointer-events="none"/><g><g class="mark-group role-legend-entry"><g transform="translate(0,16)"><path class="background" aria-hidden="true" d="M0,0h0v0h0Z" pointer-events="none"/><g><g class="mark-group role-scope" role="graphics-object" aria-roledescription="group mark container"><g transform="translate(0,0)"><path class="background" aria-hidden="true" d="M0,0h73.7978515625v11h-73.7978515625Z" pointer-events="none" opacity="1"/><g><g class="mark-symbol role-legend-symbol" pointer-events="none"><path transform="translate(6,6)" d="M5,0A5,5,0,1,1,-5,0A5,5,0,1,1,5,0" fill="#4c78a8" stroke-width="1.5" opacity="0.7"/></g><g class="mark-text role-legend-label" pointer-events="none"><text text-anchor="start" transform="translate(16,9)" font-family="sans-serif" font-size="10px" fill="#000" opacity="1">LR</text></g></g><path class="foreground" aria-hidden="true" d="" pointer-events="none" display="none"/></g><g transform="translate(0,13)"><path class="background" aria-hidden="true" d="M0,0h73.7978515625v11h-73.7978515625Z" pointer-events="none" opacity="1"/><g><g class="mark-symbol role-legend-symbol" pointer-events="none"><path transform="translate(6,6)" d="M5,0A5,5,0,1,1,-5,0A5,5,0,1,1,5,0" fill="#f58518" stroke-width="1.5" opacity="0.7"/></g><g class="mark-text role-legend-label" pointer-events="none"><text text-anchor="start" transform="translate(16,9)" font-family="sans-serif" font-size="10px" fill="#000" opacity="1">SVR (Linear)</text></g></g><path class="foreground" aria-hidden="true" d="" pointer-events="none" display="none"/></g><g transform="translate(0,26)"><path class="background" aria-hidden="true" d="M0,0h73.7978515625v11h-73.7978515625Z" pointer-events="none" opacity="1"/><g><g class="mark-symbol role-legend-symbol" pointer-events="none"><path transform="translate(6,6)" d="M5,0A5,5,0,1,1,-5,0A5,5,0,1,1,5,0" fill="#e45756" stroke-width="1.5" opacity="0.7"/></g><g class="mark-text role-legend-label" pointer-events="none"><text text-anchor="start" transform="translate(16,9)" font-family="sans-serif" font-size="10px" fill="#000" opacity="1">SVR (RBF)</text></g></g><path class="foreground" aria-hidden="true" d="" pointer-events="none" display="none"/></g></g></g><path class="foreground" aria-hidden="true" d="" pointer-events="none" display="none"/></g></g><g class="mark-text role-legend-title" pointer-events="none"><text text-anchor="start" transform="translate(0,9)" font-family="sans-serif" font-size="11px" font-weight="bold" fill="#000" opacity="1">Método</text></g></g><path class="foreground" aria-hidden="true" d="" pointer-events="none" display="none"/></g></g><g class="mark-group role-title"><g transform="translate(250,-22)"><path class="background" aria-hidden="true" d="M0,0h0v0h0Z" pointer-events="none"/><g><g class="mark-text role-title-text" role="graphics-symbol" aria-roledescription="title" aria-label="Title text 'Performance dos Métodos em Cada Conjunto de Atributos'" pointer-events="none"><text text-anchor="middle" transform="translate(0,10)" font-family="sans-serif" font-size="13px" font-weight="bold" fill="#000" opacity="1">Performance dos Métodos em Cada Conjunto de Atributos</text></g></g><path class="foreground" aria-hidden="true" d="" pointer-events="none" display="none"/></g></g></g><path class="foreground" aria-hidden="true" d="" display="none"/></g></g></g><defs><clipPath id="clip1"><rect x="0" y="0" width="500" height="300"/></clipPath></defs></svg>